<svg xmlns="http://www.w3.org/2000/svg" viewBox="0 0 6214.66 1080"><defs><style>.cls-1{fill:#5a794d}.cls-15,.cls-2{fill:none}.cls-3{clip-path:url(#clip-path)}.cls-4{fill:#222221}.cls-5{isolation:isolate}.cls-6{fill:#d1ebec}.cls-7{fill:#e6f6e4}.cls-11,.cls-8,.cls-9{fill:#fff}.cls-8{opacity:.3}.cls-9{opacity:.42}.cls-10{opacity:.45}.cls-12{fill:#7fb381}.cls-13{mask:url(#mask)}.cls-14{mix-blend-mode:soft-light;fill:url(#Unnamed_Pattern_2)}.cls-15{stroke:#7b7266;stroke-miterlimit:10;stroke-width:3px}.cls-16{fill:#7b7266}.cls-17{fill:#938d83}</style><clipPath id="clip-path"><path class="cls-2" d="M0 0h71.91v54.09H0z"/></clipPath><mask id="mask" x="-.29" y=".29" width="15609.79" height="922.52" maskUnits="userSpaceOnUse"><path class="cls-1" d="M0 895.52h15609.5v27.3H0z"/></mask><pattern id="Unnamed_Pattern_2" data-name="Unnamed Pattern 2" width="71.91" height="54.09" patternTransform="matrix(23.34 0 0 -2.76 7364.88 46328.7)" patternUnits="userSpaceOnUse" viewBox="0 0 71.91 54.09"><path class="cls-2" d="M0 0h71.91v54.09H0z"/><g class="cls-3"><path class="cls-4" d="M1.19 4.51A.29.29 0 0 0 1 4.6a.31.31 0 0 0-.09.21A.28.28 0 0 0 1 5a.3.3 0 0 0 .4 0 .33.33 0 0 0 .09-.22.31.31 0 0 0-.08-.21.31.31 0 0 0-.22-.09M2.4 3.31a.31.31 0 0 0-.31.3.31.31 0 0 0 .61 0 .34.34 0 0 0-.09-.21.3.3 0 0 0-.21-.09M3.6 2.11a.29.29 0 0 0-.22.09.3.3 0 0 0-.08.21.28.28 0 0 0 .09.21.32.32 0 0 0 .42 0 .29.29 0 0 0 .09-.21.28.28 0 0 0-.09-.21.27.27 0 0 0-.21-.09M4.8.9a.34.34 0 0 0-.21.1.31.31 0 0 0-.09.22.29.29 0 0 0 .08.2.3.3 0 0 0 .43 0 .29.29 0 0 0 .09-.21A.28.28 0 0 0 5 1a.32.32 0 0 0-.2-.1M1.18 10.52a.28.28 0 0 0-.21.09.28.28 0 0 0-.09.21A.32.32 0 0 0 1 11a.3.3 0 0 0 .43 0 .31.31 0 0 0 .08-.21.28.28 0 0 0-.09-.21.24.24 0 0 0-.21-.09M2.39 9.32a.33.33 0 0 0-.21.08.3.3 0 0 0-.1.22.31.31 0 1 0 .52-.21.31.31 0 0 0-.21-.09M3.59 8.12a.31.31 0 0 0-.22.09.32.32 0 0 0-.08.21.34.34 0 0 0 .08.21.31.31 0 0 0 .43 0 .29.29 0 0 0 .09-.21.28.28 0 0 0-.1-.22.26.26 0 0 0-.2-.08M4.79 6.92a.3.3 0 0 0-.21.08.32.32 0 0 0-.09.22.35.35 0 0 0 .08.21.33.33 0 0 0 .44 0 .26.26 0 0 0 .08-.2A.31.31 0 0 0 5 7a.31.31 0 0 0-.21-.08M6 5.71a.29.29 0 0 0-.21.09.29.29 0 0 0-.1.2.31.31 0 0 0 .09.22.32.32 0 0 0 .43 0A.3.3 0 0 0 6.29 6a.34.34 0 0 0-.08-.21.31.31 0 0 0-.21-.08M7.19 4.51A.27.27 0 0 0 7 4.6a.28.28 0 0 0-.09.21A.33.33 0 0 0 7 5a.31.31 0 0 0 .42 0 .3.3 0 0 0 .08-.21.28.28 0 0 0-.1-.19.27.27 0 0 0-.21-.09M8.4 3.31a.32.32 0 0 0-.21.08.29.29 0 0 0 0 .43.31.31 0 0 0 .43 0 .3.3 0 0 0 .08-.21.31.31 0 0 0-.08-.21.3.3 0 0 0-.21-.09M9.6 2.11a.31.31 0 0 0-.22.09.28.28 0 0 0-.08.21.28.28 0 0 0 .09.21.32.32 0 0 0 .42 0 .29.29 0 0 0 .09-.21.31.31 0 0 0-.3-.3M10.8.9a.28.28 0 0 0-.21.1.25.25 0 0 0-.09.21.3.3 0 0 0 .09.21.31.31 0 0 0 .42 0 .32.32 0 0 0 .09-.21A.3.3 0 0 0 11 1a.35.35 0 0 0-.2-.1M1.17 16.53a.3.3 0 0 0-.21.09.28.28 0 0 0-.09.21A.27.27 0 0 0 1 17a.31.31 0 0 0 .43 0 .31.31 0 0 0 .08-.21.29.29 0 0 0-.09-.21.27.27 0 0 0-.21-.09M2.38 15.33a.3.3 0 0 0-.22.09.31.31 0 0 0-.09.21.33.33 0 0 0 .09.21.31.31 0 0 0 .43 0 .29.29 0 0 0 .09-.21.28.28 0 0 0-.1-.21.25.25 0 0 0-.2-.09M3.58 14.13a.31.31 0 0 0-.22.09.31.31 0 0 0-.08.21.3.3 0 0 0 .51.21.29.29 0 0 0 .09-.21.31.31 0 0 0-.3-.3M4.78 12.93a.3.3 0 0 0-.21.08.33.33 0 0 0-.09.22.27.27 0 0 0 .09.2.29.29 0 0 0 .42 0 .29.29 0 0 0 .09-.21A.31.31 0 0 0 5 13a.3.3 0 0 0-.21-.08M6 11.72a.31.31 0 0 0-.3.3.27.27 0 0 0 .09.21.3.3 0 0 0 .43 0 .29.29 0 0 0 .06-.23.31.31 0 0 0-.3-.3M7.18 10.52a.28.28 0 0 0-.21.09.28.28 0 0 0-.09.21A.29.29 0 0 0 7 11a.3.3 0 0 0 .42 0 .35.35 0 0 0 .1-.22.29.29 0 0 0-.1-.21.26.26 0 0 0-.21-.09M8.39 9.32a.29.29 0 0 0-.22.09.29.29 0 0 0-.09.21.31.31 0 0 0 .61 0 .29.29 0 0 0-.09-.21.27.27 0 0 0-.21-.09M9.59 8.12a.29.29 0 0 0-.22.09.32.32 0 0 0-.08.21.27.27 0 0 0 .09.21.3.3 0 0 0 .42 0 .27.27 0 0 0 .09-.2.27.27 0 0 0-.09-.21.27.27 0 0 0-.21-.09M10.79 6.92a.29.29 0 0 0-.3.3.35.35 0 0 0 .08.21.3.3 0 0 0 .43 0 .25.25 0 0 0 .09-.2A.31.31 0 0 0 11 7a.32.32 0 0 0-.21-.08M12 5.71a.29.29 0 0 0-.21.09.29.29 0 0 0-.09.21.31.31 0 0 0 .09.22.32.32 0 0 0 .43 0 .31.31 0 0 0 .07-.23.35.35 0 0 0-.08-.21.33.33 0 0 0-.21-.08M13.19 4.51a.31.31 0 0 0-.3.3A.33.33 0 0 0 13 5a.3.3 0 0 0 .5-.22.29.29 0 0 0-.08-.21.31.31 0 0 0-.22-.09M14.4 3.31a.31.31 0 0 0-.22.09.29.29 0 0 0-.09.21.28.28 0 0 0 .1.21.3.3 0 0 0 .51-.21.34.34 0 0 0-.09-.21.3.3 0 0 0-.21-.09M15.6 2.11a.3.3 0 0 0-.21.08.31.31 0 0 0-.09.22.28.28 0 0 0 .09.21.31.31 0 0 0 .42 0 .27.27 0 0 0 .09-.2.27.27 0 0 0-.09-.21.28.28 0 0 0-.21-.09M16.8.91a.29.29 0 0 0-.3.3.26.26 0 0 0 .09.2.3.3 0 0 0 .42 0 .29.29 0 0 0 .09-.21.3.3 0 0 0-.1-.2.31.31 0 0 0-.2-.09M1.16 22.54a.31.31 0 0 0-.3.3.29.29 0 0 0 .09.16.3.3 0 0 0 .42 0 .31.31 0 0 0 .09-.22.32.32 0 0 0-.08-.21.31.31 0 0 0-.22-.09M2.37 21.34a.28.28 0 0 0-.22.09.29.29 0 0 0 0 .43.32.32 0 0 0 .42 0 .32.32 0 0 0 .09-.21.28.28 0 0 0-.09-.21.29.29 0 0 0-.21-.09M3.57 20.14a.29.29 0 0 0-.3.3.32.32 0 0 0 .08.21.31.31 0 0 0 .43 0 .28.28 0 0 0 .09-.21.36.36 0 0 0-.09-.22.3.3 0 0 0-.21-.08M4.77 18.93a.31.31 0 0 0-.21.09.28.28 0 0 0-.09.21.3.3 0 0 0 .09.22A.3.3 0 0 0 5 19a.29.29 0 0 0-.22-.1M6 17.73a.28.28 0 0 0-.21.1.25.25 0 0 0-.09.2.29.29 0 0 0 .51.21.27.27 0 0 0 .06-.24.29.29 0 0 0-.09-.21.32.32 0 0 0-.18-.06M7.17 16.53a.31.31 0 0 0-.3.3A.31.31 0 0 0 7 17a.32.32 0 0 0 .43 0 .31.31 0 0 0 .08-.21.34.34 0 0 0-.08-.21.33.33 0 0 0-.22-.09M8.38 15.33a.31.31 0 0 0-.22.09.33.33 0 0 0-.09.21.28.28 0 0 0 .1.21.3.3 0 0 0 .42 0 .29.29 0 0 0 0-.42.29.29 0 0 0-.21-.09M9.58 14.13a.3.3 0 0 0-.22.09.31.31 0 0 0-.08.21.27.27 0 0 0 .09.21.32.32 0 0 0 .42 0 .29.29 0 0 0 0-.42.28.28 0 0 0-.21-.09M10.78 12.93a.27.27 0 0 0-.21.09.25.25 0 0 0-.09.21.3.3 0 0 0 .51.21.32.32 0 0 0 .09-.21.31.31 0 0 0-.3-.3M12 11.72a.29.29 0 0 0-.21.09.3.3 0 0 0 0 .43.31.31 0 0 0 .43 0 .26.26 0 0 0 .08-.21.29.29 0 0 0-.09-.21.27.27 0 0 0-.21-.09M13.18 10.52a.28.28 0 0 0-.21.09.31.31 0 0 0-.09.21.33.33 0 0 0 .12.18.3.3 0 0 0 .5-.22.32.32 0 0 0-.08-.21.31.31 0 0 0-.22-.09M14.39 9.32a.29.29 0 0 0-.22.09.32.32 0 0 0 0 .42.33.33 0 0 0 .43 0 .32.32 0 0 0 .09-.22.33.33 0 0 0-.09-.21.29.29 0 0 0-.21-.09M15.59 8.12a.31.31 0 0 0-.22.09.3.3 0 0 0-.08.21.34.34 0 0 0 .08.21.31.31 0 0 0 .43 0 .28.28 0 0 0 .09-.21.3.3 0 0 0-.1-.22.26.26 0 0 0-.2-.08M16.79 6.92a.32.32 0 0 0-.21.08.31.31 0 0 0-.09.22.29.29 0 0 0 .09.21.3.3 0 0 0 .42 0 .25.25 0 0 0 .09-.2A.31.31 0 0 0 17 7a.32.32 0 0 0-.21-.08M18 5.71a.28.28 0 0 0-.21.1.27.27 0 0 0-.09.2.3.3 0 0 0 .51.22.33.33 0 0 0 .08-.23.29.29 0 0 0-.09-.21.31.31 0 0 0-.2-.08M19.19 4.51a.29.29 0 0 0-.19.09.31.31 0 0 0-.09.21A.33.33 0 0 0 19 5a.3.3 0 0 0 .5-.22.32.32 0 0 0-.08-.21.31.31 0 0 0-.22-.09M20.4 3.31a.29.29 0 0 0-.22.09.31.31 0 0 0-.08.21.3.3 0 0 0 .08.21.31.31 0 0 0 .42 0 .31.31 0 0 0 .1-.22.31.31 0 0 0-.3-.3M21.6 2.11a.31.31 0 0 0-.22.09.28.28 0 0 0-.08.21.28.28 0 0 0 .09.21.31.31 0 0 0 .42 0 .25.25 0 0 0 .09-.2.27.27 0 0 0-.09-.21.28.28 0 0 0-.21-.09M22.8.91a.27.27 0 0 0-.21.09.26.26 0 0 0-.09.21.28.28 0 0 0 .09.21.31.31 0 0 0 .42 0 .3.3 0 0 0 .09-.21A.31.31 0 0 0 23 1a.31.31 0 0 0-.2-.09M1.15 28.55a.31.31 0 0 0-.3.3.29.29 0 0 0 .09.21.3.3 0 0 0 .42 0 .3.3 0 0 0 .09-.22.27.27 0 0 0-.09-.21.31.31 0 0 0-.21-.09M2.36 27.35a.31.31 0 0 0-.22.09.29.29 0 0 0-.09.21.32.32 0 0 0 .09.21.3.3 0 0 0 .51-.21.31.31 0 0 0-.08-.21.3.3 0 0 0-.21-.09M3.56 26.15a.31.31 0 0 0-.21.08.33.33 0 0 0-.09.22.27.27 0 0 0 .09.21.3.3 0 0 0 .42 0 .31.31 0 0 0 .09-.21.29.29 0 0 0-.09-.21.31.31 0 0 0-.21-.09M4.76 24.95a.32.32 0 0 0-.21.08.32.32 0 0 0-.09.22.29.29 0 0 0 .09.21.3.3 0 0 0 .42 0 .27.27 0 0 0 .09-.21A.31.31 0 0 0 5 25a.32.32 0 0 0-.21-.08M6 23.74a.31.31 0 0 0-.21.09.3.3 0 0 0-.09.21.3.3 0 0 0 .09.22.31.31 0 0 0 .43 0 .29.29 0 0 0 .04-.26.3.3 0 0 0-.09-.21.34.34 0 0 0-.17-.05M7.16 22.54a.32.32 0 0 0-.21.09.29.29 0 0 0 0 .42.3.3 0 0 0 .42 0 .31.31 0 0 0 .09-.22.27.27 0 0 0-.09-.21.3.3 0 0 0-.21-.09M8.37 21.34a.29.29 0 0 0-.22.09.29.29 0 0 0-.09.21.31.31 0 0 0 .61 0 .33.33 0 0 0-.09-.21.27.27 0 0 0-.21-.09M9.57 20.14a.27.27 0 0 0-.21.09.29.29 0 0 0-.09.21.27.27 0 0 0 .09.21.3.3 0 0 0 .42 0 .26.26 0 0 0 .09-.2.27.27 0 0 0-.09-.21.29.29 0 0 0-.21-.09M10.77 18.93a.32.32 0 0 0-.22.1.26.26 0 0 0-.08.2.3.3 0 0 0 .09.22.31.31 0 0 0 .42 0 .27.27 0 0 0 .09-.21A.33.33 0 0 0 11 19a.31.31 0 0 0-.21-.09M12 17.73a.34.34 0 0 0-.21.09.3.3 0 0 0-.09.21.31.31 0 0 0 .09.22.32.32 0 0 0 .43 0 .3.3 0 0 0 .08-.21.31.31 0 0 0-.09-.21.32.32 0 0 0-.21-.09M13.17 16.53a.28.28 0 0 0-.21.09.27.27 0 0 0-.09.21.32.32 0 0 0 .13.17.31.31 0 0 0 .42 0 .31.31 0 0 0 .08-.21.32.32 0 0 0-.08-.21.31.31 0 0 0-.22-.09M14.38 15.33a.31.31 0 0 0-.22.09.33.33 0 0 0-.09.21.28.28 0 0 0 .1.21.3.3 0 0 0 .42 0 .31.31 0 0 0 .09-.21.29.29 0 0 0-.09-.21.31.31 0 0 0-.21-.09M15.58 14.13a.29.29 0 0 0-.3.3.29.29 0 0 0 .09.21.31.31 0 0 0 .42 0 .27.27 0 0 0 .09-.21.36.36 0 0 0-.09-.22.31.31 0 0 0-.21-.08M16.78 12.93a.29.29 0 0 0-.21.5.3.3 0 0 0 .42 0A.3.3 0 0 0 17 13a.3.3 0 0 0-.21-.08M18 11.72a.31.31 0 0 0-.21.09.31.31 0 0 0-.09.21.29.29 0 0 0 .09.21.3.3 0 0 0 .42 0 .3.3 0 0 0 .09-.22.27.27 0 0 0-.09-.21.29.29 0 0 0-.21-.09M19.18 10.52a.27.27 0 0 0-.21.09.31.31 0 0 0-.09.21.27.27 0 0 0 .12.18.31.31 0 0 0 .42 0 .33.33 0 0 0 .09-.22.3.3 0 0 0-.08-.21.29.29 0 0 0-.22-.09M20.39 9.32a.29.29 0 0 0-.22.09.31.31 0 0 0 0 .43.31.31 0 0 0 .42 0 .29.29 0 0 0 0-.42.31.31 0 0 0-.21-.09M21.59 8.12a.29.29 0 0 0-.22.09.3.3 0 0 0-.08.21.29.29 0 0 0 .09.21.3.3 0 0 0 .51-.21.29.29 0 0 0-.09-.21.27.27 0 0 0-.21-.09M22.79 6.92a.3.3 0 0 0-.21.08.29.29 0 0 0-.09.22.27.27 0 0 0 .09.21.32.32 0 0 0 .42 0 .31.31 0 0 0 .09-.21A.27.27 0 0 0 23 7a.29.29 0 0 0-.21-.09M24 5.71a.29.29 0 0 0-.21.09.29.29 0 0 0-.09.21.34.34 0 0 0 .09.22.32.32 0 0 0 .43 0 .31.31 0 0 0 .07-.23.35.35 0 0 0-.08-.21.33.33 0 0 0-.21-.08M25.19 4.51a.29.29 0 0 0-.19.09.31.31 0 0 0-.09.21A.36.36 0 0 0 25 5a.34.34 0 0 0 .43 0 .33.33 0 0 0 .08-.21.32.32 0 0 0-.08-.21.29.29 0 0 0-.22-.09M26.4 3.31a.29.29 0 0 0-.22.09.31.31 0 0 0-.08.21.3.3 0 0 0 .08.21.32.32 0 0 0 .43 0 .33.33 0 0 0 .09-.21.33.33 0 0 0-.1-.22.26.26 0 0 0-.2-.08M27.6 2.11a.3.3 0 0 0-.21.08.31.31 0 0 0-.09.22.29.29 0 0 0 .09.21.31.31 0 0 0 .42 0 .3.3 0 0 0 .09-.21.31.31 0 0 0-.3-.3M28.8.91a.27.27 0 0 0-.21.09.26.26 0 0 0-.09.21.28.28 0 0 0 .09.21.31.31 0 0 0 .42 0 .3.3 0 0 0 .09-.21A.31.31 0 0 0 29 1a.31.31 0 0 0-.2-.09M1.14 34.56a.31.31 0 0 0-.3.3.27.27 0 0 0 .09.21.3.3 0 0 0 .51-.21.29.29 0 0 0-.09-.21.27.27 0 0 0-.21-.09M2.34 33.36a.28.28 0 0 0-.21.09.31.31 0 0 0-.09.21.29.29 0 0 0 .09.21.3.3 0 0 0 .42 0 .33.33 0 0 0 .09-.22.32.32 0 0 0-.08-.21.31.31 0 0 0-.22-.09M3.55 32.16a.31.31 0 0 0-.31.3.33.33 0 0 0 .09.21.31.31 0 0 0 .43 0 .33.33 0 0 0 .09-.21.31.31 0 0 0-.1-.22.27.27 0 0 0-.2-.08M4.75 31a.27.27 0 0 0-.21.09.27.27 0 0 0-.09.21.27.27 0 0 0 .09.21.3.3 0 0 0 .42 0 .27.27 0 0 0 .09-.2A.31.31 0 0 0 5 31a.32.32 0 0 0-.25 0M5.95 29.75a.28.28 0 0 0-.21.1.25.25 0 0 0-.09.21.3.3 0 0 0 .09.21.31.31 0 0 0 .42 0 .3.3 0 0 0 0-.43.31.31 0 0 0-.21-.09M7.15 28.55a.31.31 0 0 0-.3.3.32.32 0 0 0 .1.22.31.31 0 0 0 .42 0 .3.3 0 0 0 .08-.21.29.29 0 0 0-.09-.21.27.27 0 0 0-.21-.09M8.36 27.35a.31.31 0 0 0-.22.09.29.29 0 0 0-.09.21.32.32 0 0 0 .09.21.31.31 0 0 0 .43 0 .3.3 0 0 0 .08-.21.3.3 0 0 0-.08-.21.28.28 0 0 0-.21-.09M9.56 26.15a.31.31 0 0 0-.22.09.29.29 0 0 0-.08.21.27.27 0 0 0 .09.21.3.3 0 0 0 .42 0 .29.29 0 0 0 .09-.21.28.28 0 0 0-.09-.21.29.29 0 0 0-.21-.09M10.76 24.95a.29.29 0 0 0-.3.3.29.29 0 0 0 .09.21.3.3 0 0 0 .51-.21A.29.29 0 0 0 11 25a.27.27 0 0 0-.21-.09M12 23.75a.3.3 0 0 0-.21.08.31.31 0 0 0-.09.22.29.29 0 0 0 .09.21.31.31 0 0 0 .43 0 .26.26 0 0 0 .08-.2.29.29 0 0 0-.09-.22.3.3 0 0 0-.21-.08M13.16 22.54a.28.28 0 0 0-.21.1.27.27 0 0 0-.09.2.36.36 0 0 0 .09.22.32.32 0 0 0 .43 0 .3.3 0 0 0 .08-.21.29.29 0 0 0-.09-.21.27.27 0 0 0-.21-.09M14.37 21.34a.31.31 0 0 0-.22.09.3.3 0 0 0-.08.21.3.3 0 0 0 .6 0 .28.28 0 0 0-.09-.21.31.31 0 0 0-.21-.09M15.57 20.14a.31.31 0 0 0-.22.09.33.33 0 0 0-.08.21.34.34 0 0 0 .08.21.31.31 0 0 0 .43 0 .3.3 0 0 0 .09-.21.34.34 0 0 0-.09-.22.3.3 0 0 0-.21-.08M16.77 18.93a.31.31 0 0 0-.21.09.3.3 0 0 0 0 .43.31.31 0 0 0 .42 0 .28.28 0 0 0 .09-.21A.3.3 0 0 0 17 19a.33.33 0 0 0-.21-.09M18 17.74a.31.31 0 0 0-.21.08.29.29 0 0 0-.09.21.3.3 0 0 0 .51.22.31.31 0 0 0 .09-.22.29.29 0 0 0-.09-.21.31.31 0 0 0-.21-.08M19.17 16.53a.31.31 0 0 0-.3.3.33.33 0 0 0 .13.17.32.32 0 0 0 .43 0 .31.31 0 0 0 .08-.21.27.27 0 0 0-.09-.21.29.29 0 0 0-.21-.09M20.38 15.33a.3.3 0 0 0-.22.09.32.32 0 0 0 0 .42.31.31 0 0 0 .42 0 .3.3 0 0 0 .1-.22.29.29 0 0 0-.09-.21.29.29 0 0 0-.21-.09M21.58 14.13a.3.3 0 0 0-.22.09.29.29 0 0 0-.08.21.29.29 0 0 0 .09.21.31.31 0 0 0 .42 0 .29.29 0 0 0 .09-.21.36.36 0 0 0-.09-.22.31.31 0 0 0-.21-.08M22.78 12.93a.27.27 0 0 0-.21.09.24.24 0 0 0-.09.21.29.29 0 0 0 .09.21.31.31 0 0 0 .42 0A.3.3 0 0 0 23 13a.3.3 0 0 0-.21-.08M24 11.72a.31.31 0 0 0-.21.09.29.29 0 0 0-.09.21.31.31 0 0 0 .09.22.3.3 0 0 0 .51-.22.34.34 0 0 0-.08-.21.31.31 0 0 0-.22-.09M25.18 10.52a.27.27 0 0 0-.21.09.28.28 0 0 0-.09.21.32.32 0 0 0 .12.18.31.31 0 0 0 .42 0 .33.33 0 0 0 .09-.22.34.34 0 0 0-.08-.21.29.29 0 0 0-.22-.09M26.39 9.32a.29.29 0 0 0-.22.09.31.31 0 0 0 0 .43.31.31 0 0 0 .42 0 .31.31 0 0 0 .09-.21.33.33 0 0 0-.1-.22.27.27 0 0 0-.2-.08M27.59 8.12a.3.3 0 0 0-.21.51.32.32 0 0 0 .42 0 .29.29 0 0 0 0-.42.29.29 0 0 0-.21-.09M28.79 6.92a.3.3 0 0 0-.21.08.29.29 0 0 0-.09.22.27.27 0 0 0 .09.21.31.31 0 0 0 .42 0 .27.27 0 0 0 .09-.2A.29.29 0 0 0 29 7a.32.32 0 0 0-.21-.08M30 5.71a.29.29 0 0 0-.21.09.29.29 0 0 0-.09.21.31.31 0 0 0 .09.22.32.32 0 0 0 .43 0 .3.3 0 0 0 0-.42.27.27 0 0 0-.22-.1M31.19 4.51a.29.29 0 0 0-.19.09.33.33 0 0 0-.09.21A.32.32 0 0 0 31 5a.31.31 0 0 0 .42 0 .33.33 0 0 0 .09-.22.34.34 0 0 0-.08-.21.31.31 0 0 0-.22-.09M32.4 3.31a.28.28 0 0 0-.22.09.31.31 0 0 0-.08.21.27.27 0 0 0 .09.21.3.3 0 0 0 .51-.21.32.32 0 0 0-.09-.21.29.29 0 0 0-.21-.09M33.6 2.11a.31.31 0 0 0-.22.09.28.28 0 0 0-.08.21.28.28 0 0 0 .09.21.31.31 0 0 0 .42 0 .3.3 0 0 0 .09-.21.27.27 0 0 0-.09-.21.28.28 0 0 0-.21-.09M34.8.91a.33.33 0 0 0-.21.08.28.28 0 0 0-.09.22.27.27 0 0 0 .09.21.32.32 0 0 0 .43 0 .3.3 0 0 0 .08-.2A.31.31 0 0 0 35 1a.31.31 0 0 0-.2-.09M1.13 40.57a.31.31 0 0 0-.21.09.3.3 0 0 0-.09.21.31.31 0 0 0 .09.22.32.32 0 0 0 .43 0 .3.3 0 0 0 0-.42.31.31 0 0 0-.21-.09M2.33 39.37a.3.3 0 0 0-.21.51.3.3 0 0 0 .51-.21.27.27 0 0 0-.09-.21.26.26 0 0 0-.21-.09M3.54 38.17a.29.29 0 0 0-.3.3.31.31 0 0 0 .08.21.31.31 0 0 0 .43 0 .31.31 0 0 0 .08-.21.3.3 0 0 0-.08-.21.29.29 0 0 0-.21-.09M4.74 37a.31.31 0 0 0-.3.3.32.32 0 0 0 .08.21.31.31 0 0 0 .43 0 .27.27 0 0 0 .05-.24.3.3 0 0 0-.1-.22.26.26 0 0 0-.2-.08M5.94 35.76a.31.31 0 0 0-.21.09.32.32 0 0 0-.09.21.31.31 0 0 0 .08.21.3.3 0 0 0 .43 0 .27.27 0 0 0 .09-.21.3.3 0 0 0-.09-.21.31.31 0 0 0-.21-.09M7.14 34.56a.31.31 0 0 0-.3.3.27.27 0 0 0 .09.21.3.3 0 0 0 .51-.21.29.29 0 0 0-.09-.21.27.27 0 0 0-.21-.09M8.34 33.36a.3.3 0 0 0-.21.09.28.28 0 0 0-.09.21.32.32 0 0 0 .09.21.3.3 0 0 0 .43 0 .31.31 0 0 0 .08-.21.32.32 0 0 0-.08-.21.31.31 0 0 0-.22-.09M9.55 32.16a.29.29 0 0 0-.22.09.31.31 0 0 0-.09.21.33.33 0 0 0 .09.21.32.32 0 0 0 .43 0 .33.33 0 0 0 .09-.22.27.27 0 0 0-.09-.21.29.29 0 0 0-.21-.09M10.75 31a.29.29 0 0 0-.3.3.27.27 0 0 0 .09.21.32.32 0 0 0 .42 0 .31.31 0 0 0 .09-.21.28.28 0 0 0-.05-.3.29.29 0 0 0-.21-.09M11.95 29.76a.27.27 0 0 0-.21.09.26.26 0 0 0-.09.2.28.28 0 0 0 .09.22.31.31 0 0 0 .42 0 .27.27 0 0 0 .09-.21.29.29 0 0 0-.3-.29M13.15 28.55a.29.29 0 0 0-.21.09.32.32 0 0 0-.09.21.3.3 0 0 0 .1.22.31.31 0 0 0 .42 0 .3.3 0 0 0 .08-.21.34.34 0 0 0-.08-.21.33.33 0 0 0-.22-.09M14.36 27.35a.31.31 0 0 0-.22.09.27.27 0 0 0-.09.21.33.33 0 0 0 .1.22.31.31 0 0 0 .42 0 .3.3 0 0 0 .08-.21.31.31 0 0 0-.29-.3M15.56 26.15a.3.3 0 0 0-.22.09.29.29 0 0 0-.08.21.3.3 0 0 0 .51.21.33.33 0 0 0 .09-.21.33.33 0 0 0-.1-.22.27.27 0 0 0-.2-.08M16.76 24.95a.29.29 0 0 0-.22.09.3.3 0 0 0-.08.21.29.29 0 0 0 .09.21.31.31 0 0 0 .42 0 .29.29 0 0 0 .09-.21A.31.31 0 0 0 17 25a.3.3 0 0 0-.21-.08M18 23.74a.29.29 0 0 0-.21.09.3.3 0 0 0-.09.21.31.31 0 0 0 .09.22.31.31 0 0 0 .43 0 .27.27 0 0 0 .08-.21.29.29 0 0 0-.09-.21.34.34 0 0 0-.21-.09M19.16 22.54a.31.31 0 0 0-.3.3.3.3 0 0 0 .1.22.31.31 0 0 0 .42 0 .3.3 0 0 0 .08-.21.29.29 0 0 0-.09-.21.3.3 0 0 0-.21-.09M20.36 21.34a.27.27 0 0 0-.21.09.32.32 0 0 0-.08.21.31.31 0 0 0 .08.21.32.32 0 0 0 .43 0 .3.3 0 0 0 .09-.21.29.29 0 0 0-.09-.21.31.31 0 0 0-.22-.09M21.57 20.14a.31.31 0 0 0-.22.09.29.29 0 0 0-.08.21.27.27 0 0 0 .09.21.31.31 0 0 0 .42 0 .3.3 0 0 0 .09-.21.27.27 0 0 0-.09-.21.29.29 0 0 0-.21-.09M22.77 18.94a.3.3 0 0 0-.21.08.3.3 0 0 0 0 .43.31.31 0 0 0 .42 0 .3.3 0 0 0 .09-.21.31.31 0 0 0-.3-.3M24 17.73a.34.34 0 0 0-.21.09.29.29 0 0 0-.09.21.28.28 0 0 0 .09.22.32.32 0 0 0 .42 0 .31.31 0 0 0 .09-.22.31.31 0 0 0-.3-.3M25.17 16.53a.31.31 0 0 0-.3.3.33.33 0 0 0 .13.17.32.32 0 0 0 .43 0 .31.31 0 0 0 .08-.21.27.27 0 0 0-.09-.21.29.29 0 0 0-.21-.09M26.38 15.33a.3.3 0 0 0-.22.09.31.31 0 0 0-.08.21.27.27 0 0 0 .09.21.3.3 0 0 0 .42 0 .31.31 0 0 0 .09-.21.28.28 0 0 0-.1-.21.24.24 0 0 0-.2-.09M27.58 14.13a.3.3 0 0 0-.21.08.32.32 0 0 0-.09.22.27.27 0 0 0 .09.21.32.32 0 0 0 .42 0 .31.31 0 0 0 .09-.21.28.28 0 0 0-.09-.21.29.29 0 0 0-.21-.09M28.78 12.93a.27.27 0 0 0-.21.09.25.25 0 0 0-.09.2.28.28 0 0 0 .09.22.3.3 0 0 0 .51-.22A.29.29 0 0 0 29 13a.31.31 0 0 0-.22-.09M30 11.72a.29.29 0 0 0-.21.09.28.28 0 0 0-.09.21.31.31 0 0 0 .09.22.31.31 0 0 0 .42 0 .27.27 0 0 0 .09-.21.29.29 0 0 0-.09-.21.31.31 0 0 0-.21-.09M31.18 10.52a.28.28 0 0 0-.21.09.28.28 0 0 0-.09.21.27.27 0 0 0 .12.18.3.3 0 0 0 .43 0 .33.33 0 0 0 .08-.21.34.34 0 0 0-.08-.21.31.31 0 0 0-.22-.09M32.39 9.32a.31.31 0 0 0-.22.09.31.31 0 0 0 0 .43.31.31 0 0 0 .42 0 .31.31 0 0 0 .09-.21.29.29 0 0 0-.09-.21.31.31 0 0 0-.21-.09M33.59 8.12a.29.29 0 0 0-.22.09.28.28 0 0 0-.08.21.27.27 0 0 0 .09.21.31.31 0 0 0 .42 0 .27.27 0 0 0 .09-.21.31.31 0 0 0-.09-.22.3.3 0 0 0-.21-.08M34.79 6.92a.32.32 0 0 0-.21.08.3.3 0 0 0 0 .43.32.32 0 0 0 .42 0 .31.31 0 0 0 .09-.21A.27.27 0 0 0 35 7a.29.29 0 0 0-.21-.09M36 5.71a.29.29 0 0 0-.21.09.32.32 0 0 0-.09.21.34.34 0 0 0 .09.22.32.32 0 0 0 .43 0 .31.31 0 0 0 .07-.23.29.29 0 0 0-.09-.21.31.31 0 0 0-.2-.08M37.19 4.51a.32.32 0 0 0-.2.08.3.3 0 0 0-.1.22A.36.36 0 0 0 37 5a.32.32 0 0 0 .42 0 .31.31 0 0 0 .09-.22.33.33 0 0 0-.08-.21.32.32 0 0 0-.22-.09M38.4 3.31a.32.32 0 0 0-.21.08.31.31 0 0 0-.09.22.31.31 0 0 0 .09.22.32.32 0 0 0 .42 0 .33.33 0 0 0 .09-.21.29.29 0 0 0-.09-.21.3.3 0 0 0-.21-.09M39.6 2.11a.29.29 0 0 0-.22.09.3.3 0 0 0-.08.21.29.29 0 0 0 .09.21.31.31 0 0 0 .42 0 .3.3 0 0 0 .09-.21.31.31 0 0 0-.3-.3M40.8.91a.31.31 0 0 0-.21.08.29.29 0 0 0-.09.22.28.28 0 0 0 .09.21.31.31 0 0 0 .42 0 .32.32 0 0 0 .09-.21A.32.32 0 0 0 41 1a.31.31 0 0 0-.2-.09M1.12 46.58a.32.32 0 0 0-.21.09.29.29 0 0 0-.09.21.27.27 0 0 0 .09.21.3.3 0 0 0 .51-.21.27.27 0 0 0-.09-.21.32.32 0 0 0-.21-.09M2.32 45.38a.28.28 0 0 0-.21.1.28.28 0 0 0 0 .41.31.31 0 0 0 .42 0 .32.32 0 0 0 .09-.22.29.29 0 0 0-.09-.21.26.26 0 0 0-.21-.09M3.53 44.18a.29.29 0 0 0-.22.09.31.31 0 0 0-.09.21.3.3 0 0 0 .09.21.31.31 0 0 0 .43 0 .33.33 0 0 0 .09-.21.28.28 0 0 0-.1-.21.24.24 0 0 0-.2-.09M4.73 43a.29.29 0 0 0-.3.3.29.29 0 0 0 .08.2.3.3 0 0 0 .43 0 .28.28 0 0 0 .06-.22.31.31 0 0 0-.1-.22.26.26 0 0 0-.2-.08M5.93 41.78a.3.3 0 0 0-.21.08.31.31 0 0 0-.09.22.3.3 0 0 0 .08.2.3.3 0 0 0 .43 0 .29.29 0 0 0 .09-.21.32.32 0 0 0-.09-.22.3.3 0 0 0-.21-.08M7.13 40.57a.33.33 0 0 0-.21.09.3.3 0 0 0-.09.21.31.31 0 0 0 .09.22.32.32 0 0 0 .43 0 .27.27 0 0 0 .08-.21.29.29 0 0 0-.09-.21.31.31 0 0 0-.21-.09M8.34 39.37a.31.31 0 0 0-.22.09.29.29 0 0 0-.09.21.31.31 0 0 0 .09.21.31.31 0 0 0 .43 0 .3.3 0 0 0 .08-.21.27.27 0 0 0-.09-.21.27.27 0 0 0-.2-.09M9.54 38.17a.3.3 0 0 0-.22.09.3.3 0 0 0-.08.21.3.3 0 0 0 .51.21.32.32 0 0 0 .09-.21.29.29 0 0 0-.09-.21.29.29 0 0 0-.21-.09M10.74 37a.31.31 0 0 0-.21.08.31.31 0 0 0-.09.22.27.27 0 0 0 .09.21.32.32 0 0 0 .42 0 .29.29 0 0 0 .09-.21.29.29 0 0 0-.09-.21.29.29 0 0 0-.21-.09M11.94 35.76a.29.29 0 0 0-.21.09.3.3 0 0 0-.09.21.31.31 0 0 0 .09.22.3.3 0 0 0 .42 0 .28.28 0 0 0 .09-.21.28.28 0 0 0-.09-.21.33.33 0 0 0-.21-.09M13.14 34.56a.27.27 0 0 0-.21.09.29.29 0 0 0-.09.21.33.33 0 0 0 .09.22.32.32 0 0 0 .43 0 .3.3 0 0 0 .08-.21.34.34 0 0 0-.08-.21.31.31 0 0 0-.22-.09M14.34 33.36a.27.27 0 0 0-.21.09.31.31 0 0 0-.09.21.27.27 0 0 0 .09.21.31.31 0 0 0 .42 0 .34.34 0 0 0 .09-.22.33.33 0 0 0-.08-.21.31.31 0 0 0-.22-.09M15.55 32.16a.29.29 0 0 0-.22.09.29.29 0 0 0 0 .42.32.32 0 0 0 .43 0 .29.29 0 0 0 0-.42.27.27 0 0 0-.21-.09M16.75 31a.29.29 0 0 0-.22.09.29.29 0 0 0-.08.21.29.29 0 0 0 .09.21.31.31 0 0 0 .42 0 .3.3 0 0 0 .09-.21.28.28 0 0 0-.05-.3.29.29 0 0 0-.21-.09M17.95 29.75a.34.34 0 0 0-.21.09.3.3 0 0 0-.09.21.31.31 0 0 0 .09.22.32.32 0 0 0 .43 0 .3.3 0 0 0 .08-.21.3.3 0 0 0-.09-.21.31.31 0 0 0-.21-.09M19.15 28.55a.31.31 0 0 0-.21.09.34.34 0 0 0-.09.21.3.3 0 0 0 .1.22.31.31 0 0 0 .42 0 .3.3 0 0 0 .08-.21.34.34 0 0 0-.08-.21.33.33 0 0 0-.22-.09M20.36 27.35a.28.28 0 0 0-.22.09.31.31 0 0 0-.09.21.32.32 0 0 0 .09.21.32.32 0 0 0 .42 0 .33.33 0 0 0 .09-.22.31.31 0 0 0-.08-.21.28.28 0 0 0-.21-.09M21.56 26.15a.3.3 0 0 0-.22.09.31.31 0 0 0-.08.21.27.27 0 0 0 .09.21.31.31 0 0 0 .42 0 .3.3 0 0 0 .09-.21.33.33 0 0 0-.08-.21.33.33 0 0 0-.22-.09M22.76 24.95a.31.31 0 0 0-.22.09.29.29 0 0 0-.08.21.27.27 0 0 0 .09.21.32.32 0 0 0 .42 0 .29.29 0 0 0 .09-.21A.27.27 0 0 0 23 25a.27.27 0 0 0-.21-.09M24 23.74a.33.33 0 0 0-.22.1.27.27 0 0 0-.08.2.28.28 0 0 0 .09.22.32.32 0 0 0 .43 0 .3.3 0 0 0 0-.42.34.34 0 0 0-.21-.09M25.16 22.54a.31.31 0 0 0-.3.3.36.36 0 0 0 .09.22.3.3 0 0 0 .51-.22.27.27 0 0 0-.09-.21.3.3 0 0 0-.21-.09M26.37 21.34a.28.28 0 0 0-.22.09.3.3 0 0 0-.08.21.31.31 0 0 0 .08.21.32.32 0 0 0 .43 0 .31.31 0 0 0 .08-.21.3.3 0 0 0-.08-.21.27.27 0 0 0-.21-.09M27.57 20.14a.29.29 0 0 0-.22.09.31.31 0 0 0-.08.21.29.29 0 0 0 .09.21.31.31 0 0 0 .42 0 .28.28 0 0 0 .09-.21.31.31 0 0 0-.3-.3M28.77 18.94a.3.3 0 0 0-.21.08.3.3 0 0 0 0 .43.31.31 0 0 0 .42 0 .29.29 0 0 0 .09-.21A.31.31 0 0 0 29 19a.32.32 0 0 0-.21-.08M30 17.74a.27.27 0 0 0-.21.09.24.24 0 0 0-.09.2.28.28 0 0 0 .09.22.32.32 0 0 0 .42 0 .31.31 0 0 0 .09-.22.35.35 0 0 0-.08-.21.36.36 0 0 0-.22-.08M31.17 16.53a.28.28 0 0 0-.21.09.31.31 0 0 0-.09.21.32.32 0 0 0 .13.17.31.31 0 0 0 .42 0 .31.31 0 0 0 .08-.21.32.32 0 0 0-.08-.21.31.31 0 0 0-.22-.09M32.38 15.33a.3.3 0 0 0-.22.09.31.31 0 0 0-.08.21.31.31 0 0 0 .09.22.31.31 0 0 0 .51-.22.32.32 0 0 0-.1-.22.28.28 0 0 0-.2-.08M33.58 14.13a.32.32 0 0 0-.21.08.32.32 0 0 0-.09.22.27.27 0 0 0 .09.21.31.31 0 0 0 .42 0 .29.29 0 0 0 0-.42.31.31 0 0 0-.21-.09M34.78 12.92a.28.28 0 0 0-.21.1.25.25 0 0 0-.09.2.28.28 0 0 0 .09.22.31.31 0 0 0 .42 0 .25.25 0 0 0 .09-.21A.28.28 0 0 0 35 13a.31.31 0 0 0-.21-.09M36 11.72a.29.29 0 0 0-.21.09.29.29 0 0 0-.09.21.31.31 0 0 0 .09.22.3.3 0 0 0 .42 0 .27.27 0 0 0 .09-.21.29.29 0 0 0-.09-.21.31.31 0 0 0-.21-.09M37.18 10.52a.31.31 0 0 0-.2.08.29.29 0 0 0-.1.22.33.33 0 0 0 .12.18.31.31 0 0 0 .41 0 .31.31 0 0 0 .09-.22.34.34 0 0 0-.08-.21.32.32 0 0 0-.22-.09M38.39 9.32a.29.29 0 0 0-.22.09.32.32 0 0 0 0 .42.31.31 0 0 0 .43 0 .32.32 0 0 0 0-.42.27.27 0 0 0-.21-.09M39.59 8.12a.31.31 0 0 0-.22.09.32.32 0 0 0-.08.21.34.34 0 0 0 .08.21.31.31 0 0 0 .43 0 .31.31 0 0 0 .09-.21.31.31 0 0 0-.3-.3M40.79 6.92a.3.3 0 0 0-.21.08.29.29 0 0 0-.09.22.27.27 0 0 0 .09.21.32.32 0 0 0 .42 0 .28.28 0 0 0 .09-.21A.31.31 0 0 0 41 7a.32.32 0 0 0-.21-.08M42 5.71a.3.3 0 0 0-.21.09.29.29 0 0 0-.09.21.31.31 0 0 0 .09.22.32.32 0 0 0 .42 0 .31.31 0 0 0 .08-.23.35.35 0 0 0-.08-.21.33.33 0 0 0-.21-.08M43.19 4.51a.32.32 0 0 0-.2.08.28.28 0 0 0-.1.22A.33.33 0 0 0 43 5a.31.31 0 0 0 .42 0 .3.3 0 0 0 .08-.21.31.31 0 0 0-.08-.21.31.31 0 0 0-.22-.09M44.4 3.31a.3.3 0 0 0-.31.3.29.29 0 0 0 .09.21.31.31 0 0 0 .43 0 .28.28 0 0 0 .09-.21.29.29 0 0 0-.09-.21.3.3 0 0 0-.21-.09M45.6 2.11a.28.28 0 0 0-.21.08.31.31 0 0 0-.09.22.28.28 0 0 0 .09.21.31.31 0 0 0 .42 0 .3.3 0 0 0 .09-.21.32.32 0 0 0-.08-.21.32.32 0 0 0-.22-.09M46.8.9a.34.34 0 0 0-.21.09.29.29 0 0 0-.09.22.28.28 0 0 0 .09.21.31.31 0 0 0 .42 0 .32.32 0 0 0 .09-.21A.32.32 0 0 0 47 1a.32.32 0 0 0-.2-.1M1.11 52.59a.29.29 0 0 0-.21.09.3.3 0 0 0-.09.21.31.31 0 0 0 .09.22.31.31 0 0 0 .42 0 .26.26 0 0 0 .09-.21.28.28 0 0 0-.09-.21.31.31 0 0 0-.21-.09M2.31 51.39a.27.27 0 0 0-.21.09.29.29 0 0 0-.09.21.27.27 0 0 0 .09.21.31.31 0 0 0 .43 0 .3.3 0 0 0 .08-.21.32.32 0 0 0-.08-.21.29.29 0 0 0-.22-.09M3.52 50.19a.31.31 0 0 0-.22.09.27.27 0 0 0-.09.21.29.29 0 0 0 .09.21.31.31 0 0 0 .43 0 .31.31 0 0 0 0-.43.28.28 0 0 0-.2-.08M4.72 49a.31.31 0 0 0-.21.08.34.34 0 0 0-.1.22.28.28 0 0 0 .1.21.3.3 0 0 0 .42 0 .31.31 0 0 0 .07-.22.29.29 0 0 0-.09-.21.31.31 0 0 0-.19-.08M5.92 47.79a.3.3 0 0 0-.21.08.32.32 0 0 0-.09.22.34.34 0 0 0 .08.21.31.31 0 0 0 .43 0 .24.24 0 0 0 .09-.2.27.27 0 0 0-.09-.21.27.27 0 0 0-.21-.09M7.12 46.58a.32.32 0 0 0-.21.09.29.29 0 0 0-.09.21.32.32 0 0 0 .08.21.3.3 0 0 0 .43 0 .31.31 0 0 0 .09-.22.29.29 0 0 0-.09-.21.32.32 0 0 0-.21-.09M8.32 45.38a.31.31 0 0 0-.21.09.31.31 0 0 0-.09.21.27.27 0 0 0 .09.21.3.3 0 0 0 .51-.21.33.33 0 0 0-.08-.21.31.31 0 0 0-.22-.09M9.53 44.18a.28.28 0 0 0-.22.09.31.31 0 0 0-.09.21.34.34 0 0 0 .09.21.31.31 0 0 0 .42 0 .32.32 0 0 0 .1-.22.32.32 0 0 0-.09-.21.28.28 0 0 0-.21-.09M10.73 43a.29.29 0 0 0-.3.3.27.27 0 0 0 .09.21.3.3 0 0 0 .51-.21.27.27 0 0 0-.09-.21.29.29 0 0 0-.21-.09M11.93 41.78a.31.31 0 0 0-.22.09.3.3 0 0 0-.08.21.3.3 0 0 0 .09.21.3.3 0 0 0 .42-.43.3.3 0 0 0-.21-.08M13.13 40.57a.28.28 0 0 0-.21.1.25.25 0 0 0-.09.2.29.29 0 0 0 .09.22.3.3 0 0 0 .51-.22.3.3 0 0 0-.08-.2.32.32 0 0 0-.22-.1M14.33 39.37a.27.27 0 0 0-.21.09.31.31 0 0 0-.09.21.32.32 0 0 0 .1.22.31.31 0 0 0 .42 0 .3.3 0 0 0 .08-.21.27.27 0 0 0-.09-.21.29.29 0 0 0-.21-.09M15.54 38.17a.31.31 0 0 0-.22.09.3.3 0 0 0-.08.21.31.31 0 0 0 .09.22.32.32 0 0 0 .42 0 .29.29 0 0 0 .09-.21.29.29 0 0 0-.09-.21.31.31 0 0 0-.21-.09M16.74 37a.3.3 0 0 0-.22.09.31.31 0 0 0-.08.21.29.29 0 0 0 .09.21.31.31 0 0 0 .42 0 .29.29 0 0 0 .09-.21.32.32 0 0 0-.09-.22.3.3 0 0 0-.21-.08M17.94 35.77a.29.29 0 0 0-.22.09.27.27 0 0 0-.08.21.3.3 0 0 0 .51.21.29.29 0 0 0 .09-.21.28.28 0 0 0-.09-.22.3.3 0 0 0-.21-.08M19.14 34.56a.31.31 0 0 0-.3.3.31.31 0 0 0 .09.22.32.32 0 0 0 .43 0 .27.27 0 0 0 .08-.21.31.31 0 0 0-.3-.3M20.34 33.36a.31.31 0 0 0-.3.3.33.33 0 0 0 .1.22.31.31 0 0 0 .42 0 .31.31 0 0 0 .08-.21.29.29 0 0 0-.09-.21.27.27 0 0 0-.21-.09M21.55 32.16a.29.29 0 0 0-.22.09.32.32 0 0 0 0 .42.32.32 0 0 0 .43 0 .3.3 0 0 0-.21-.51M22.75 31a.29.29 0 0 0-.22.09.29.29 0 0 0-.08.21.27.27 0 0 0 .09.21.31.31 0 0 0 .42 0 .27.27 0 0 0 .09-.2A.31.31 0 0 0 23 31a.3.3 0 0 0-.21-.08M23.95 29.76a.27.27 0 0 0-.21.09.24.24 0 0 0-.09.21.29.29 0 0 0 .09.21.32.32 0 0 0 .42 0 .31.31 0 0 0 .09-.21.35.35 0 0 0-.08-.22.35.35 0 0 0-.22-.08M25.15 28.55a.31.31 0 0 0-.3.3.3.3 0 0 0 .1.22.31.31 0 0 0 .42 0 .3.3 0 0 0 .08-.21.32.32 0 0 0-.08-.21.31.31 0 0 0-.22-.09M26.36 27.35a.28.28 0 0 0-.22.09.31.31 0 0 0-.09.21.33.33 0 0 0 .1.22.31.31 0 0 0 .42 0 .3.3 0 0 0 .08-.21.3.3 0 0 0-.08-.21.3.3 0 0 0-.21-.09M27.56 26.15a.31.31 0 0 0-.21.08.31.31 0 0 0-.09.22.27.27 0 0 0 .09.21.32.32 0 0 0 .42 0 .31.31 0 0 0 .09-.21.32.32 0 0 0-.09-.21.29.29 0 0 0-.21-.09M28.76 24.95a.32.32 0 0 0-.21.08.31.31 0 0 0-.09.22.27.27 0 0 0 .09.21.31.31 0 0 0 .42 0A.29.29 0 0 0 29 25a.3.3 0 0 0-.21-.09M30 23.75a.3.3 0 0 0-.21.08.28.28 0 0 0-.09.22.29.29 0 0 0 .09.21.32.32 0 0 0 .43 0 .34.34 0 0 0 .08-.21.31.31 0 0 0-.09-.22.3.3 0 0 0-.21-.08M31.16 22.54a.31.31 0 0 0-.3.3.34.34 0 0 0 .09.22.32.32 0 0 0 .43 0 .3.3 0 0 0 .08-.21.32.32 0 0 0-.08-.21.31.31 0 0 0-.22-.09M32.37 21.34a.31.31 0 0 0-.22.09.3.3 0 0 0-.08.21.3.3 0 0 0 .6 0 .28.28 0 0 0-.1-.21.26.26 0 0 0-.2-.09M33.57 20.14a.29.29 0 0 0-.3.3.29.29 0 0 0 .09.21.31.31 0 0 0 .42 0 .35.35 0 0 0 .09-.22.33.33 0 0 0-.08-.21.35.35 0 0 0-.22-.09M34.77 18.94a.3.3 0 0 0-.21.08.3.3 0 0 0 0 .43.31.31 0 0 0 .42 0 .27.27 0 0 0 .09-.2A.29.29 0 0 0 35 19a.32.32 0 0 0-.21-.08M36 17.73a.34.34 0 0 0-.21.09.29.29 0 0 0-.09.21.29.29 0 0 0 .09.22.31.31 0 0 0 .42 0 .29.29 0 0 0 .09-.22.29.29 0 0 0-.09-.21.32.32 0 0 0-.21-.09M37.17 16.53a.31.31 0 0 0-.3.3.27.27 0 0 0 .13.17.31.31 0 0 0 .43 0 .31.31 0 0 0 .08-.21.32.32 0 0 0-.08-.21.31.31 0 0 0-.22-.09M38.38 15.33a.3.3 0 0 0-.22.09.31.31 0 0 0-.08.21.27.27 0 0 0 .09.21.31.31 0 0 0 .42 0 .29.29 0 0 0 0-.42.29.29 0 0 0-.21-.09M39.58 14.13a.31.31 0 0 0-.22.09.29.29 0 0 0-.08.21.27.27 0 0 0 .09.21.31.31 0 0 0 .42 0 .3.3 0 0 0 .09-.21.31.31 0 0 0-.3-.3M40.78 12.93a.27.27 0 0 0-.21.09.25.25 0 0 0-.09.2.28.28 0 0 0 .09.22.31.31 0 0 0 .42 0 .25.25 0 0 0 .09-.21A.29.29 0 0 0 41 13a.3.3 0 0 0-.21-.08M42 11.72a.31.31 0 0 0-.21.09.28.28 0 0 0-.09.21.33.33 0 0 0 .09.22.32.32 0 0 0 .42 0 .3.3 0 0 0 .09-.22.34.34 0 0 0-.08-.21.36.36 0 0 0-.22-.09M43.18 10.52a.3.3 0 0 0-.21.09.31.31 0 0 0-.09.21.33.33 0 0 0 .12.18.3.3 0 0 0 .5-.22.28.28 0 0 0-.09-.21.27.27 0 0 0-.21-.09M44.39 9.32a.29.29 0 0 0-.22.09.29.29 0 0 0 0 .42.3.3 0 1 0 .43-.42.29.29 0 0 0-.21-.09M45.59 8.12a.32.32 0 0 0-.21.08.31.31 0 0 0-.09.22.27.27 0 0 0 .09.21.31.31 0 0 0 .42 0 .29.29 0 0 0 0-.42.29.29 0 0 0-.21-.09M46.79 6.92a.32.32 0 0 0-.21.08.3.3 0 0 0 0 .43.31.31 0 0 0 .42 0 .29.29 0 0 0 .09-.21A.31.31 0 0 0 47 7a.32.32 0 0 0-.21-.08M48 5.71a.29.29 0 0 0-.21.09.3.3 0 0 0-.09.21.27.27 0 0 0 .09.21.3.3 0 0 0 .43 0 .31.31 0 0 0 .07-.22.33.33 0 0 0-.08-.21.36.36 0 0 0-.21-.08M49.19 4.51a.29.29 0 0 0-.19.09.31.31 0 0 0-.09.21A.32.32 0 0 0 49 5a.31.31 0 0 0 .43 0 .3.3 0 0 0 .08-.21.29.29 0 0 0-.08-.21.31.31 0 0 0-.22-.09M50.4 3.31a.3.3 0 0 0-.31.3.28.28 0 0 0 .1.21.29.29 0 0 0 .42 0 .27.27 0 0 0 .09-.2.34.34 0 0 0-.09-.21.3.3 0 0 0-.21-.09M51.6 2.11a.3.3 0 0 0-.21.08.3.3 0 0 0-.09.21.31.31 0 0 0 .09.22.3.3 0 0 0 .51-.22.26.26 0 0 0-.09-.2.28.28 0 0 0-.21-.09M52.8.9a.31.31 0 0 0-.3.31.28.28 0 0 0 .09.21.31.31 0 0 0 .42 0 .29.29 0 0 0 .09-.21A.3.3 0 0 0 53 1a.32.32 0 0 0-.2-.1M7.11 52.59a.31.31 0 0 0-.3.3.3.3 0 0 0 .52.21.31.31 0 0 0 .08-.21.28.28 0 0 0-.09-.21.31.31 0 0 0-.21-.09M8.31 51.39a.27.27 0 0 0-.21.09.29.29 0 0 0-.09.21.36.36 0 0 0 .09.22.32.32 0 0 0 .43 0 .3.3 0 0 0 .08-.21.32.32 0 0 0-.08-.21.29.29 0 0 0-.22-.09M9.52 50.19a.31.31 0 0 0-.22.09.31.31 0 0 0-.09.21.33.33 0 0 0 .1.22.32.32 0 0 0 .42 0 .32.32 0 0 0 .09-.21.33.33 0 0 0-.09-.21.32.32 0 0 0-.21-.09M10.72 49a.29.29 0 0 0-.22.09.3.3 0 0 0-.08.21.27.27 0 0 0 .09.21.31.31 0 0 0 .42 0 .3.3 0 0 0-.21-.51M11.92 47.79a.32.32 0 0 0-.21.08.32.32 0 0 0-.09.22.3.3 0 0 0 .09.21.3.3 0 0 0 .42 0 .27.27 0 0 0 .09-.2.3.3 0 0 0-.09-.22.32.32 0 0 0-.21-.08M13.12 46.58a.29.29 0 0 0-.21.09.3.3 0 0 0-.09.21.3.3 0 0 0 .52.21.3.3 0 0 0 0-.42.29.29 0 0 0-.21-.09M14.32 45.38a.31.31 0 0 0-.3.3.32.32 0 0 0 .1.22.31.31 0 0 0 .42 0 .3.3 0 0 0 .08-.21.33.33 0 0 0-.08-.21.33.33 0 0 0-.22-.09M15.53 44.18a.29.29 0 0 0-.22.09.31.31 0 0 0-.09.21.34.34 0 0 0 .09.21.32.32 0 0 0 .43 0 .29.29 0 0 0 .09-.21.3.3 0 0 0-.09-.21.28.28 0 0 0-.21-.09M16.73 43a.29.29 0 0 0-.22.09.31.31 0 0 0-.08.21.28.28 0 0 0 .09.21.31.31 0 0 0 .42 0 .3.3 0 0 0 .09-.21.32.32 0 0 0-.08-.21.33.33 0 0 0-.22-.09M17.93 41.78a.3.3 0 0 0-.21.08.28.28 0 0 0-.09.21.28.28 0 0 0 .09.22.31.31 0 0 0 .42 0 .26.26 0 0 0 .09-.21.3.3 0 0 0-.09-.21.32.32 0 0 0-.21-.08M19.13 40.57a.31.31 0 0 0-.21.09.27.27 0 0 0-.09.21.31.31 0 0 0 .09.22.3.3 0 0 0 .42 0 .27.27 0 0 0 .09-.21.29.29 0 0 0-.09-.21.31.31 0 0 0-.21-.09M20.33 39.37a.3.3 0 0 0-.21.09.29.29 0 0 0-.09.21.36.36 0 0 0 .09.22.32.32 0 0 0 .43 0 .3.3 0 0 0 .08-.21.31.31 0 0 0-.3-.3M21.54 38.17a.31.31 0 0 0-.22.09.3.3 0 0 0-.08.21.3.3 0 0 0 .51.21.32.32 0 0 0 .09-.21.29.29 0 0 0-.09-.21.31.31 0 0 0-.21-.09M22.74 37a.31.31 0 0 0-.21.08.31.31 0 0 0-.09.22.27.27 0 0 0 .09.21.3.3 0 0 0 .42 0 .29.29 0 0 0 .09-.21.29.29 0 0 0-.09-.21.29.29 0 0 0-.21-.09M23.94 35.77a.27.27 0 0 0-.21.09.24.24 0 0 0-.09.21.29.29 0 0 0 .09.21.3.3 0 0 0 .51-.21.29.29 0 0 0-.09-.22.3.3 0 0 0-.21-.08M25.14 34.56a.31.31 0 0 0-.3.3.27.27 0 0 0 .09.21.3.3 0 0 0 .51-.21.31.31 0 0 0-.09-.21.27.27 0 0 0-.21-.09M26.34 33.36a.27.27 0 0 0-.21.09.31.31 0 0 0-.09.21.27.27 0 0 0 .09.21.3.3 0 0 0 .42 0 .33.33 0 0 0 .09-.22.27.27 0 0 0-.09-.21.26.26 0 0 0-.21-.09M27.55 32.16a.29.29 0 0 0-.22.09.3.3 0 0 0-.08.21.32.32 0 0 0 .08.21.31.31 0 0 0 .43 0 .3.3 0 0 0-.21-.51M28.75 31a.3.3 0 0 0-.21.08.31.31 0 0 0-.09.22.27.27 0 0 0 .09.21.32.32 0 0 0 .42 0 .3.3 0 0 0 .09-.21.32.32 0 0 0-.05-.3.35.35 0 0 0-.22-.09M29.95 29.76a.27.27 0 0 0-.21.09.25.25 0 0 0-.09.2.3.3 0 0 0 .09.22.31.31 0 0 0 .42 0 .33.33 0 0 0 .09-.22.29.29 0 0 0-.3-.29M31.15 28.55a.31.31 0 0 0-.21.09.29.29 0 0 0-.09.21.3.3 0 0 0 .52.21.32.32 0 0 0 .08-.21.34.34 0 0 0-.08-.21.33.33 0 0 0-.22-.09M32.36 27.35a.31.31 0 0 0-.31.3.32.32 0 0 0 .09.21.31.31 0 0 0 .43 0 .3.3 0 0 0 .08-.21.3.3 0 0 0-.08-.21.3.3 0 0 0-.21-.09M33.56 26.15a.31.31 0 0 0-.22.09.31.31 0 0 0-.08.21.27.27 0 0 0 .09.21.32.32 0 0 0 .42 0 .31.31 0 0 0 .09-.21.31.31 0 0 0-.3-.3M34.76 24.95a.27.27 0 0 0-.21.09.27.27 0 0 0-.09.21.29.29 0 0 0 .09.21.3.3 0 0 0 .51-.21A.29.29 0 0 0 35 25a.27.27 0 0 0-.21-.09M36 23.74a.29.29 0 0 0-.21.09.28.28 0 0 0-.09.21.27.27 0 0 0 .09.22.32.32 0 0 0 .42 0 .31.31 0 0 0 .09-.22.3.3 0 0 0-.08-.2.35.35 0 0 0-.22-.1M37.16 22.54a.29.29 0 0 0-.21.09.31.31 0 0 0-.09.21.36.36 0 0 0 .09.22.32.32 0 0 0 .42 0 .31.31 0 0 0 .09-.22.32.32 0 0 0-.08-.21.31.31 0 0 0-.22-.09M38.37 21.34a.28.28 0 0 0-.22.09.32.32 0 0 0-.08.21.31.31 0 0 0 .08.21.31.31 0 0 0 .52-.21.33.33 0 0 0-.09-.21.27.27 0 0 0-.21-.09M39.57 20.14a.27.27 0 0 0-.21.09.28.28 0 0 0-.09.21.27.27 0 0 0 .09.21.31.31 0 0 0 .42 0 .3.3 0 0 0 .09-.21.31.31 0 0 0-.3-.3M40.77 18.94a.3.3 0 0 0-.21.08.29.29 0 0 0-.09.21.3.3 0 0 0 .09.22.32.32 0 0 0 .42 0 .31.31 0 0 0 .09-.22.29.29 0 0 0-.3-.29M42 17.73a.3.3 0 0 0-.21.09.3.3 0 0 0-.09.21.3.3 0 0 0 .51.22.33.33 0 0 0 .09-.22.34.34 0 0 0-.08-.21.33.33 0 0 0-.22-.09M43.17 16.53a.28.28 0 0 0-.21.1.27.27 0 0 0-.09.2.33.33 0 0 0 .13.17.32.32 0 0 0 .43 0 .29.29 0 0 0 .08-.21.27.27 0 0 0-.09-.21.29.29 0 0 0-.21-.09M44.38 15.33a.32.32 0 0 0-.21.08.34.34 0 0 0-.1.22.32.32 0 0 0 .09.21.32.32 0 0 0 .43 0 .31.31 0 0 0 .09-.21.29.29 0 0 0-.09-.21.31.31 0 0 0-.21-.09M45.58 14.13a.29.29 0 0 0-.3.3.29.29 0 0 0 .09.21.31.31 0 0 0 .43 0 .29.29 0 0 0 0-.41.29.29 0 0 0-.21-.09M46.78 12.93a.28.28 0 0 0-.21.08.33.33 0 0 0-.09.22.3.3 0 0 0 .51.21.31.31 0 0 0 .09-.21A.32.32 0 0 0 47 13a.33.33 0 0 0-.22-.09M48 11.72a.29.29 0 0 0-.21.09.29.29 0 0 0-.09.21.27.27 0 0 0 .09.21.3.3 0 0 0 .42 0 .3.3 0 0 0 0-.43.31.31 0 0 0-.21-.09M49.18 10.52a.34.34 0 0 0-.21.08.32.32 0 0 0-.09.22.27.27 0 0 0 .12.18.3.3 0 0 0 .43 0 .31.31 0 0 0 .08-.21.32.32 0 0 0-.08-.21.32.32 0 0 0-.22-.09M50.39 9.32a.33.33 0 0 0-.21.08.3.3 0 0 0-.1.22.29.29 0 0 0 .09.21.3.3 0 0 0 .43 0 .29.29 0 0 0 0-.42.33.33 0 0 0-.21-.09M51.59 8.12a.27.27 0 0 0-.21.09.26.26 0 0 0-.09.21.27.27 0 0 0 .09.21.32.32 0 0 0 .42 0 .31.31 0 0 0 .09-.21.36.36 0 0 0-.09-.22.3.3 0 0 0-.21-.08M52.79 6.92a.3.3 0 0 0-.21.08.32.32 0 0 0-.09.22.31.31 0 0 0 .09.21.31.31 0 0 0 .43 0 .3.3 0 0 0 .08-.2A.32.32 0 0 0 53 7a.31.31 0 0 0-.22-.09M54 5.71a.29.29 0 0 0-.21.09.29.29 0 0 0-.09.21.36.36 0 0 0 .09.22.32.32 0 0 0 .43 0 .29.29 0 0 0 .07-.23.28.28 0 0 0-.09-.21.31.31 0 0 0-.2-.08M55.19 4.51a.31.31 0 0 0-.3.3A.32.32 0 0 0 55 5a.31.31 0 0 0 .52-.21.33.33 0 0 0-.31-.3M56.4 3.31a.29.29 0 0 0-.22.09.32.32 0 0 0-.09.21.3.3 0 0 0 .52.21.3.3 0 0 0 .08-.21.31.31 0 0 0-.08-.21.27.27 0 0 0-.21-.09M57.6 2.11a.28.28 0 0 0-.21.08.33.33 0 0 0-.09.22.35.35 0 0 0 .08.21.32.32 0 0 0 .43 0 .29.29 0 0 0 .09-.21.31.31 0 0 0-.09-.22.32.32 0 0 0-.21-.08M58.8.9a.32.32 0 0 0-.21.09.31.31 0 0 0-.09.22.3.3 0 0 0 .09.21.31.31 0 0 0 .42 0 .3.3 0 0 0 .09-.21A.3.3 0 0 0 59 1a.32.32 0 0 0-.2-.1M13.11 52.59a.31.31 0 0 0-.21.09.29.29 0 0 0-.09.21.34.34 0 0 0 .09.22.31.31 0 0 0 .42 0 .27.27 0 0 0 .09-.21.34.34 0 0 0-.08-.21.36.36 0 0 0-.22-.09M14.31 51.39a.29.29 0 0 0-.21.09.28.28 0 0 0-.09.21.32.32 0 0 0 .1.22.31.31 0 0 0 .42 0 .3.3 0 0 0 .08-.21.33.33 0 0 0-.08-.21.31.31 0 0 0-.22-.09M15.52 50.19a.31.31 0 0 0-.22.09.31.31 0 0 0-.09.21.33.33 0 0 0 .1.22.31.31 0 0 0 .42 0 .32.32 0 0 0 .09-.21.33.33 0 0 0-.09-.21.3.3 0 0 0-.21-.09M16.72 49a.31.31 0 0 0-.22.09.3.3 0 0 0-.08.21.27.27 0 0 0 .09.21.3.3 0 0 0 .42 0 .31.31 0 0 0 .09-.21.36.36 0 0 0-.09-.22.33.33 0 0 0-.21-.08M17.92 47.79a.3.3 0 0 0-.21.51.31.31 0 0 0 .42 0 .27.27 0 0 0 .09-.2.31.31 0 0 0-.09-.22.32.32 0 0 0-.21-.08M19.12 46.58a.29.29 0 0 0-.21.09.3.3 0 0 0-.09.21.31.31 0 0 0 .09.22.31.31 0 0 0 .42 0 .25.25 0 0 0 .09-.21.29.29 0 0 0-.09-.21.28.28 0 0 0-.21-.09M20.32 45.38a.27.27 0 0 0-.21.09.32.32 0 0 0-.09.21.27.27 0 0 0 .09.21.29.29 0 0 0 .42 0 .27.27 0 0 0 .09-.21.31.31 0 0 0-.3-.3M21.53 44.18a.28.28 0 0 0-.22.09.3.3 0 0 0-.08.21.28.28 0 0 0 .09.21.3.3 0 0 0 .42 0 .31.31 0 0 0 .09-.21.28.28 0 0 0-.1-.21.24.24 0 0 0-.2-.09M22.73 43a.3.3 0 0 0-.21.08.31.31 0 0 0-.09.22.27.27 0 0 0 .09.21.3.3 0 0 0 .42 0 .27.27 0 0 0 .09-.2.31.31 0 0 0-.09-.22.32.32 0 0 0-.21-.08M23.93 41.77a.31.31 0 0 0-.21.09.3.3 0 0 0-.09.21.31.31 0 0 0 .09.22.3.3 0 0 0 .42 0 .28.28 0 0 0 .09-.21.28.28 0 0 0-.09-.21.33.33 0 0 0-.21-.09M25.13 40.57a.28.28 0 0 0-.21.1.24.24 0 0 0-.09.2.32.32 0 0 0 .09.22.32.32 0 0 0 .43 0 .3.3 0 0 0 0-.42.31.31 0 0 0-.21-.09M26.33 39.37a.28.28 0 0 0-.21.09.31.31 0 0 0-.09.21.3.3 0 0 0 .1.22.31.31 0 0 0 .42 0 .3.3 0 0 0 .08-.21.27.27 0 0 0-.09-.21.26.26 0 0 0-.21-.09M27.54 38.17a.31.31 0 0 0-.22.09.3.3 0 0 0-.08.21.31.31 0 0 0 .09.22.32.32 0 0 0 .42 0 .32.32 0 0 0 .09-.21.29.29 0 0 0-.09-.21.31.31 0 0 0-.21-.09M28.74 37a.31.31 0 0 0-.3.3.27.27 0 0 0 .09.21.31.31 0 0 0 .42 0 .3.3 0 0 0 .09-.21.32.32 0 0 0-.09-.22.32.32 0 0 0-.21-.08M29.94 35.76a.31.31 0 0 0-.21.09.28.28 0 0 0-.09.21.3.3 0 0 0 .09.22.31.31 0 0 0 .42 0 .31.31 0 0 0 .09-.22.3.3 0 0 0-.09-.21.31.31 0 0 0-.21-.09M31.14 34.56a.27.27 0 0 0-.21.09.29.29 0 0 0-.09.21.27.27 0 0 0 .09.21.3.3 0 0 0 .42 0 .31.31 0 0 0 .09-.22.29.29 0 0 0-.09-.21.27.27 0 0 0-.21-.09M32.34 33.36a.26.26 0 0 0-.2.09.26.26 0 0 0-.1.21.32.32 0 0 0 .09.21.31.31 0 0 0 .42 0 .33.33 0 0 0 .09-.22.34.34 0 0 0-.08-.21.31.31 0 0 0-.22-.09M33.55 32.16a.29.29 0 0 0-.22.09.32.32 0 0 0 0 .42.31.31 0 0 0 .42 0 .3.3 0 0 0 .1-.22.29.29 0 0 0-.09-.21.29.29 0 0 0-.21-.09M34.75 31a.29.29 0 0 0-.22.09.31.31 0 0 0-.08.21.29.29 0 0 0 .09.21.31.31 0 0 0 .42 0 .29.29 0 0 0 .09-.21.28.28 0 0 0-.05-.3.27.27 0 0 0-.21-.09M35.95 29.75a.29.29 0 0 0-.21.09.29.29 0 0 0-.09.21.32.32 0 0 0 .09.22.32.32 0 0 0 .43 0 .29.29 0 0 0 .08-.21.3.3 0 0 0-.09-.21.31.31 0 0 0-.21-.09M37.15 28.55a.31.31 0 0 0-.3.3.31.31 0 0 0 .09.22.3.3 0 0 0 .42 0 .27.27 0 0 0 .09-.21.29.29 0 0 0-.09-.21.31.31 0 0 0-.21-.09M38.36 27.35a.28.28 0 0 0-.22.09.31.31 0 0 0-.09.21.33.33 0 0 0 .1.22.31.31 0 0 0 .42 0 .31.31 0 0 0 0-.43.26.26 0 0 0-.2-.08M39.56 26.15a.33.33 0 0 0-.21.08.29.29 0 0 0-.09.22.32.32 0 0 0 .08.21.31.31 0 0 0 .43 0 .33.33 0 0 0 .09-.21.29.29 0 0 0-.09-.21.31.31 0 0 0-.21-.09M40.76 24.95a.31.31 0 0 0-.22.09.29.29 0 0 0-.08.21.27.27 0 0 0 .09.21.31.31 0 0 0 .42 0 .29.29 0 0 0 .09-.21A.29.29 0 0 0 41 25a.3.3 0 0 0-.21-.08M42 23.75a.32.32 0 0 0-.21.08.27.27 0 0 0-.09.21.28.28 0 0 0 .09.22.32.32 0 0 0 .42 0 .31.31 0 0 0 .09-.22.31.31 0 0 0-.09-.21.3.3 0 0 0-.21-.08M43.16 22.54a.29.29 0 0 0-.21.09.3.3 0 0 0 0 .43.32.32 0 0 0 .43 0 .3.3 0 0 0 .08-.21.32.32 0 0 0-.08-.21.31.31 0 0 0-.22-.09M44.36 21.34a.32.32 0 0 0-.2.08.3.3 0 0 0-.1.22.31.31 0 0 0 .52.21.32.32 0 0 0 .09-.21.29.29 0 0 0-.09-.21.31.31 0 0 0-.22-.09M45.57 20.14a.32.32 0 0 0-.21.08.31.31 0 0 0-.09.22.27.27 0 0 0 .09.21.31.31 0 0 0 .42 0 .28.28 0 0 0 .09-.21.31.31 0 0 0-.3-.3M46.77 18.93a.29.29 0 0 0-.21.09.3.3 0 0 0 .42.43.3.3 0 0 0 .09-.21A.27.27 0 0 0 47 19a.28.28 0 0 0-.21-.1M48 17.73a.3.3 0 0 0-.21.52.31.31 0 0 0 .42 0 .25.25 0 0 0 .09-.21.29.29 0 0 0-.09-.21.32.32 0 0 0-.21-.09M49.17 16.53a.31.31 0 0 0-.3.3.27.27 0 0 0 .13.17.3.3 0 0 0 .42 0 .27.27 0 0 0 .09-.21.32.32 0 0 0-.08-.21.31.31 0 0 0-.22-.09M50.38 15.33a.32.32 0 0 0-.21.08.29.29 0 0 0 0 .43.31.31 0 0 0 .43 0 .33.33 0 0 0 .09-.22.29.29 0 0 0-.09-.21.31.31 0 0 0-.21-.09M51.58 14.13a.32.32 0 0 0-.21.08.33.33 0 0 0-.09.22.29.29 0 0 0 .09.21.31.31 0 0 0 .43 0 .28.28 0 0 0 .08-.2.29.29 0 0 0-.09-.21.31.31 0 0 0-.21-.09M52.78 12.93a.28.28 0 0 0-.21.08.33.33 0 0 0-.09.22.35.35 0 0 0 .08.21.32.32 0 0 0 .43 0 .31.31 0 0 0 .09-.21A.32.32 0 0 0 53 13a.33.33 0 0 0-.22-.09M54 11.72a.31.31 0 0 0-.21.09.29.29 0 0 0-.09.21.3.3 0 0 0 .52.21.29.29 0 0 0 .08-.21.29.29 0 0 0-.09-.21.31.31 0 0 0-.21-.09M55.18 10.52a.28.28 0 0 0-.21.09.28.28 0 0 0-.09.21.32.32 0 0 0 .12.18.31.31 0 0 0 .43 0 .31.31 0 0 0 .08-.21.27.27 0 0 0-.09-.21.29.29 0 0 0-.21-.09M56.39 9.32a.33.33 0 0 0-.21.08.31.31 0 0 0-.09.22.3.3 0 0 0 .08.21.3.3 0 1 0 .43-.42.31.31 0 0 0-.21-.09M57.59 8.12a.32.32 0 0 0-.21.08.32.32 0 0 0-.09.22.34.34 0 0 0 .08.21.31.31 0 0 0 .43 0 .29.29 0 0 0 .09-.21.27.27 0 0 0-.09-.21.29.29 0 0 0-.21-.09M58.79 6.92a.28.28 0 0 0-.21.08.32.32 0 0 0-.09.22.31.31 0 0 0 .09.21.31.31 0 0 0 .43 0 .28.28 0 0 0 .08-.2A.31.31 0 0 0 59 7a.31.31 0 0 0-.21-.08M60 5.71a.29.29 0 0 0-.21.09.3.3 0 0 0-.09.21.27.27 0 0 0 .09.21.3.3 0 0 0 .43 0 .3.3 0 0 0 0-.42.31.31 0 0 0-.22-.09M61.19 4.51a.32.32 0 0 0-.2.08.3.3 0 1 0 .42.43.29.29 0 0 0 .08-.21.28.28 0 0 0-.09-.21.27.27 0 0 0-.21-.09M62.4 3.31a.3.3 0 0 0-.31.3.29.29 0 0 0 .09.21.31.31 0 0 0 .43 0 .28.28 0 0 0 .09-.21.29.29 0 0 0-.09-.21.3.3 0 0 0-.21-.09M63.6 2.11a.27.27 0 0 0-.21.09.27.27 0 0 0-.09.21.29.29 0 0 0 .09.21.31.31 0 0 0 .42 0 .29.29 0 0 0 .09-.21.27.27 0 0 0-.09-.21.28.28 0 0 0-.21-.09M64.8.91a.31.31 0 0 0-.21.08.33.33 0 0 0-.09.22.3.3 0 0 0 .09.21.31.31 0 0 0 .43 0 .3.3 0 0 0 .08-.2A.32.32 0 0 0 65 1a.31.31 0 0 0-.2-.09M19.11 52.59a.28.28 0 0 0-.21.1.24.24 0 0 0-.09.2.3.3 0 0 0 .09.22.3.3 0 0 0 .42 0 .28.28 0 0 0 .09-.21.27.27 0 0 0-.09-.21.31.31 0 0 0-.21-.09M20.31 51.39a.27.27 0 0 0-.21.09.28.28 0 0 0-.09.21.3.3 0 0 0 .51.21.27.27 0 0 0 .09-.21.28.28 0 0 0-.09-.21.26.26 0 0 0-.21-.09M21.52 50.19a.31.31 0 0 0-.22.09.29.29 0 0 0-.09.21.32.32 0 0 0 .09.21.32.32 0 0 0 .43 0 .31.31 0 0 0 .08-.21.29.29 0 0 0-.29-.3M22.72 49a.29.29 0 0 0-.22.09.3.3 0 0 0-.08.21.27.27 0 0 0 .09.21.31.31 0 0 0 .42 0 .29.29 0 0 0 0-.42.27.27 0 0 0-.21-.09M23.92 47.79a.32.32 0 0 0-.21.08.31.31 0 0 0-.09.22.27.27 0 0 0 .09.21.31.31 0 0 0 .42 0 .27.27 0 0 0 .09-.2.31.31 0 0 0-.09-.22.32.32 0 0 0-.21-.08M25.12 46.58a.32.32 0 0 0-.21.09.27.27 0 0 0-.09.21.3.3 0 0 0 .09.22.3.3 0 0 0 .51-.22.29.29 0 0 0-.09-.21.32.32 0 0 0-.21-.09M26.32 45.38a.31.31 0 0 0-.3.3.3.3 0 0 0 .1.22.3.3 0 0 0 .41 0 .27.27 0 0 0 .09-.21.29.29 0 0 0-.09-.21.27.27 0 0 0-.21-.09M27.53 44.18a.29.29 0 0 0-.22.09.3.3 0 0 0-.08.21.31.31 0 0 0 .09.22.32.32 0 0 0 .42 0 .31.31 0 0 0 .09-.21.28.28 0 0 0-.09-.21.3.3 0 0 0-.21-.09M28.73 43a.29.29 0 0 0-.22.09.31.31 0 0 0-.08.21.28.28 0 0 0 .09.21.31.31 0 0 0 .42 0 .3.3 0 0 0 .09-.21.29.29 0 0 0-.09-.21.27.27 0 0 0-.21-.09M29.93 41.78a.28.28 0 0 0-.21.08.28.28 0 0 0-.09.21.28.28 0 0 0 .09.22.32.32 0 0 0 .42 0 .31.31 0 0 0 .09-.22.3.3 0 0 0-.08-.2.29.29 0 0 0-.22-.09M31.13 40.57a.31.31 0 0 0-.3.3.32.32 0 0 0 .09.22.32.32 0 0 0 .43 0 .27.27 0 0 0 .08-.21.29.29 0 0 0-.09-.21.31.31 0 0 0-.21-.09M32.33 39.37a.27.27 0 0 0-.21.09.31.31 0 0 0-.09.21.3.3 0 0 0 .1.22.31.31 0 0 0 .51-.22.3.3 0 0 0-.1-.21.26.26 0 0 0-.21-.09M33.54 38.17a.31.31 0 0 0-.22.09.3.3 0 0 0-.08.21.31.31 0 0 0 .09.22.32.32 0 0 0 .42 0 .32.32 0 0 0 .09-.21.31.31 0 0 0-.09-.21.29.29 0 0 0-.21-.09M34.74 37a.31.31 0 0 0-.3.3.27.27 0 0 0 .09.21.31.31 0 0 0 .43 0 .28.28 0 0 0 .08-.2.28.28 0 0 0-.09-.21.29.29 0 0 0-.21-.09M35.94 35.76a.27.27 0 0 0-.21.09.3.3 0 0 0-.09.21.31.31 0 0 0 .09.22.3.3 0 0 0 .51-.22.26.26 0 0 0-.09-.2.28.28 0 0 0-.21-.1M37.14 34.56a.32.32 0 0 0-.21.08.35.35 0 0 0-.09.22.27.27 0 0 0 .09.21.31.31 0 0 0 .43 0 .3.3 0 0 0 .08-.21.34.34 0 0 0-.08-.21.33.33 0 0 0-.22-.09M38.34 33.36a.3.3 0 0 0-.21.09.31.31 0 0 0-.09.21.31.31 0 0 0 .52.21.31.31 0 0 0 .08-.21.32.32 0 0 0-.08-.21.31.31 0 0 0-.22-.09M39.55 32.16a.29.29 0 0 0-.22.09.32.32 0 0 0 0 .42.31.31 0 0 0 .43 0 .3.3 0 0 0-.21-.51M40.75 31a.29.29 0 0 0-.22.09.29.29 0 0 0-.08.21.27.27 0 0 0 .09.21.31.31 0 0 0 .42 0 .27.27 0 0 0 .09-.2.3.3 0 0 0-.1-.22.26.26 0 0 0-.2-.08M41.95 29.75a.29.29 0 0 0-.21.09.27.27 0 0 0-.09.21.32.32 0 0 0 .09.22.32.32 0 0 0 .43 0 .27.27 0 0 0 .08-.21.28.28 0 0 0-.09-.21.31.31 0 0 0-.21-.09M43.15 28.55a.31.31 0 0 0-.3.3.31.31 0 0 0 .09.22.3.3 0 0 0 .51-.22.29.29 0 0 0-.3-.3M44.36 27.35a.31.31 0 0 0-.31.3.32.32 0 0 0 .09.21.3.3 0 0 0 .51-.21.3.3 0 0 0-.08-.21.3.3 0 0 0-.21-.09M45.56 26.15a.3.3 0 0 0-.22.09.29.29 0 0 0-.08.21.27.27 0 0 0 .09.21.31.31 0 0 0 .42 0 .27.27 0 0 0 .09-.2.33.33 0 0 0-.1-.22.27.27 0 0 0-.2-.08M46.76 24.95a.27.27 0 0 0-.21.09.26.26 0 0 0-.09.21.27.27 0 0 0 .09.21.31.31 0 0 0 .42 0 .27.27 0 0 0 .09-.2A.31.31 0 0 0 47 25a.3.3 0 0 0-.21-.08M48 23.75a.32.32 0 0 0-.21.08.31.31 0 0 0-.09.22.3.3 0 0 0 .51.2.27.27 0 0 0 .09-.2.29.29 0 0 0-.3-.3M49.16 22.54a.31.31 0 0 0-.3.3.36.36 0 0 0 .09.22.31.31 0 0 0 .43 0 .3.3 0 0 0 .08-.21.34.34 0 0 0-.08-.21.33.33 0 0 0-.22-.09M50.36 21.34a.29.29 0 0 0-.21.09.31.31 0 0 0-.09.21.31.31 0 0 0 .52.21.32.32 0 0 0 .09-.21.31.31 0 0 0-.31-.3M51.57 20.14a.29.29 0 0 0-.3.3.27.27 0 0 0 .09.21.31.31 0 0 0 .42 0 .3.3 0 0 0 .09-.21.27.27 0 0 0-.09-.21.29.29 0 0 0-.21-.09M52.77 18.93a.29.29 0 0 0-.21.09.31.31 0 0 0-.09.22.3.3 0 0 0 .08.2.31.31 0 0 0 .43 0 .32.32 0 0 0 .09-.21A.32.32 0 0 0 53 19a.31.31 0 0 0-.22-.1M54 17.73a.29.29 0 0 0-.21.09.3.3 0 0 0-.09.21.3.3 0 0 0 .51.22.33.33 0 0 0 .09-.22.34.34 0 0 0-.08-.21.33.33 0 0 0-.22-.09M55.17 16.53a.28.28 0 0 0-.21.09.29.29 0 0 0 .04.38.31.31 0 0 0 .43 0 .31.31 0 0 0 .08-.21.27.27 0 0 0-.09-.21.27.27 0 0 0-.21-.09M56.38 15.33a.3.3 0 0 0-.22.09.29.29 0 0 0 0 .42.31.31 0 0 0 .43 0 .3.3 0 0 0-.21-.51M57.58 14.13a.32.32 0 0 0-.21.08.33.33 0 0 0-.09.22.35.35 0 0 0 .08.21.31.31 0 0 0 .43 0 .3.3 0 0 0 .09-.21.29.29 0 0 0-.09-.21.31.31 0 0 0-.21-.09M58.78 12.93a.28.28 0 0 0-.21.08.33.33 0 0 0-.09.22.31.31 0 0 0 .09.21.3.3 0 0 0 .42 0 .24.24 0 0 0 .09-.2A.31.31 0 0 0 59 13a.3.3 0 0 0-.21-.08M60 11.72a.27.27 0 0 0-.21.09.31.31 0 0 0-.09.21.27.27 0 0 0 .09.21.3.3 0 0 0 .43 0 .29.29 0 0 0 .08-.21.34.34 0 0 0-.08-.21.31.31 0 0 0-.22-.09M61.18 10.52a.28.28 0 0 0-.21.09.28.28 0 0 0-.09.21.27.27 0 0 0 .12.18.3.3 0 0 0 .43 0 .31.31 0 0 0 .08-.21.32.32 0 0 0-.08-.21.31.31 0 0 0-.22-.09M62.39 9.32a.31.31 0 1 0 .21.09.29.29 0 0 0-.21-.09M63.59 8.12a.32.32 0 0 0-.21.08.32.32 0 0 0-.09.22.34.34 0 0 0 .08.21.31.31 0 0 0 .43 0 .29.29 0 0 0 0-.42.3.3 0 0 0-.21-.09M64.79 6.92a.31.31 0 0 0-.22.09.29.29 0 0 0-.08.21.28.28 0 0 0 .09.21A.3.3 0 0 0 65 7a.32.32 0 0 0-.21-.08M66 5.71a.29.29 0 0 0-.21.09.29.29 0 0 0-.09.21.3.3 0 0 0 .51.22.29.29 0 0 0 .08-.23.28.28 0 0 0-.09-.21.29.29 0 0 0-.2-.08M67.19 4.51a.27.27 0 0 0-.2.09.27.27 0 0 0-.1.21A.32.32 0 0 0 67 5a.31.31 0 0 0 .43 0 .3.3 0 0 0 .08-.21.33.33 0 0 0-.08-.21.32.32 0 0 0-.22-.09M68.4 3.31a.29.29 0 0 0-.3.3.27.27 0 0 0 .09.21.31.31 0 0 0 .42 0 .33.33 0 0 0 .09-.21.29.29 0 0 0-.09-.21.32.32 0 0 0-.21-.09M69.6 2.11a.3.3 0 0 0-.21.08.31.31 0 0 0-.09.21.32.32 0 0 0 .09.22.31.31 0 0 0 .42 0 .27.27 0 0 0 .09-.21.3.3 0 0 0-.09-.21.32.32 0 0 0-.21-.08M70.8.9a.32.32 0 0 0-.21.09.32.32 0 0 0-.09.22.3.3 0 0 0 .09.21.31.31 0 0 0 .43 0 .3.3 0 0 0 .08-.2A.32.32 0 0 0 71 1a.32.32 0 0 0-.2-.1M72-.3a.29.29 0 0 0-.22.1.26.26 0 0 0-.08.2.28.28 0 0 0 .09.22.31.31 0 0 0 .42 0 .31.31 0 0 0 .05-.22.33.33 0 0 0-.09-.21A.29.29 0 0 0 72-.3M25.11 52.59a.28.28 0 0 0-.21.1.25.25 0 0 0-.09.2.31.31 0 0 0 .09.22.33.33 0 0 0 .43 0 .28.28 0 0 0 .08-.21.27.27 0 0 0-.09-.21.31.31 0 0 0-.21-.09M26.31 51.39a.27.27 0 0 0-.21.09.28.28 0 0 0-.09.21.27.27 0 0 0 .09.21.29.29 0 0 0 .42 0 .27.27 0 0 0 .09-.21.28.28 0 0 0-.09-.21.26.26 0 0 0-.21-.09M27.52 50.19a.28.28 0 0 0-.22.09.31.31 0 0 0-.09.21.32.32 0 0 0 .09.21.31.31 0 0 0 .42 0 .3.3 0 0 0 .1-.22.31.31 0 0 0-.09-.21.28.28 0 0 0-.21-.09M28.72 49a.31.31 0 0 0-.22.09.3.3 0 0 0-.08.21.27.27 0 0 0 .09.21.31.31 0 0 0 .42 0 .27.27 0 0 0 .09-.2.27.27 0 0 0-.09-.21.29.29 0 0 0-.21-.09M29.92 47.79a.3.3 0 0 0-.21.08.31.31 0 0 0-.09.22.27.27 0 0 0 .09.21.32.32 0 0 0 .42 0 .31.31 0 0 0 .09-.21.29.29 0 0 0-.3-.3M31.12 46.58a.28.28 0 0 0-.21.1.24.24 0 0 0-.09.2.34.34 0 0 0 .09.22.32.32 0 0 0 .43 0 .3.3 0 0 0 0-.42.32.32 0 0 0-.21-.09M32.32 45.38a.31.31 0 0 0-.21.09.29.29 0 0 0-.09.21.36.36 0 0 0 .09.22.32.32 0 0 0 .42 0 .27.27 0 0 0 .09-.21.34.34 0 0 0-.08-.21.33.33 0 0 0-.22-.09M33.53 44.18a.32.32 0 0 0-.21.08.33.33 0 0 0-.09.22.31.31 0 0 0 .08.21.32.32 0 0 0 .43 0 .31.31 0 0 0 .09-.21.28.28 0 0 0-.09-.21.32.32 0 0 0-.21-.09M34.73 43a.29.29 0 0 0-.3.3.27.27 0 0 0 .09.21.32.32 0 0 0 .42 0 .29.29 0 0 0 0-.43.26.26 0 0 0-.2-.08M35.93 41.77a.32.32 0 0 0-.22.1.26.26 0 0 0-.08.2.28.28 0 0 0 .09.22.32.32 0 0 0 .42 0 .31.31 0 0 0 .09-.22.26.26 0 0 0-.09-.2.29.29 0 0 0-.21-.1M37.13 40.57a.31.31 0 0 0-.21.09.29.29 0 0 0-.09.21.31.31 0 0 0 .09.22.32.32 0 0 0 .42 0 .33.33 0 0 0 .09-.22.3.3 0 0 0-.08-.2.32.32 0 0 0-.22-.1M38.33 39.37a.28.28 0 0 0-.21.09.33.33 0 0 0-.09.21.31.31 0 0 0 .51.22.34.34 0 0 0 .1-.22.33.33 0 0 0-.09-.21.31.31 0 0 0-.22-.09M39.54 38.17a.3.3 0 0 0-.22.09.32.32 0 0 0-.08.21.33.33 0 0 0 .08.21.31.31 0 0 0 .43 0 .29.29 0 0 0 .09-.21.29.29 0 0 0-.09-.21.29.29 0 0 0-.21-.09M40.74 37a.32.32 0 0 0-.21.08.31.31 0 0 0-.09.22.29.29 0 0 0 .09.21.3.3 0 0 0 .42 0 .31.31 0 0 0 .09-.21.29.29 0 0 0-.3-.3M41.94 35.76a.29.29 0 0 0-.21.09.3.3 0 0 0-.09.21.31.31 0 0 0 .08.21.31.31 0 0 0 .43 0 .31.31 0 0 0 .09-.22.26.26 0 0 0-.09-.2.26.26 0 0 0-.21-.1M43.14 34.56a.28.28 0 0 0-.21.1.24.24 0 0 0-.09.2.33.33 0 0 0 .09.22.32.32 0 0 0 .43 0 .3.3 0 0 0 .08-.21.28.28 0 0 0-.09-.21.32.32 0 0 0-.21-.09M44.34 33.36a.31.31 0 0 0-.3.3.27.27 0 0 0 .09.21.3.3 0 0 0 .42 0 .33.33 0 0 0 .09-.22.34.34 0 0 0-.08-.21.29.29 0 0 0-.22-.09M45.55 32.16a.31.31 0 0 0-.22.09.29.29 0 0 0 0 .42.31.31 0 0 0 .43 0 .33.33 0 0 0 .09-.21.29.29 0 0 0-.09-.21.29.29 0 0 0-.21-.09M46.75 31a.32.32 0 0 0-.21.08.33.33 0 0 0-.09.22.34.34 0 0 0 .08.21.32.32 0 0 0 .43 0 .3.3 0 0 0 .09-.21.29.29 0 0 0-.05-.3.3.3 0 0 0-.21-.09M47.95 29.76a.31.31 0 0 0-.21.08.28.28 0 0 0-.09.22.28.28 0 0 0 .09.21.32.32 0 0 0 .43 0 .28.28 0 0 0 .08-.2.29.29 0 0 0-.09-.22.3.3 0 0 0-.21-.08M49.15 28.55a.31.31 0 0 0-.3.3.27.27 0 0 0 .09.21.29.29 0 0 0 .51-.21.32.32 0 0 0-.08-.21.31.31 0 0 0-.22-.09M50.35 27.35a.31.31 0 0 0-.3.3.32.32 0 0 0 .09.21.32.32 0 0 0 .43 0 .3.3 0 0 0 .08-.21.31.31 0 0 0-.08-.21.32.32 0 0 0-.22-.09M51.56 26.15a.31.31 0 0 0-.22.09.31.31 0 0 0-.08.21.3.3 0 0 0 .51.21.3.3 0 0 0 .09-.21.28.28 0 0 0-.09-.21.29.29 0 0 0-.21-.09M52.76 24.95a.32.32 0 0 0-.21.08.31.31 0 0 0-.09.22.29.29 0 0 0 .09.21.31.31 0 0 0 .42 0 .29.29 0 0 0 .09-.21A.31.31 0 0 0 53 25a.32.32 0 0 0-.21-.08M54 23.74a.29.29 0 0 0-.21.09.32.32 0 0 0-.09.21.3.3 0 0 0 .09.22.31.31 0 0 0 .42 0 .28.28 0 0 0 .09-.22.29.29 0 0 0-.09-.21.34.34 0 0 0-.21-.09M55.16 22.54a.29.29 0 0 0-.21.09.33.33 0 0 0-.09.21.27.27 0 0 0 .09.21.3.3 0 0 0 .42 0 .31.31 0 0 0 .09-.22.29.29 0 0 0-.09-.21.32.32 0 0 0-.21-.09M56.36 21.34a.29.29 0 0 0-.21.09.31.31 0 0 0-.09.21.31.31 0 0 0 .52.21.3.3 0 0 0-.22-.51M57.57 20.14a.29.29 0 0 0-.3.3.32.32 0 0 0 .08.21.31.31 0 0 0 .43 0 .26.26 0 0 0 .09-.2.32.32 0 0 0-.1-.22.26.26 0 0 0-.2-.08M58.77 18.94a.3.3 0 0 0-.21.08.3.3 0 0 0 0 .43.3.3 0 0 0 .42 0 .25.25 0 0 0 .09-.2A.29.29 0 0 0 59 19a.32.32 0 0 0-.21-.08M60 17.74a.31.31 0 0 0-.21.08.3.3 0 0 0 0 .43.3.3 0 1 0 .21-.51M61.17 16.53a.31.31 0 0 0-.3.3.27.27 0 0 0 .13.17.31.31 0 0 0 .43 0 .31.31 0 0 0 .08-.21.32.32 0 0 0-.08-.21.31.31 0 0 0-.22-.09M62.38 15.33a.32.32 0 0 0-.21.08.29.29 0 0 0 0 .43.3.3 0 0 0 .43 0 .29.29 0 0 0 0-.42.31.31 0 0 0-.21-.09M63.58 14.13a.29.29 0 0 0-.3.3.27.27 0 0 0 .09.21.31.31 0 0 0 .42 0 .27.27 0 0 0 .09-.21.28.28 0 0 0-.09-.21.29.29 0 0 0-.21-.09M64.78 12.93a.29.29 0 0 0-.3.29.35.35 0 0 0 .08.22.31.31 0 0 0 .52-.22.29.29 0 0 0-.3-.29M66 11.72a.31.31 0 0 0-.21.09.29.29 0 0 0-.09.21.29.29 0 0 0 .09.21.3.3 0 0 0 .42 0 .33.33 0 0 0 .09-.22.29.29 0 0 0-.09-.21.31.31 0 0 0-.21-.09M67.18 10.52a.28.28 0 0 0-.21.09.31.31 0 0 0-.09.21.27.27 0 0 0 .12.18.31.31 0 0 0 .43 0 .31.31 0 0 0 .08-.21.3.3 0 0 0-.08-.21.31.31 0 0 0-.22-.09M68.39 9.32a.33.33 0 0 0-.21.08.32.32 0 0 0-.1.22.3.3 0 0 0 .09.21.3.3 0 0 0 .43 0 .29.29 0 0 0 0-.42.31.31 0 0 0-.21-.09M69.59 8.12a.31.31 0 0 0-.22.09.3.3 0 0 0-.08.21.32.32 0 0 0 .08.21.32.32 0 0 0 .43 0 .29.29 0 0 0 .09-.21.27.27 0 0 0-.09-.21.29.29 0 0 0-.21-.09M70.79 6.92a.3.3 0 0 0-.21.08.31.31 0 0 0-.09.22.29.29 0 0 0 .09.21.32.32 0 0 0 .42 0 .29.29 0 0 0 .09-.21A.31.31 0 0 0 71 7a.31.31 0 0 0-.21-.08M72 5.71a.31.31 0 0 0-.3.3.3.3 0 1 0 .6 0 .35.35 0 0 0-.08-.21.33.33 0 0 0-.22-.09M31.11 52.59a.28.28 0 0 0-.21.1.25.25 0 0 0-.09.2.3.3 0 0 0 .09.22.31.31 0 0 0 .42 0 .33.33 0 0 0 .09-.22.31.31 0 0 0-.08-.2.32.32 0 0 0-.22-.1M32.31 51.39a.27.27 0 0 0-.21.09.29.29 0 0 0-.09.21.27.27 0 0 0 .09.21.31.31 0 0 0 .42 0 .33.33 0 0 0 .09-.22.34.34 0 0 0-.08-.21.29.29 0 0 0-.22-.09M33.51 50.19a.28.28 0 0 0-.21.09.31.31 0 0 0-.09.21.29.29 0 0 0 .1.21.31.31 0 0 0 .42 0 .32.32 0 0 0 .09-.21.31.31 0 0 0-.09-.21.31.31 0 0 0-.22-.09M34.72 49a.29.29 0 0 0-.22.09.28.28 0 0 0-.08.21.27.27 0 0 0 .09.21.29.29 0 0 0 .42 0 .27.27 0 0 0 .09-.2.33.33 0 0 0-.1-.22.27.27 0 0 0-.2-.08M35.92 47.79a.3.3 0 0 0-.21.08.29.29 0 0 0-.09.22.27.27 0 0 0 .09.21.31.31 0 0 0 .42 0 .25.25 0 0 0 .09-.2.31.31 0 0 0-.09-.22.32.32 0 0 0-.21-.08M37.12 46.58a.32.32 0 0 0-.21.09.29.29 0 0 0-.09.21.27.27 0 0 0 .09.21.3.3 0 0 0 .51-.21.29.29 0 0 0-.09-.21.32.32 0 0 0-.21-.09M38.32 45.38a.27.27 0 0 0-.21.09.32.32 0 0 0-.09.21.33.33 0 0 0 .09.22.32.32 0 0 0 .43 0 .28.28 0 0 0 .08-.21.27.27 0 0 0-.09-.21.26.26 0 0 0-.21-.09M39.53 44.18a.32.32 0 0 0-.21.08.32.32 0 0 0-.1.22.32.32 0 0 0 .09.21.32.32 0 0 0 .43 0 .29.29 0 0 0 .09-.21.28.28 0 0 0-.09-.21.32.32 0 0 0-.21-.09M40.73 43a.3.3 0 0 0-.21.08.32.32 0 0 0-.09.22.29.29 0 0 0 .09.21.31.31 0 0 0 .42 0 .28.28 0 0 0 .09-.21.27.27 0 0 0-.09-.21.29.29 0 0 0-.21-.09M41.93 41.78a.3.3 0 0 0-.21.08.28.28 0 0 0-.09.21.28.28 0 0 0 .09.22.32.32 0 0 0 .42 0 .31.31 0 0 0 .09-.22.3.3 0 0 0-.09-.21.3.3 0 0 0-.21-.08M43.13 40.57a.33.33 0 0 0-.21.09.27.27 0 0 0-.09.21.28.28 0 0 0 .09.22.32.32 0 0 0 .42 0 .31.31 0 0 0 .09-.22.29.29 0 0 0-.09-.21.31.31 0 0 0-.21-.09M44.33 39.37a.31.31 0 0 0-.21.09.31.31 0 0 0-.09.21.3.3 0 0 0 .1.22.31.31 0 0 0 .42 0 .29.29 0 0 0 .08-.21.27.27 0 0 0-.09-.21.29.29 0 0 0-.21-.09M45.54 38.17a.32.32 0 0 0-.21.08.31.31 0 0 0 0 .43.3.3 0 0 0 .43 0 .29.29 0 0 0 .09-.21.29.29 0 0 0-.09-.21.31.31 0 0 0-.21-.09M46.74 37a.31.31 0 0 0-.21.08.33.33 0 0 0-.09.22.34.34 0 0 0 .08.21.31.31 0 0 0 .43 0 .29.29 0 0 0 .09-.21.28.28 0 0 0-.09-.21.27.27 0 0 0-.21-.09M47.94 35.77a.3.3 0 0 0-.21.08.27.27 0 0 0-.09.21.28.28 0 0 0 .09.22.31.31 0 0 0 .42 0 .28.28 0 0 0 .09-.21.27.27 0 0 0-.09-.21.3.3 0 0 0-.21-.08M49.14 34.56a.29.29 0 0 0-.21.09.31.31 0 0 0-.09.21.29.29 0 0 0 .09.21.3.3 0 0 0 .43 0 .32.32 0 0 0 .08-.21.34.34 0 0 0-.08-.21.33.33 0 0 0-.22-.09M50.34 33.36a.34.34 0 0 0-.21.08.32.32 0 0 0-.09.22.29.29 0 0 0 .09.21.31.31 0 0 0 .43 0 .33.33 0 0 0 .08-.21.32.32 0 0 0-.08-.21.33.33 0 0 0-.22-.09M51.55 32.16a.31.31 0 0 0-.22.09.29.29 0 0 0 0 .42.32.32 0 0 0 .43 0 .33.33 0 0 0 .09-.21.29.29 0 0 0-.09-.21.29.29 0 0 0-.21-.09M52.75 31a.3.3 0 0 0-.21.08.31.31 0 0 0-.09.22.3.3 0 0 0 .51.21.29.29 0 0 0 .09-.21.28.28 0 0 0-.05-.3.29.29 0 0 0-.21-.09M53.95 29.76a.3.3 0 0 0-.21.51.31.31 0 0 0 .43 0 .3.3 0 0 0 0-.41.31.31 0 0 0-.22-.09M55.15 28.55a.29.29 0 0 0-.21.09.31.31 0 0 0-.09.21.27.27 0 0 0 .09.21.31.31 0 0 0 .43 0 .28.28 0 0 0 .08-.21.27.27 0 0 0-.09-.21.29.29 0 0 0-.21-.09M56.36 27.35a.3.3 0 0 0-.21.08.32.32 0 0 0-.1.22.3.3 0 0 0 .09.21.3.3 0 0 0 .51-.21.3.3 0 0 0-.08-.21.3.3 0 0 0-.21-.09M57.56 26.15a.31.31 0 0 0-.22.09.31.31 0 0 0-.08.21.3.3 0 0 0 .51.21.31.31 0 0 0 .09-.21.31.31 0 0 0-.1-.22.27.27 0 0 0-.2-.08M58.76 24.95a.27.27 0 0 0-.21.09.29.29 0 0 0 0 .42.3.3 0 0 0 .42 0A.29.29 0 0 0 59 25a.29.29 0 0 0-.21-.09M60 23.75a.32.32 0 0 0-.21.08.3.3 0 0 0-.09.21.31.31 0 0 0 .09.22.32.32 0 0 0 .42 0 .31.31 0 0 0 .09-.22.3.3 0 0 0-.08-.2.31.31 0 0 0-.22-.09M61.16 22.54a.31.31 0 0 0-.3.3.29.29 0 0 0 .09.21.3.3 0 0 0 .42 0 .33.33 0 0 0 .09-.22.34.34 0 0 0-.08-.21.33.33 0 0 0-.22-.09M62.36 21.34a.31.31 0 0 0-.3.3.31.31 0 0 0 .52.21.32.32 0 0 0 .09-.21.29.29 0 0 0-.09-.21.31.31 0 0 0-.22-.09M63.57 20.14a.29.29 0 0 0-.3.3.3.3 0 0 0 .51.21.33.33 0 0 0 .09-.21.31.31 0 0 0-.09-.21.29.29 0 0 0-.21-.09M64.77 18.94a.3.3 0 0 0-.21.08.3.3 0 0 0 0 .43.3.3 0 0 0 .42 0 .27.27 0 0 0 .09-.2A.28.28 0 0 0 65 19a.26.26 0 0 0-.2-.08M66 17.73a.29.29 0 0 0-.21.09.3.3 0 0 0-.09.21.31.31 0 0 0 .09.22.31.31 0 0 0 .43 0 .3.3 0 0 0 .08-.21.31.31 0 0 0-.3-.3M67.17 16.53a.31.31 0 0 0-.3.3.27.27 0 0 0 .13.17.32.32 0 0 0 .43 0 .31.31 0 0 0 .08-.21.32.32 0 0 0-.08-.21.31.31 0 0 0-.22-.09M68.38 15.33a.32.32 0 0 0-.21.08.34.34 0 0 0-.1.22.32.32 0 0 0 .09.21.31.31 0 0 0 .52-.21.29.29 0 0 0-.09-.21.31.31 0 0 0-.21-.09M69.58 14.13a.32.32 0 0 0-.21.08.33.33 0 0 0-.09.22.32.32 0 0 0 .08.21.31.31 0 0 0 .43 0 .27.27 0 0 0 .09-.2.28.28 0 0 0-.09-.21.29.29 0 0 0-.21-.09M70.78 12.93a.29.29 0 0 0-.3.29.3.3 0 1 0 .6 0A.27.27 0 0 0 71 13a.3.3 0 0 0-.21-.08M72 11.72a.28.28 0 0 0-.21.1.24.24 0 0 0-.09.2.31.31 0 0 0 .09.22.32.32 0 0 0 .43 0 .3.3 0 0 0 .08-.21.29.29 0 0 0-.09-.21.27.27 0 0 0-.21-.09M37.11 52.59a.31.31 0 0 0-.3.3.28.28 0 0 0 .09.22.33.33 0 0 0 .43 0 .31.31 0 0 0 .08-.21.34.34 0 0 0-.08-.21.33.33 0 0 0-.22-.09M38.31 51.39a.3.3 0 0 0-.21.09.29.29 0 0 0-.09.21.27.27 0 0 0 .09.21.31.31 0 0 0 .42 0 .33.33 0 0 0 .09-.22.29.29 0 0 0-.3-.3M39.51 50.19a.29.29 0 0 0-.2.08.32.32 0 0 0-.1.22.33.33 0 0 0 .1.22.32.32 0 0 0 .42 0 .32.32 0 0 0 .09-.21.33.33 0 0 0-.09-.21.31.31 0 0 0-.22-.09M40.72 49a.33.33 0 0 0-.21.08.29.29 0 0 0-.09.22.25.25 0 0 0 .08.2.3.3 0 0 0 .43 0 .3.3 0 0 0 .09-.21.29.29 0 0 0-.09-.21.31.31 0 0 0-.21-.09M41.92 47.79a.32.32 0 0 0-.21.08.31.31 0 0 0-.09.22.34.34 0 0 0 .08.21.32.32 0 0 0 .43 0 .31.31 0 0 0 .09-.21.27.27 0 0 0-.09-.21.3.3 0 0 0-.21-.09M43.12 46.58a.32.32 0 0 0-.21.09.27.27 0 0 0-.09.21.32.32 0 0 0 .09.22.3.3 0 0 0 .42 0 .27.27 0 0 0 .09-.21.34.34 0 0 0-.08-.21.36.36 0 0 0-.22-.09M44.32 45.38a.31.31 0 0 0-.3.3.27.27 0 0 0 .09.21.29.29 0 0 0 .42 0 .27.27 0 0 0 .09-.21.29.29 0 0 0-.09-.21.27.27 0 0 0-.21-.09M45.53 44.18a.29.29 0 0 0-.22.09.29.29 0 0 0-.09.21.29.29 0 0 0 .09.21.31.31 0 0 0 .43 0 .29.29 0 0 0 .09-.21.31.31 0 0 0-.3-.3M46.73 43a.27.27 0 0 0-.21.09.28.28 0 0 0-.09.21.27.27 0 0 0 .09.21.31.31 0 0 0 .42 0 .27.27 0 0 0 .09-.2.33.33 0 0 0-.1-.22.26.26 0 0 0-.2-.08M47.93 41.78a.29.29 0 0 0-.3.29.31.31 0 0 0 .09.22.32.32 0 0 0 .42 0 .31.31 0 0 0 .09-.22.3.3 0 0 0-.09-.21.3.3 0 0 0-.21-.08M49.13 40.57a.31.31 0 0 0-.21.09.3.3 0 0 0-.09.21.29.29 0 0 0 .09.21.3.3 0 0 0 .42 0 .33.33 0 0 0 .09-.22.34.34 0 0 0-.08-.21.33.33 0 0 0-.22-.09M50.33 39.37a.28.28 0 0 0-.21.09.29.29 0 0 0-.09.21.31.31 0 0 0 .09.21.31.31 0 0 0 .43 0 .3.3 0 0 0 .08-.21.32.32 0 0 0-.08-.21.31.31 0 0 0-.22-.09M51.54 38.17a.3.3 0 0 0-.22.09.32.32 0 0 0-.08.21.31.31 0 0 0 .08.21.31.31 0 0 0 .52-.21.29.29 0 0 0-.09-.21.29.29 0 0 0-.21-.09M52.74 37a.32.32 0 0 0-.21.08.33.33 0 0 0-.09.22.34.34 0 0 0 .08.21.32.32 0 0 0 .43 0 .31.31 0 0 0 .09-.21.29.29 0 0 0-.3-.3M53.94 35.77a.3.3 0 0 0-.21.08.29.29 0 0 0-.09.21.3.3 0 0 0 .52.21.3.3 0 0 0 .08-.21.28.28 0 0 0-.09-.21.3.3 0 0 0-.21-.08M55.14 34.56a.29.29 0 0 0-.21.09.32.32 0 0 0-.09.21.32.32 0 0 0 .08.21.3.3 0 0 0 .43 0 .27.27 0 0 0 .09-.21.29.29 0 0 0-.09-.21.27.27 0 0 0-.21-.09M56.34 33.36a.31.31 0 0 0-.3.3.27.27 0 0 0 .09.21.31.31 0 0 0 .43 0 .31.31 0 0 0 .08-.21.32.32 0 0 0-.08-.21.31.31 0 0 0-.22-.09M57.55 32.16a.33.33 0 0 0-.21.08.34.34 0 0 0-.1.22.33.33 0 0 0 .09.21.32.32 0 0 0 .43 0 .33.33 0 0 0 .09-.21.29.29 0 0 0-.09-.21.31.31 0 0 0-.21-.09M58.75 31a.29.29 0 0 0-.3.3.3.3 0 0 0 .51.21.3.3 0 0 0 .09-.21.28.28 0 0 0-.05-.3.29.29 0 0 0-.21-.09M59.95 29.75a.29.29 0 0 0-.21.09.3.3 0 0 0-.09.21.27.27 0 0 0 .09.21.3.3 0 0 0 .42 0 .31.31 0 0 0 .09-.22.28.28 0 0 0-.09-.21.31.31 0 0 0-.21-.09M61.15 28.55a.29.29 0 0 0-.21.09.34.34 0 0 0-.09.21.36.36 0 0 0 .09.22.32.32 0 0 0 .43 0 .28.28 0 0 0 .08-.21.27.27 0 0 0-.09-.21.29.29 0 0 0-.21-.09M62.35 27.35a.3.3 0 0 0-.21.51.31.31 0 0 0 .43 0 .32.32 0 0 0 .08-.21.31.31 0 0 0-.08-.21.32.32 0 0 0-.22-.09M63.56 26.15a.31.31 0 0 0-.22.09.31.31 0 0 0-.08.21.32.32 0 0 0 .08.21.31.31 0 0 0 .43 0 .28.28 0 0 0 .09-.2.27.27 0 0 0-.09-.21.29.29 0 0 0-.21-.09M64.76 24.95a.27.27 0 0 0-.21.09.27.27 0 0 0-.09.21.29.29 0 0 0 .09.21.31.31 0 0 0 .42 0 .29.29 0 0 0 .09-.21A.27.27 0 0 0 65 25a.29.29 0 0 0-.21-.09M66 23.74a.29.29 0 0 0-.21.09.3.3 0 0 0-.09.22.3.3 0 0 0 .09.21.31.31 0 0 0 .42 0 .3.3 0 0 0 .09-.21.32.32 0 0 0-.08-.21.3.3 0 0 0-.22-.1M67.16 22.54a.3.3 0 0 0-.21.51.3.3 0 0 0 .51-.21.27.27 0 0 0-.09-.21.3.3 0 0 0-.21-.09M68.36 21.34a.27.27 0 0 0-.21.09.3.3 0 0 0-.08.21.31.31 0 0 0 .09.22.31.31 0 0 0 .51-.22.33.33 0 0 0-.09-.21.29.29 0 0 0-.22-.09M69.57 20.14a.32.32 0 0 0-.21.08.33.33 0 0 0-.09.22.34.34 0 0 0 .08.21.31.31 0 0 0 .43 0 .28.28 0 0 0 .09-.21.27.27 0 0 0-.09-.21.29.29 0 0 0-.21-.09M70.77 18.94a.29.29 0 0 0-.22.09.28.28 0 0 0-.08.21.29.29 0 0 0 .09.21A.3.3 0 0 0 71 19a.32.32 0 0 0-.21-.08M72 17.74a.31.31 0 0 0-.21.08.3.3 0 0 0-.09.21.3.3 0 0 0 .51.22.33.33 0 0 0 .09-.22.29.29 0 0 0-.3-.29M43.11 52.59a.29.29 0 0 0-.21.09.3.3 0 0 0-.09.21.29.29 0 0 0 .09.21.3.3 0 0 0 .42 0 .33.33 0 0 0 .09-.22.34.34 0 0 0-.08-.21.36.36 0 0 0-.22-.09M44.31 51.39a.29.29 0 0 0-.21.09.28.28 0 0 0-.09.21.36.36 0 0 0 .09.22.32.32 0 0 0 .43 0 .3.3 0 0 0 .08-.21.33.33 0 0 0-.08-.21.31.31 0 0 0-.22-.09M45.51 50.19a.29.29 0 0 0-.2.08.3.3 0 0 0-.1.22.29.29 0 0 0 .09.21.31.31 0 0 0 .43 0 .34.34 0 0 0 .09-.21.33.33 0 0 0-.09-.21.33.33 0 0 0-.22-.09M46.72 49a.31.31 0 0 0-.22.09.3.3 0 0 0-.08.21.32.32 0 0 0 .08.21.32.32 0 0 0 .43 0 .29.29 0 0 0 .09-.21.31.31 0 0 0-.09-.21.29.29 0 0 0-.21-.09M47.92 47.79a.3.3 0 0 0-.21.08.29.29 0 0 0-.09.22.27.27 0 0 0 .09.21.32.32 0 0 0 .42 0 .31.31 0 0 0 .09-.21.27.27 0 0 0-.09-.21.29.29 0 0 0-.21-.09M49.12 46.58a.29.29 0 0 0-.21.09.29.29 0 0 0-.09.21.3.3 0 0 0 .51.22.28.28 0 0 0 .09-.22.29.29 0 0 0-.09-.21.28.28 0 0 0-.21-.09M50.32 45.38a.31.31 0 0 0-.21.09.31.31 0 0 0-.09.21.29.29 0 0 0 .09.21.3.3 0 0 0 .43 0 .32.32 0 0 0 .08-.21.34.34 0 0 0-.08-.21.33.33 0 0 0-.22-.09M51.53 44.18a.32.32 0 0 0-.21.08.3.3 0 0 0-.1.22.29.29 0 0 0 .09.21.3.3 0 0 0 .43 0 .29.29 0 0 0 .09-.21.28.28 0 0 0-.09-.21.3.3 0 0 0-.21-.09M52.73 43a.32.32 0 0 0-.21.08.34.34 0 0 0-.09.22.35.35 0 0 0 .08.21.31.31 0 0 0 .43 0 .27.27 0 0 0 .09-.2.27.27 0 0 0-.09-.21.29.29 0 0 0-.21-.09M53.93 41.78a.3.3 0 0 0-.21.08.32.32 0 0 0-.09.22.3.3 0 0 0 .09.21.31.31 0 0 0 .43 0 .28.28 0 0 0 .08-.2.31.31 0 0 0-.09-.22.3.3 0 0 0-.21-.08M55.13 40.57a.31.31 0 0 0-.21.09.3.3 0 0 0-.09.21.29.29 0 0 0 .09.21.3.3 0 0 0 .43 0 .32.32 0 0 0 .08-.21.34.34 0 0 0-.08-.21.33.33 0 0 0-.22-.09M56.33 39.37a.3.3 0 0 0-.21.09.31.31 0 0 0-.09.21.29.29 0 0 0 .09.21.3.3 0 0 0 .42 0 .29.29 0 0 0 .09-.22.26.26 0 0 0-.08-.2.28.28 0 0 0-.22-.1M57.54 38.17a.29.29 0 0 0-.3.3.31.31 0 0 0 .08.21.31.31 0 0 0 .52-.21.29.29 0 0 0-.09-.21.31.31 0 0 0-.21-.09M58.74 37a.32.32 0 0 0-.21.08.33.33 0 0 0-.09.22.29.29 0 0 0 .09.21.31.31 0 0 0 .42 0 .3.3 0 0 0 .09-.21.28.28 0 0 0-.09-.21.29.29 0 0 0-.21-.09M59.94 35.76a.31.31 0 0 0-.21.09.29.29 0 0 0-.09.22.31.31 0 0 0 .09.21.3.3 0 0 0 .42 0 .27.27 0 0 0 .09-.2.29.29 0 0 0-.09-.22.31.31 0 0 0-.21-.09M61.14 34.56a.31.31 0 0 0-.3.3.27.27 0 0 0 .09.21.31.31 0 0 0 .43 0 .3.3 0 0 0 .08-.21.29.29 0 0 0-.09-.21.27.27 0 0 0-.21-.09M62.34 33.36a.34.34 0 0 0-.21.08.32.32 0 0 0-.09.22.29.29 0 0 0 .09.21.31.31 0 0 0 .43 0 .33.33 0 0 0 .08-.21.32.32 0 0 0-.08-.21.33.33 0 0 0-.22-.09M63.55 32.16a.31.31 0 0 0-.22.09.3.3 0 0 0-.08.21.27.27 0 0 0 .09.21.3.3 0 0 0 .42 0 .33.33 0 0 0 .09-.21.29.29 0 0 0-.09-.21.32.32 0 0 0-.21-.09M64.75 31a.32.32 0 0 0-.21.08.31.31 0 0 0 0 .43.33.33 0 0 0 .44 0 .28.28 0 0 0 .08-.2A.29.29 0 0 0 65 31a.3.3 0 0 0-.21-.09M65.95 29.76a.33.33 0 0 0-.21.08.29.29 0 0 0-.09.21.3.3 0 0 0 .52.21.3.3 0 0 0 0-.42.3.3 0 0 0-.21-.08M67.15 28.55a.29.29 0 0 0-.3.3.29.29 0 0 0 .09.21.3.3 0 0 0 .42 0 .32.32 0 0 0 .09-.22.34.34 0 0 0-.08-.21.33.33 0 0 0-.22-.09M68.35 27.35a.27.27 0 0 0-.21.09.31.31 0 0 0-.09.21.33.33 0 0 0 .1.22.31.31 0 0 0 .42 0 .3.3 0 0 0 .08-.21.31.31 0 0 0-.08-.21.29.29 0 0 0-.22-.09M69.56 26.15a.29.29 0 0 0-.3.3.3.3 0 0 0 .51.21.31.31 0 0 0 .09-.21.32.32 0 0 0-.09-.21.31.31 0 0 0-.21-.09M70.76 24.95a.32.32 0 0 0-.21.08.33.33 0 0 0-.09.22.3.3 0 0 0 .51.21.31.31 0 0 0 .09-.21A.29.29 0 0 0 71 25a.3.3 0 0 0-.21-.09M72 23.74a.33.33 0 0 0-.21.09.29.29 0 0 0-.09.22.28.28 0 0 0 .09.21.31.31 0 0 0 .42 0 .3.3 0 0 0-.21-.52M49.11 52.59a.31.31 0 0 0-.3.3.31.31 0 0 0 .09.22.32.32 0 0 0 .42 0 .31.31 0 0 0 .09-.22.28.28 0 0 0-.09-.21.31.31 0 0 0-.21-.09M50.31 51.39a.31.31 0 0 0-.3.3.27.27 0 0 0 .09.21.31.31 0 0 0 .43 0 .3.3 0 0 0 .08-.21.33.33 0 0 0-.08-.21.31.31 0 0 0-.22-.09M51.51 50.19a.31.31 0 0 0-.3.3.34.34 0 0 0 .09.21.31.31 0 0 0 .43 0 .34.34 0 0 0 .09-.21.33.33 0 0 0-.09-.21.31.31 0 0 0-.22-.09M52.72 49a.36.36 0 0 0-.22.08.37.37 0 0 0-.08.22.32.32 0 0 0 .08.21.32.32 0 0 0 .43 0 .3.3 0 0 0-.21-.51M53.92 47.79a.32.32 0 0 0-.21.08.31.31 0 0 0-.09.22.3.3 0 0 0 .09.21.3.3 0 0 0 .51-.21.27.27 0 0 0-.09-.21.3.3 0 0 0-.21-.09M55.12 46.58a.29.29 0 0 0-.21.09.3.3 0 0 0-.09.21.27.27 0 0 0 .09.21.29.29 0 0 0 .42 0 .27.27 0 0 0 .09-.21.34.34 0 0 0-.08-.21.33.33 0 0 0-.22-.09M56.32 45.38a.31.31 0 0 0-.3.3.27.27 0 0 0 .09.21.31.31 0 0 0 .43 0 .3.3 0 0 0 .08-.21.31.31 0 0 0-.3-.3M57.53 44.18a.32.32 0 0 0-.21.08.3.3 0 0 0-.1.22.34.34 0 0 0 .09.21.31.31 0 0 0 .43 0 .29.29 0 0 0 .09-.21.31.31 0 0 0-.3-.3M58.73 43a.32.32 0 0 0-.21.08.34.34 0 0 0-.09.22.27.27 0 0 0 .09.21.3.3 0 0 0 .51-.21.29.29 0 0 0-.09-.21.3.3 0 0 0-.21-.09M59.93 41.78a.28.28 0 0 0-.21.08.3.3 0 0 0 0 .43.31.31 0 0 0 .43 0 .3.3 0 0 0-.22-.5M61.13 40.57a.33.33 0 0 0-.21.09.3.3 0 0 0-.09.21.3.3 0 0 0 .52.21.3.3 0 0 0 .08-.21.3.3 0 0 0-.08-.2.32.32 0 0 0-.22-.1M62.33 39.37a.3.3 0 0 0-.21.09.31.31 0 0 0-.09.21.33.33 0 0 0 .08.21.31.31 0 0 0 .44 0 .32.32 0 0 0 .08-.21.34.34 0 0 0-.08-.21.33.33 0 0 0-.22-.09M63.54 38.17a.31.31 0 0 0-.22.09.3.3 0 0 0-.08.21.31.31 0 0 0 .08.21.3.3 0 1 0 .43-.42.29.29 0 0 0-.21-.09M64.74 37a.31.31 0 0 0-.3.3.29.29 0 0 0 .09.21.3.3 0 0 0 .51-.21.28.28 0 0 0-.09-.21.27.27 0 0 0-.21-.09M65.94 35.76a.29.29 0 0 0-.21.09.3.3 0 0 0-.09.21.31.31 0 0 0 .08.21.31.31 0 0 0 .43 0 .31.31 0 0 0 .09-.22.28.28 0 0 0-.09-.21.33.33 0 0 0-.21-.09M67.14 34.56a.29.29 0 0 0-.21.09.29.29 0 0 0-.09.21.27.27 0 0 0 .09.21.29.29 0 0 0 .42 0 .27.27 0 0 0 .09-.21.29.29 0 0 0-.09-.21.27.27 0 0 0-.21-.09M68.34 33.36a.28.28 0 0 0-.21.1.27.27 0 0 0-.09.2.33.33 0 0 0 .1.22.31.31 0 0 0 .42 0 .31.31 0 0 0 .08-.21.32.32 0 0 0-.08-.21.31.31 0 0 0-.22-.09M69.55 32.16a.33.33 0 0 0-.21.08.34.34 0 0 0-.1.22.33.33 0 0 0 .09.21.32.32 0 0 0 .43 0 .29.29 0 0 0 0-.42.31.31 0 0 0-.21-.09M70.75 31a.29.29 0 0 0-.3.3.33.33 0 0 0 .08.21.32.32 0 0 0 .43 0 .29.29 0 0 0 .09-.21.28.28 0 0 0-.05-.3.29.29 0 0 0-.21-.09M71.95 29.76a.31.31 0 0 0-.21.08.29.29 0 0 0-.09.21.27.27 0 0 0 .09.21.3.3 0 1 0 .21-.5M55.11 52.59a.29.29 0 0 0-.21.09.32.32 0 0 0-.09.21.33.33 0 0 0 .08.21.3.3 0 0 0 .52-.21.28.28 0 0 0-.09-.21.27.27 0 0 0-.21-.09M56.31 51.39a.31.31 0 0 0-.3.3.27.27 0 0 0 .09.21.31.31 0 0 0 .43 0 .3.3 0 0 0 .08-.21.33.33 0 0 0-.08-.21.31.31 0 0 0-.22-.09M57.51 50.19a.29.29 0 0 0-.2.08.3.3 0 0 0-.1.22.32.32 0 0 0 .09.21.31.31 0 0 0 .43 0 .31.31 0 0 0 .08-.21.3.3 0 0 0-.08-.21.31.31 0 0 0-.22-.09M58.72 49a.31.31 0 0 0-.22.09.3.3 0 0 0-.08.21.32.32 0 0 0 .08.21.32.32 0 0 0 .43 0 .29.29 0 0 0 .09-.21.27.27 0 0 0-.09-.21.29.29 0 0 0-.21-.09M59.92 47.79a.3.3 0 0 0-.21.08.31.31 0 0 0-.09.22.29.29 0 0 0 .09.21.32.32 0 0 0 .42 0 .31.31 0 0 0 .09-.21.27.27 0 0 0-.09-.21.27.27 0 0 0-.21-.09M61.12 46.58a.32.32 0 0 0-.21.09.29.29 0 0 0-.09.21.3.3 0 0 0 .52.21.3.3 0 0 0 .08-.21.29.29 0 0 0-.09-.21.32.32 0 0 0-.21-.09M62.32 45.38a.31.31 0 0 0-.3.3.31.31 0 0 0 .52.21.3.3 0 0 0 .08-.21.33.33 0 0 0-.08-.21.31.31 0 0 0-.22-.09M63.53 44.18a.29.29 0 0 0-.22.09.31.31 0 0 0-.09.21.32.32 0 0 0 .09.21.32.32 0 0 0 .43 0 .31.31 0 0 0 .09-.21.3.3 0 0 0-.09-.21.28.28 0 0 0-.21-.09M64.73 43a.32.32 0 0 0-.21.08.33.33 0 0 0-.09.22.28.28 0 0 0 .09.21.29.29 0 0 0 .42 0 .27.27 0 0 0 .09-.2.36.36 0 0 0-.09-.22.32.32 0 0 0-.21-.08M65.93 41.78a.28.28 0 0 0-.21.08.3.3 0 0 0 0 .43.31.31 0 0 0 .43 0 .3.3 0 0 0 0-.41.29.29 0 0 0-.22-.09M67.13 40.57a.33.33 0 0 0-.21.09.3.3 0 0 0-.09.21.3.3 0 0 0 .52.21.3.3 0 0 0 0-.42.31.31 0 0 0-.21-.09M68.33 39.37a.31.31 0 0 0-.3.3.31.31 0 0 0 .09.21.31.31 0 0 0 .43 0 .31.31 0 0 0 .08-.21.33.33 0 0 0-.08-.21.31.31 0 0 0-.22-.09M69.54 38.17a.32.32 0 0 0-.21.08.33.33 0 0 0-.09.22.3.3 0 0 0 .51.21.32.32 0 0 0 .09-.21.29.29 0 0 0-.09-.21.31.31 0 0 0-.21-.09M70.74 37a.32.32 0 0 0-.21.08.33.33 0 0 0-.09.22.34.34 0 0 0 .08.21.32.32 0 0 0 .43 0 .35.35 0 0 0 .09-.22.29.29 0 0 0-.09-.21.3.3 0 0 0-.21-.09M71.94 35.77a.3.3 0 0 0-.21.08.3.3 0 0 0-.09.21.31.31 0 0 0 .09.22.31.31 0 0 0 .42 0 .32.32 0 0 0 .09-.22.27.27 0 0 0-.09-.21.3.3 0 0 0-.21-.08M61.11 52.59a.29.29 0 0 0-.21.09.3.3 0 0 0-.09.21.28.28 0 0 0 .09.21.3.3 0 0 0 .43 0 .29.29 0 0 0 .08-.21.28.28 0 0 0-.09-.21.31.31 0 0 0-.21-.09M62.31 51.39a.31.31 0 0 0-.3.3.27.27 0 0 0 .09.21.31.31 0 0 0 .43 0 .3.3 0 0 0 .08-.21.34.34 0 0 0-.08-.21.33.33 0 0 0-.22-.09M63.51 50.19a.28.28 0 0 0-.21.09.27.27 0 0 0-.09.21.32.32 0 0 0 .09.21.32.32 0 0 0 .43 0 .32.32 0 0 0 .09-.21.31.31 0 0 0-.09-.21.31.31 0 0 0-.22-.09M64.72 49a.29.29 0 0 0-.3.3.34.34 0 0 0 .08.21.31.31 0 0 0 .43 0 .29.29 0 0 0 .09-.21.27.27 0 0 0-.09-.21.31.31 0 0 0-.21-.09M65.92 47.79a.3.3 0 0 0-.21.08.31.31 0 0 0-.09.22.3.3 0 0 0 .09.21.31.31 0 0 0 .43 0 .3.3 0 0 0 .08-.2.31.31 0 0 0-.09-.22.32.32 0 0 0-.21-.08M67.12 46.58a.32.32 0 0 0-.21.09.3.3 0 0 0-.09.21.32.32 0 0 0 .08.21.31.31 0 0 0 .43 0 .34.34 0 0 0 .09-.22.31.31 0 0 0-.09-.21.32.32 0 0 0-.21-.09M68.32 45.38a.29.29 0 0 0-.3.3.27.27 0 0 0 .09.21.31.31 0 0 0 .43 0 .3.3 0 0 0 .08-.21.34.34 0 0 0-.08-.21.33.33 0 0 0-.22-.09M69.53 44.18a.3.3 0 0 0-.21.08.3.3 0 0 0-.1.22.3.3 0 0 0 .52.21.33.33 0 0 0 .09-.21.31.31 0 0 0-.3-.3M70.73 43a.29.29 0 0 0-.22.09.29.29 0 0 0-.08.21.28.28 0 0 0 .09.21.31.31 0 0 0 .42 0 .3.3 0 0 0 .09-.21.28.28 0 0 0-.09-.21.29.29 0 0 0-.21-.09M71.93 41.78a.32.32 0 0 0-.21.08.3.3 0 0 0-.09.21.3.3 0 0 0 .08.21.3.3 0 0 0 .52-.21.3.3 0 0 0-.08-.2.32.32 0 0 0-.22-.09M67.11 52.59a.31.31 0 0 0-.21.09.28.28 0 0 0-.09.21.33.33 0 0 0 .08.21.3.3 0 0 0 .43 0 .33.33 0 0 0 .09-.22.3.3 0 0 0-.09-.21.31.31 0 0 0-.21-.09M68.31 51.39a.3.3 0 0 0-.21.51.31.31 0 0 0 .43 0 .32.32 0 0 0 .08-.21.32.32 0 0 0-.08-.21.31.31 0 0 0-.22-.09M69.51 50.19a.28.28 0 0 0-.21.09.31.31 0 0 0-.09.21.32.32 0 0 0 .09.21.32.32 0 0 0 .43 0 .31.31 0 0 0 0-.43.27.27 0 0 0-.21-.08M70.72 49a.29.29 0 0 0-.22.09.3.3 0 0 0-.08.21.32.32 0 0 0 .08.21.32.32 0 0 0 .43 0 .3.3 0 0 0 .09-.21.31.31 0 0 0-.09-.21.29.29 0 0 0-.21-.09M71.92 47.79a.32.32 0 0 0-.21.08.32.32 0 0 0-.09.22.3.3 0 0 0 .09.21.31.31 0 0 0 .43 0 .3.3 0 0 0 .08-.2.29.29 0 0 0-.09-.21.3.3 0 0 0-.21-.09M6-.3a.29.29 0 0 0-.22.09.33.33 0 0 0-.13.21.31.31 0 0 0 .09.21.3.3 0 0 0 .43 0A.29.29 0 0 0 6.26 0a.28.28 0 0 0-.1-.21A.28.28 0 0 0 6-.3M12-.3a.31.31 0 0 0-.22.09.34.34 0 0 0-.09.21.32.32 0 0 0 .1.22.31.31 0 0 0 .42 0 .31.31 0 0 0 .05-.22.33.33 0 0 0-.09-.21A.33.33 0 0 0 12-.3M18-.3a.34.34 0 0 0-.22.09.33.33 0 0 0-.08.21.29.29 0 0 0 .09.22.31.31 0 0 0 .42 0 .31.31 0 0 0 .05-.22.29.29 0 0 0-.09-.21A.31.31 0 0 0 18-.3M24-.3a.3.3 0 0 0-.22.1.27.27 0 0 0-.08.2.29.29 0 0 0 .09.22.31.31 0 0 0 .42 0 .31.31 0 0 0 .05-.22.33.33 0 0 0-.09-.21A.33.33 0 0 0 24-.3M30-.3a.3.3 0 0 0-.22.1.27.27 0 0 0-.08.2.29.29 0 0 0 .09.22.31.31 0 0 0 .42 0 .29.29 0 0 0 .05-.22.28.28 0 0 0-.1-.21A.26.26 0 0 0 30-.3M36-.3a.31.31 0 0 0-.22.09.32.32 0 0 0-.08.21.28.28 0 0 0 .09.22.31.31 0 0 0 .42 0 .29.29 0 0 0 .05-.22.33.33 0 0 0-.09-.21A.33.33 0 0 0 36-.3M42-.3a.29.29 0 0 0-.22.09.3.3 0 0 0-.08.21.33.33 0 0 0 .08.22.32.32 0 0 0 .43 0 .31.31 0 0 0 .05-.22.29.29 0 0 0-.09-.21A.33.33 0 0 0 42-.3M48-.3a.31.31 0 0 0-.22.09.31.31 0 0 0-.09.21.3.3 0 0 0 .1.22.32.32 0 0 0 .42 0 .31.31 0 0 0 .05-.22.31.31 0 0 0-.09-.21A.3.3 0 0 0 48-.3M54-.3a.31.31 0 0 0-.22.09.36.36 0 0 0-.09.21.31.31 0 0 0 .09.21.3.3 0 0 0 .43 0 .31.31 0 0 0 .05-.21.31.31 0 0 0-.09-.21A.29.29 0 0 0 54-.3M60-.3a.36.36 0 0 0-.22.09.33.33 0 0 0-.09.21.36.36 0 0 0 .09.22.34.34 0 0 0 .43 0 .36.36 0 0 0 .05-.22.33.33 0 0 0-.09-.21A.33.33 0 0 0 60-.3M66-.3a.28.28 0 0 0-.21.09.3.3 0 0 0-.09.21.3.3 0 0 0 .08.21.3.3 0 0 0 .43 0 .31.31 0 0 0 .05-.21.3.3 0 0 0-.09-.21A.3.3 0 0 0 66-.3M.05-.3a.29.29 0 0 0-.22.1.26.26 0 0 0-.08.2.28.28 0 0 0 .09.22.31.31 0 0 0 .42 0A.31.31 0 0 0 .35 0a.33.33 0 0 0-.09-.21.29.29 0 0 0-.21-.09M.08 5.71a.3.3 0 0 0-.21.09.3.3 0 0 0-.09.2.31.31 0 0 0 .09.22.31.31 0 0 0 .43 0A.3.3 0 0 0 .38 6a.34.34 0 0 0-.08-.2.33.33 0 0 0-.22-.09M.07 11.72a.28.28 0 0 0-.21.1.24.24 0 0 0-.09.2.31.31 0 0 0 .09.22.32.32 0 0 0 .43 0A.29.29 0 0 0 .37 12a.29.29 0 0 0-.09-.21.27.27 0 0 0-.21-.09M.06 17.74a.31.31 0 0 0-.21.08.3.3 0 0 0-.09.18.31.31 0 0 0 .08.21.31.31 0 0 0 .43 0A.33.33 0 0 0 .36 18a.31.31 0 0 0-.09-.21.31.31 0 0 0-.21-.08M.05 23.74a.33.33 0 0 0-.21.09.29.29 0 0 0-.09.17.28.28 0 0 0 .09.21.31.31 0 0 0 .42 0A.3.3 0 0 0 .35 24a.3.3 0 0 0-.08-.21.3.3 0 0 0-.22-.1M0 29.76a.31.31 0 0 0-.21.08.29.29 0 0 0-.05.16.27.27 0 0 0 .09.21.3.3 0 0 0 .43 0A.3.3 0 0 0 .34 30a.3.3 0 0 0-.09-.21.3.3 0 0 0-.25-.03M0 35.77a.3.3 0 0 0-.21.08.3.3 0 0 0-.09.21.31.31 0 0 0 .09.22.31.31 0 0 0 .42 0 .32.32 0 0 0 .09-.22.27.27 0 0 0-.09-.21.3.3 0 0 0-.21-.08M0 41.78a.32.32 0 0 0-.21.08.3.3 0 0 0-.09.21.3.3 0 0 0 .08.21.31.31 0 0 0 .43 0 .31.31 0 0 0 .09-.22.3.3 0 0 0-.08-.2.32.32 0 0 0-.22-.08M0 47.79a.32.32 0 0 0-.21.08.32.32 0 0 0-.09.22.3.3 0 0 0 .09.21.31.31 0 0 0 .43 0 .3.3 0 0 0 .08-.2.29.29 0 0 0-.09-.21.3.3 0 0 0-.21-.1M72 53.79a.29.29 0 0 0-.22.1.26.26 0 0 0-.08.2.28.28 0 0 0 .09.22.31.31 0 0 0 .51-.22.33.33 0 0 0-.09-.21.29.29 0 0 0-.21-.09M6 53.79a.29.29 0 0 0-.22.09.33.33 0 0 0-.09.21.31.31 0 0 0 .09.21.3.3 0 0 0 .43 0 .29.29 0 0 0 .09-.21.33.33 0 0 0-.3-.3M12 53.79a.31.31 0 0 0-.22.09.34.34 0 0 0-.09.21.32.32 0 0 0 .1.22.31.31 0 0 0 .51-.22.31.31 0 0 0-.3-.3M18 53.79a.34.34 0 0 0-.22.09.33.33 0 0 0-.08.21.29.29 0 0 0 .09.22.31.31 0 0 0 .51-.22.29.29 0 0 0-.09-.21.31.31 0 0 0-.21-.09M24 53.79a.3.3 0 0 0-.22.1.27.27 0 0 0-.08.2.29.29 0 0 0 .09.22.31.31 0 0 0 .51-.22.31.31 0 0 0-.3-.3M30 53.79a.3.3 0 0 0-.22.1.27.27 0 0 0-.08.2.29.29 0 0 0 .09.22.31.31 0 0 0 .42 0 .29.29 0 0 0 .09-.21.28.28 0 0 0-.1-.21.26.26 0 0 0-.2-.09M36 53.79a.31.31 0 0 0-.22.09.32.32 0 0 0-.08.21.28.28 0 0 0 .09.22.31.31 0 0 0 .42 0 .29.29 0 0 0 .09-.21.31.31 0 0 0-.3-.3M42 53.79a.29.29 0 0 0-.22.09.3.3 0 0 0-.08.21.33.33 0 0 0 .08.22.32.32 0 0 0 .43 0 .31.31 0 0 0 .09-.21.29.29 0 0 0-.09-.21.33.33 0 0 0-.21-.09M48 53.79a.31.31 0 0 0-.31.3.3.3 0 0 0 .1.22.32.32 0 0 0 .42 0 .31.31 0 0 0 .09-.22.31.31 0 0 0-.09-.21.3.3 0 0 0-.21-.09M54 53.79a.31.31 0 0 0-.22.09.36.36 0 0 0-.09.21.31.31 0 0 0 .09.21.3.3 0 0 0 .43 0 .29.29 0 0 0 0-.42.29.29 0 0 0-.21-.09M60 53.79a.36.36 0 0 0-.22.09.33.33 0 0 0-.09.21.36.36 0 0 0 .09.22.34.34 0 0 0 .43 0 .36.36 0 0 0 .09-.22.31.31 0 0 0-.3-.3M66 53.79a.28.28 0 0 0-.21.09.3.3 0 1 0 .42.42.31.31 0 0 0 .09-.21.31.31 0 0 0-.3-.3M.05 53.79a.29.29 0 0 0-.22.1.26.26 0 0 0-.08.2.28.28 0 0 0 .09.22.31.31 0 0 0 .42 0 .31.31 0 0 0 .09-.21.33.33 0 0 0-.09-.21.29.29 0 0 0-.21-.09"/></g></pattern></defs><title>Artboard 1</title><g class="cls-5"><g id="Layer_1" data-name="Layer 1"><path class="cls-6" d="M0 1.14h15618.2v797.35H0z"/><path class="cls-7" d="M3494.25 797.71c-111.3-85-331.29-142.78-584.53-142.78s-473.23 57.81-584.53 142.78h1169.06zM7732.41 797.71c-275.16-210.06-819-353-1445-353s-1169.88 142.92-1445 353h2890z"/><path class="cls-8" d="M1247.24 483.4a36.84 36.84 0 0 0-12.33 2.15 58.23 58.23 0 0 0-114.83 13.74q0 1.5.08 3h-.08a27.62 27.62 0 0 0 0 55.25c.36 0 .7-.05 1.06-.07a6.12 6.12 0 0 0 .66.07h117.93a7.23 7.23 0 0 0 2.26-.39 36.66 36.66 0 0 0 5.26.39 37.06 37.06 0 0 0 0-74.12M4657.33 549.1a29.72 29.72 0 0 0-9.95 1.73 47 47 0 0 0-92.64 11.09q0 1.21.06 2.41h-.06a22.29 22.29 0 0 0 0 44.57c.29 0 .57 0 .86-.05a4.94 4.94 0 0 0 .53.05h95.15a5.84 5.84 0 0 0 1.82-.31 29.58 29.58 0 0 0 4.24.31 29.9 29.9 0 0 0 0-59.8"/><path class="cls-9" d="M2283.12 529.4a28.25 28.25 0 0 0-9.46 1.65 44.66 44.66 0 0 0-88.06 10.54q0 1.15.06 2.29h-.06a21.18 21.18 0 0 0 0 42.37c.27 0 .54 0 .81-.05a4.69 4.69 0 0 0 .5.05h90.43a5.55 5.55 0 0 0 1.73-.3 28.11 28.11 0 0 0 4 .3 28.42 28.42 0 0 0 0-56.84M5240.24 457.48a45.54 45.54 0 0 0-15.24 2.65 72 72 0 0 0-142 17q0 1.85.09 3.7h-.09a34.15 34.15 0 0 0 0 68.3c.44 0 .87-.07 1.31-.08a7.57 7.57 0 0 0 .81.08H5231a8.94 8.94 0 0 0 2.79-.48 45.32 45.32 0 0 0 6.5.48 45.81 45.81 0 0 0 0-91.63"/><path class="cls-10 cls-11" d="M182 604.71a15.36 15.36 0 0 0-5.14.9 24.28 24.28 0 0 0-47.86 5.73v1.25a11.52 11.52 0 1 0 0 23h49.87a3 3 0 0 0 .94-.16 15.28 15.28 0 0 0 2.19.16 15.45 15.45 0 0 0 0-30.9M5624.55 590.82a15.36 15.36 0 0 0-5.14.9 24.28 24.28 0 0 0-47.87 5.73v1.25a11.52 11.52 0 0 0 0 23h49.87a3 3 0 0 0 .94-.16 15.28 15.28 0 0 0 2.19.16 15.45 15.45 0 0 0 0-30.9M6218.58 604.71a15.36 15.36 0 0 0-5.14.9 24.28 24.28 0 0 0-47.87 5.73v1.25a11.52 11.52 0 0 0 0 23h49.87a3 3 0 0 0 .94-.16 15.28 15.28 0 0 0 2.19.16 15.45 15.45 0 0 0 0-30.9"/><path class="cls-12" d="M0 798.49h15618.2V912.7H0z"/><path class="cls-1" d="M0 895.52h15618.2v27.42H0z"/><path class="cls-13 cls-14" d="M0 895.52h15609.5v27.3H0z"/><path class="cls-15" d="M-.58 922.94l15618.78-.12"/><path class="cls-16" d="M13388.49 922.03H-.58v161.13H15620V922.03h-2231.51z"/><path class="cls-17" d="M13665.85 922.94V922l-1952.35.12v.66l-1952.35.12v-.12l-1952.35.12v-.12l-1952.35.12v-.12l-1952.35.12v-.12l-1952.35.12v-.12l-1952.33.16v38.73s27.48-14.19 55.79-18.74L67.79 955c2.11 2 4.55 2.41 6.8 1.07l30.27-18a5 5 0 0 1 4-.62L159 950.69c1.18.31 34.6-13.88 34.6-13.88 1.74-.76 22.7 17.28 31.3 24.79a9.44 9.44 0 0 0 9.58 1.76c9.35-3.57 19.34-12.37 20.16-12.55l52.34-11.9a4.9 4.9 0 0 1 2.86.21l73.69 28.06c2.1.8 17.68-16.7 23.17-23a6.19 6.19 0 0 1 4.95-2.47c10.86.61 46.57 8.14 46.57 8.14a5.38 5.38 0 0 0 4.9.14l17.15-7.88c2.68-1.23 28.24 28.81 28.24 28.81 3.3 4.23 42.07-4 52.92-6.46 1.68-.37 3.31.33 4.88 1.51a5.58 5.58 0 0 0 5.78.85l36.55-15.71 24.25-11.56c1.4-.67 35.68 11.44 35.68 11.44a6.35 6.35 0 0 1 .66.29l31.21 15.88a5.16 5.16 0 0 0 5.78-.69l18.87-14.63c.62-.48 27.82-9.9 28.84-9.65l34.27 8.52c1.07.27 10.48 8.74 10.48 8.74a6.39 6.39 0 0 0 4.36 1.94h25.84a5.91 5.91 0 0 0 3.42-1.17l62.68-16.52 3.13.21 57.41 23.75c1.6.66 34.64-16.54 35.57-16.54h22a4.59 4.59 0 0 1 .91.09l35.21 6.74a5.65 5.65 0 0 1 1.78.69L1065 967a5.11 5.11 0 0 0 5.78-.25l21-14.46a5.87 5.87 0 0 1 3.34-1.11l30.6 9.94a7.56 7.56 0 0 1 3.59 2.78c2.14 2.84 4.8 4 7.41 3.06l43.74-15.29c.85-.3 43.12 7.79 51.74 8.91a4.9 4.9 0 0 0 2.71-.45c4.44-2 19.57-9 19.73-9l30-10.36a4.89 4.89 0 0 1 2.78-.14l42.4 10.37c.62.15 26.06 15.93 26.06 15.93 1.72 1.08 26.42-11.87 31.32-14.46a5.13 5.13 0 0 1 2-.61c5.5-.42 27.73-.63 27.73-.63a5.3 5.3 0 0 1 1.06.11l33.22 6.84c.19 0 .37.07.56.08 0 0 17.12 1.39 18 1l39.56-18.56c2.68-1.28 25.55 25 25.55 25 1.62 2 3.51 3.14 5.45 3.14H1571c1.42 0 34.86-28.48 37-28.48 2.39 0 39.15 15.76 43.76 17.74a5.37 5.37 0 0 0 1 .32s46.45 9.26 48.33 7.1c0 0 13.07-14.41 14.36-14.77l23.8-6.71a5.23 5.23 0 0 1 2.95 0s54.55 15.43 56 14.56c7.68-4.64 33.08-19.89 35.24-19.89s55.1 2.28 56.43 3.56c7 6.72 30.13 28.57 33.73 26.56 3.24-1.81 18.84-5.12 28.2-7 0 0 27.48-14.19 55.79-18.74l12.55 11.91c2.11 2 4.55 2.41 6.8 1.07l30.27-18a5 5 0 0 1 4-.62l50.14 13.2c1.18.31 34.6-13.88 34.6-13.88 1.74-.76 22.7 17.28 31.3 24.79a9.44 9.44 0 0 0 9.58 1.76c9.35-3.57 19.34-12.37 20.16-12.55l52.34-11.9a4.9 4.9 0 0 1 2.86.21l73.69 28.06c2.1.8 17.68-16.7 23.17-23a6.19 6.19 0 0 1 4.95-2.47c10.86.61 46.57 8.14 46.57 8.14a5.38 5.38 0 0 0 4.9.14l17.15-7.88c2.68-1.23 28.24 28.81 28.24 28.81 3.3 4.23 42.07-4 52.92-6.46 1.68-.37 3.31.33 4.88 1.51a5.58 5.58 0 0 0 5.78.85l36.56-15.62 24.25-11.56c1.4-.67 35.68 11.44 35.68 11.44a6.36 6.36 0 0 1 .66.29l31.21 15.88a5.16 5.16 0 0 0 5.78-.69l18.87-14.63c.62-.48 27.82-9.9 28.84-9.65l34.27 8.52c1.07.27 10.48 8.74 10.48 8.74a6.39 6.39 0 0 0 4.36 1.94h25.84a5.91 5.91 0 0 0 3.42-1.17l62.68-16.52 3.13.21 57.41 23.75c1.6.66 34.64-16.54 35.57-16.54h22a4.59 4.59 0 0 1 .91.09l35.21 6.74a5.65 5.65 0 0 1 1.78.69l14.07 8.3a5.11 5.11 0 0 0 5.78-.25l21-14.46a5.87 5.87 0 0 1 3.34-1.11l30.6 9.94a7.56 7.56 0 0 1 3.59 2.78c2.14 2.84 4.8 4 7.41 3.06l43.74-15.29c.85-.3 43.12 7.79 51.74 8.91a4.9 4.9 0 0 0 2.71-.45c4.44-2 19.57-9 19.73-9l30-10.36a4.89 4.89 0 0 1 2.78-.14l42.4 10.37c.62.15 26.06 15.93 26.06 15.93 1.72 1.08 26.42-11.87 31.32-14.46a5.13 5.13 0 0 1 2-.61c5.5-.42 27.73-.63 27.73-.63a5.3 5.3 0 0 1 1.06.11l33.22 6.84c.19 0 .37.07.56.08 0 0 17.12 1.39 18 1l39.56-18.56c2.68-1.28 25.55 25 25.55 25 1.62 2 3.51 3.14 5.45 3.14h30.6c1.42 0 34.86-28.48 37-28.48 2.39 0 39.15 15.76 43.75 17.74a5.37 5.37 0 0 0 1 .32s46.45 9.26 48.33 7.1c0 0 13.07-14.41 14.36-14.77l23.8-6.71a5.23 5.23 0 0 1 2.95 0s54.55 15.43 56 14.56c7.68-4.64 33.08-19.89 35.24-19.89s55.1 2.28 56.43 3.56c7 6.72 30.13 28.57 33.73 26.56 3.24-1.81 18.84-5.12 28.2-7 0 0 27.48-14.19 55.79-18.74l12.56 11.92c2.11 2 4.55 2.41 6.8 1.07l30.27-18a5 5 0 0 1 4-.62l50.14 13.2c1.18.31 34.6-13.88 34.6-13.88 1.74-.76 22.7 17.28 31.3 24.79a9.44 9.44 0 0 0 9.58 1.76c9.35-3.57 19.34-12.37 20.16-12.55l52.34-11.9a4.9 4.9 0 0 1 2.86.21l73.69 28.06c2.1.8 17.68-16.7 23.17-23a6.19 6.19 0 0 1 4.95-2.47c10.86.61 46.57 8.14 46.57 8.14a5.38 5.38 0 0 0 4.9.14l17.15-7.88c2.68-1.23 28.24 28.81 28.24 28.81 3.3 4.23 42.07-4 52.92-6.46 1.68-.37 3.31.33 4.88 1.51a5.58 5.58 0 0 0 5.78.85l36.55-15.71 24.25-11.56c1.4-.67 35.68 11.44 35.68 11.44a6.36 6.36 0 0 1 .66.29l31.21 15.88a5.16 5.16 0 0 0 5.78-.69l18.87-14.63c.62-.48 27.82-9.9 28.84-9.65l34.27 8.52c1.07.27 10.48 8.74 10.48 8.74a6.39 6.39 0 0 0 4.36 1.94h25.84a5.91 5.91 0 0 0 3.42-1.17l62.68-16.52 3.13.21 57.41 23.75c1.6.66 34.64-16.54 35.57-16.54h22a4.59 4.59 0 0 1 .91.09l35.21 6.74a5.65 5.65 0 0 1 1.78.69l14.07 8.3a5.11 5.11 0 0 0 5.78-.25l21-14.46a5.87 5.87 0 0 1 3.34-1.11l30.6 9.94a7.56 7.56 0 0 1 3.59 2.78c2.14 2.84 4.8 4 7.41 3.06l43.74-15.29c.85-.3 43.12 7.79 51.74 8.91a4.9 4.9 0 0 0 2.71-.45c4.44-2 19.57-9 19.73-9l30-10.36a4.89 4.89 0 0 1 2.78-.14l42.4 10.37c.62.15 26.06 15.93 26.06 15.93 1.72 1.08 26.42-11.87 31.32-14.46a5.13 5.13 0 0 1 2-.61c5.5-.42 27.73-.63 27.73-.63a5.3 5.3 0 0 1 1.06.11l33.22 6.84c.19 0 .37.07.56.08 0 0 17.12 1.39 18 1l39.56-18.56c2.68-1.28 25.55 25 25.55 25 1.62 2 3.51 3.14 5.45 3.14h30.6c1.42 0 34.86-28.48 37-28.48 2.39 0 39.15 15.76 43.75 17.74a5.37 5.37 0 0 0 1 .32s46.45 9.26 48.33 7.1c0 0 13.07-14.41 14.36-14.77l23.8-6.71a5.23 5.23 0 0 1 2.95 0s54.55 15.43 56 14.56c7.68-4.64 33.08-19.89 35.24-19.89s55.1 2.28 56.43 3.56c7 6.72 30.13 28.57 33.73 26.56 3.24-1.81 18.84-5.12 28.2-7 0 0 27.48-14.19 55.79-18.74l12.57 12.01c2.11 2 4.55 2.41 6.8 1.07l30.27-18a5 5 0 0 1 4-.62l50.14 13.2c1.18.31 34.6-13.88 34.6-13.88 1.74-.76 22.69 17.28 31.3 24.79a9.44 9.44 0 0 0 9.58 1.76c9.35-3.57 19.34-12.37 20.16-12.55l52.34-11.9a4.9 4.9 0 0 1 2.86.21l73.69 28.06c2.1.8 17.68-16.7 23.17-23a6.19 6.19 0 0 1 4.95-2.47c10.86.61 46.57 8.14 46.57 8.14a5.38 5.38 0 0 0 4.9.14l17.15-7.88c2.68-1.23 28.24 28.81 28.24 28.81 3.3 4.23 42.07-4 52.92-6.46 1.68-.37 3.31.33 4.88 1.51a5.58 5.58 0 0 0 5.78.85l36.55-15.71 24.25-11.56c1.4-.67 35.68 11.44 35.68 11.44a6.31 6.31 0 0 1 .66.29l31.21 15.88a5.16 5.16 0 0 0 5.78-.69l18.87-14.63c.62-.48 27.82-9.9 28.84-9.65l34.27 8.52c1.07.27 10.48 8.74 10.48 8.74a6.39 6.39 0 0 0 4.36 1.94h25.84a5.91 5.91 0 0 0 3.42-1.17l62.65-16.45 3.13.21 57.41 23.75c1.6.66 34.64-16.54 35.57-16.54h22a4.59 4.59 0 0 1 .91.09l35.21 6.74a5.66 5.66 0 0 1 1.78.69L6922 967a5.11 5.11 0 0 0 5.78-.25l21-14.46a5.87 5.87 0 0 1 3.34-1.11l30.6 9.94a7.56 7.56 0 0 1 3.59 2.78c2.14 2.84 4.8 4 7.41 3.06l43.74-15.29c.85-.3 43.12 7.79 51.74 8.91a4.9 4.9 0 0 0 2.71-.45c4.44-2 19.57-9 19.73-9l30-10.36a4.88 4.88 0 0 1 2.78-.14l42.4 10.37c.62.15 26.06 15.93 26.06 15.93 1.72 1.08 26.42-11.87 31.32-14.46a5.13 5.13 0 0 1 2-.61c5.5-.42 27.73-.63 27.73-.63a5.3 5.3 0 0 1 1.06.11l33.22 6.84c.19 0 .37.07.56.08 0 0 17.12 1.39 18 1l39.56-18.56c2.68-1.28 25.55 25 25.55 25 1.62 2 3.51 3.14 5.45 3.14H7428c1.42 0 34.86-28.48 37-28.48 2.39 0 39.15 15.76 43.75 17.74a5.37 5.37 0 0 0 1 .32s46.45 9.26 48.33 7.1c0 0 13.07-14.41 14.36-14.77l23.8-6.71a5.23 5.23 0 0 1 2.95 0s54.55 15.43 56 14.56c7.68-4.64 33.08-19.89 35.24-19.89s55.1 2.28 56.43 3.56c7 6.72 30.13 28.57 33.73 26.56 3.24-1.81 18.84-5.12 28.2-7 0 0 27.48-14.19 55.79-18.74l12.6 11.91c2.11 2 4.55 2.41 6.8 1.07l30.27-18a5 5 0 0 1 4-.62l50.14 13.2c1.18.31 34.6-13.88 34.6-13.88 1.74-.76 22.69 17.28 31.3 24.79a9.44 9.44 0 0 0 9.58 1.76c9.35-3.57 19.34-12.37 20.16-12.55l52.34-11.9a4.9 4.9 0 0 1 2.86.21l73.69 28.06c2.1.8 17.68-16.7 23.17-23a6.19 6.19 0 0 1 4.95-2.47c10.86.61 46.57 8.14 46.57 8.14a5.38 5.38 0 0 0 4.9.14l17.15-7.88c2.68-1.23 28.24 28.81 28.24 28.81 3.3 4.23 42.07-4 52.92-6.46 1.68-.37 3.31.33 4.88 1.51a5.58 5.58 0 0 0 5.78.85l36.52-15.62 24.25-11.56c1.4-.67 35.68 11.44 35.68 11.44a6.42 6.42 0 0 1 .66.29l31.21 15.88a5.16 5.16 0 0 0 5.78-.69l18.87-14.63c.62-.48 27.82-9.9 28.84-9.65l34.27 8.52c1.07.27 10.48 8.74 10.48 8.74a6.39 6.39 0 0 0 4.36 1.94h25.84a5.91 5.91 0 0 0 3.42-1.17l62.68-16.52 3.13.21 57.41 23.75c1.6.66 34.64-16.54 35.57-16.54h22a4.59 4.59 0 0 1 .91.09l35.21 6.74a5.65 5.65 0 0 1 1.78.69l14.07 8.3a5.12 5.12 0 0 0 5.79-.25l21-14.46a5.87 5.87 0 0 1 3.34-1.11l30.6 9.94a7.56 7.56 0 0 1 3.59 2.78c2.14 2.84 4.8 4 7.41 3.06l43.74-15.29c.85-.3 43.12 7.79 51.74 8.91a4.9 4.9 0 0 0 2.71-.45c4.44-2 19.57-9 19.73-9l30-10.36a4.89 4.89 0 0 1 2.78-.14l42.4 10.37c.62.15 26.06 15.93 26.06 15.93 1.72 1.08 26.42-11.87 31.32-14.46a5.14 5.14 0 0 1 2-.61c5.5-.42 27.73-.63 27.73-.63a5.3 5.3 0 0 1 1.06.11l33.22 6.84c.19 0 .37.07.56.08 0 0 17.12 1.39 18 1l39.56-18.56c2.68-1.28 25.55 25 25.55 25 1.62 2 3.51 3.14 5.45 3.14h30.6c1.42 0 34.86-28.48 37-28.48 2.39 0 39.15 15.76 43.76 17.74a5.36 5.36 0 0 0 1 .32s46.45 9.26 48.33 7.1c0 0 13.07-14.41 14.36-14.77l23.8-6.71a5.23 5.23 0 0 1 2.95 0s54.55 15.43 56 14.56c7.68-4.64 33.08-19.89 35.24-19.89s55.1 2.28 56.43 3.56c7 6.72 30.13 28.57 33.73 26.56 3.24-1.81 18.84-5.12 28.2-7 0 0 27.48-14.19 55.79-18.74l12.58 11.92c2.11 2 4.55 2.41 6.8 1.07l30.27-18a5 5 0 0 1 4-.62l50.14 13.2c1.18.31 34.6-13.88 34.6-13.88 1.74-.76 22.7 17.28 31.3 24.79a9.44 9.44 0 0 0 9.58 1.76c9.35-3.57 19.34-12.37 20.16-12.55l52.34-11.9a4.9 4.9 0 0 1 2.86.21l73.69 28.06c2.1.8 17.68-16.7 23.17-23a6.19 6.19 0 0 1 4.95-2.47c10.86.61 46.57 8.14 46.57 8.14a5.38 5.38 0 0 0 4.9.14l17.15-7.88c2.68-1.23 28.24 28.81 28.24 28.81 3.3 4.23 42.07-4 52.92-6.46 1.68-.37 3.31.33 4.88 1.51a5.58 5.58 0 0 0 5.78.85l36.55-15.71 24.25-11.56c1.4-.67 35.68 11.44 35.68 11.44a6.31 6.31 0 0 1 .66.29l31.21 15.88a5.16 5.16 0 0 0 5.78-.69l18.87-14.63c.62-.48 27.82-9.9 28.84-9.65l34.27 8.52c1.07.27 10.48 8.74 10.48 8.74a6.38 6.38 0 0 0 4.36 1.94h25.84a5.91 5.91 0 0 0 3.42-1.17l62.68-16.52 3.13.21 57.41 23.75c1.6.66 34.64-16.54 35.57-16.54h22a4.6 4.6 0 0 1 .91.09l35.21 6.74a5.65 5.65 0 0 1 1.78.69l14.07 8.3a5.11 5.11 0 0 0 5.78-.25l21-14.46a5.87 5.87 0 0 1 3.34-1.11l30.6 9.94a7.56 7.56 0 0 1 3.59 2.78c2.14 2.84 4.8 4 7.41 3.06l43.74-15.29c.85-.3 43.12 7.79 51.74 8.91a4.9 4.9 0 0 0 2.71-.45c4.44-2 19.57-9 19.73-9l30-10.36a4.89 4.89 0 0 1 2.78-.14l42.4 10.37c.62.15 26.06 15.93 26.06 15.93 1.72 1.08 26.42-11.87 31.32-14.46a5.13 5.13 0 0 1 2-.61c5.5-.42 27.73-.63 27.73-.63a5.3 5.3 0 0 1 1.06.11l33.22 6.84c.19 0 .37.07.56.08 0 0 17.12 1.39 18 1l39.56-18.56c2.68-1.28 25.55 25 25.55 25 1.62 2 3.51 3.14 5.45 3.14h30.6c1.42 0 34.86-28.48 37-28.48 2.39 0 39.15 15.76 43.75 17.74a5.37 5.37 0 0 0 1 .32s46.45 9.26 48.33 7.1c0 0 13.07-14.41 14.36-14.77l23.8-6.71a5.23 5.23 0 0 1 2.95 0s54.55 15.43 56 14.56c7.68-4.64 33.08-19.89 35.24-19.89s55.1 2.28 56.43 3.56c7 6.72 30.13 28.57 33.73 26.56 3.24-1.81 18.84-5.12 28.2-7v-.78s27.48-14.19 55.79-18.74l12.59 12.07c2.11 2 4.55 2.41 6.8 1.07l30.27-18a5 5 0 0 1 4-.62l50.14 13.2c1.18.31 34.6-13.88 34.6-13.88 1.74-.76 22.69 17.28 31.3 24.79a9.44 9.44 0 0 0 9.58 1.76c9.35-3.57 19.34-12.37 20.16-12.55l52.34-11.9a4.9 4.9 0 0 1 2.86.21l73.69 28.06c2.1.8 17.68-16.7 23.17-23a6.19 6.19 0 0 1 4.95-2.47c10.86.61 46.57 8.14 46.57 8.14a5.38 5.38 0 0 0 4.9.14l17.15-7.88c2.68-1.23 28.24 28.81 28.24 28.81 3.3 4.23 42.07-4 52.92-6.46 1.68-.37 3.31.33 4.88 1.51a5.58 5.58 0 0 0 5.78.85l36.55-15.71 24.25-11.56c1.4-.67 35.68 11.44 35.68 11.44a6.42 6.42 0 0 1 .66.29l31.21 15.88a5.16 5.16 0 0 0 5.78-.69l18.87-14.63c.62-.48 27.82-9.9 28.84-9.65l34.27 8.52c1.07.27 10.48 8.74 10.48 8.74a6.39 6.39 0 0 0 4.36 1.94h25.84a5.9 5.9 0 0 0 3.42-1.17l62.68-16.52 3.13.21 57.41 23.75c1.6.66 34.64-16.54 35.57-16.54h22a4.59 4.59 0 0 1 .91.09l35.21 6.74a5.63 5.63 0 0 1 1.78.69l14.07 8.3a5.11 5.11 0 0 0 5.78-.25l21-14.46a5.87 5.87 0 0 1 3.34-1.11l30.6 9.94a7.56 7.56 0 0 1 3.59 2.78c2.14 2.84 4.8 4 7.4 3.06l43.74-15.29c.85-.3 43.12 7.79 51.74 8.91a4.9 4.9 0 0 0 2.71-.45c4.44-2 19.57-9 19.72-9l30-10.36a4.89 4.89 0 0 1 2.78-.14l42.41 10.37c.62.15 26.06 15.93 26.06 15.93 1.72 1.08 26.42-11.87 31.32-14.46a5.15 5.15 0 0 1 2-.61c5.5-.42 27.73-.63 27.73-.63a5.3 5.3 0 0 1 1.06.11l33.22 6.84c.18 0 .37.07.56.08 0 0 17.12 1.39 18 1l39.56-18.56c2.68-1.28 25.55 25 25.55 25 1.62 2 3.51 3.14 5.45 3.14h30.6c1.42 0 34.86-28.48 37-28.48 2.39 0 39.15 15.76 43.75 17.74a5.37 5.37 0 0 0 1 .32s46.45 9.26 48.33 7.1c0 0 13.07-14.41 14.36-14.77l23.8-6.71a5.23 5.23 0 0 1 2.95 0s54.55 15.43 56 14.56c7.68-4.64 33.08-19.89 35.24-19.89s55.1 2.28 56.43 3.56c7 6.72 30.13 28.57 33.73 26.56 3.24-1.81 18.84-5.12 28.2-7v.78s27.48-14.19 55.79-18.74l12.59 12.07c2.11 2 4.55 2.41 6.8 1.07l30.27-18a5 5 0 0 1 4-.62l50.14 13.2c1.18.31 34.6-13.88 34.6-13.88 1.74-.76 22.7 17.28 31.3 24.79a9.45 9.45 0 0 0 9.58 1.76c9.35-3.57 19.34-12.37 20.16-12.55l52.34-11.9a4.9 4.9 0 0 1 2.86.21l73.69 28.06c2.1.8 17.68-16.7 23.17-23a6.19 6.19 0 0 1 4.95-2.47c10.86.61 46.57 8.14 46.57 8.14a5.38 5.38 0 0 0 4.9.14l17.15-7.88c2.68-1.23 28.24 28.81 28.24 28.81 3.3 4.23 42.07-4 52.92-6.46 1.68-.37 3.31.33 4.88 1.51a5.58 5.58 0 0 0 5.78.85l36.55-15.71 24.25-11.56c1.4-.67 35.68 11.44 35.68 11.44a6.42 6.42 0 0 1 .66.29l31.21 15.88a5.16 5.16 0 0 0 5.78-.69l18.87-14.63c.62-.48 27.82-9.9 28.84-9.65l34.27 8.52c1.07.27 10.48 8.74 10.48 8.74a6.38 6.38 0 0 0 4.36 1.94h25.84a5.91 5.91 0 0 0 3.42-1.17l62.68-16.52 3.13.21 57.41 23.75c1.6.66 34.64-16.54 35.57-16.54h22a4.58 4.58 0 0 1 .91.09l35.21 6.74a5.65 5.65 0 0 1 1.78.69l14.07 8.3a5.11 5.11 0 0 0 5.78-.25l21-14.46a5.87 5.87 0 0 1 3.34-1.11l30.6 9.94a7.56 7.56 0 0 1 3.59 2.78c2.14 2.84 4.8 4 7.41 3.06l43.74-15.29c.85-.3 43.12 7.79 51.74 8.91a4.9 4.9 0 0 0 2.71-.45c4.44-2 19.57-9 19.73-9l30-10.36a4.89 4.89 0 0 1 2.78-.14l42.4 10.37c.62.15 26.06 15.93 26.06 15.93 1.72 1.08 26.42-11.87 31.32-14.46a5.14 5.14 0 0 1 2-.61c5.5-.42 27.73-.63 27.73-.63a5.3 5.3 0 0 1 1.06.11l33.22 6.84c.19 0 .37.07.56.08 0 0 17.12 1.39 18 1l39.56-18.56c2.68-1.28 25.55 25 25.55 25 1.62 2 3.51 3.14 5.45 3.14h30.6c1.42 0 34.86-28.48 37-28.48 2.39 0 39.15 15.76 43.75 17.74a5.36 5.36 0 0 0 1 .32s46.45 9.26 48.33 7.1c0 0 13.07-14.41 14.36-14.77l23.8-6.71a5.23 5.23 0 0 1 2.95 0s54.55 15.43 56 14.56c7.68-4.64 33.08-19.89 35.24-19.89s55.1 2.28 56.43 3.56c7 6.72 30.13 28.57 33.73 26.56 3.24-1.81 18.84-5.12 28.2-7v-39.03z"/></g></g></svg>