<svg xmlns="http://www.w3.org/2000/svg" viewBox="0 0 5909 1080"><defs><style>.cls-1{isolation:isolate}.cls-2{fill:#d1ebec}.cls-3{fill:#17abae}.cls-4{fill:#ffef8d}.cls-5{opacity:.8}.cls-6,.cls-7{fill:#fff}.cls-7{opacity:.81}.cls-8{fill:#b2aba3}.cls-20,.cls-9{fill:#7f7366}.cls-9{opacity:.62}.cls-10{fill:#e2e0ca}.cls-11{fill:#bfb9b2}.cls-12{fill:#a59d94}.cls-13,.cls-17{opacity:.5}.cls-14,.cls-17{fill:#189ca1}.cls-15{fill:#4c719d}.cls-16{fill:#8099b9}.cls-18{fill:#003473}.cls-19{fill:none;stroke:#003473;stroke-miterlimit:10;stroke-width:.2px;mix-blend-mode:soft-light}</style></defs><title>Artboard 1 copy 31x</title><g class="cls-1"><g id="Layer_1" data-name="Layer 1"><path class="cls-2" d="M-1.16 3.07H5909v1078.38H-1.16z"/><path class="cls-3" d="M3.31 534.64l413.4-18.23c453.65-20 919.06-16.76 1367.46 9.51l47.15 2.76c400.92 23.49 815.86 28.59 1224.21 15l278.38-9.24c326-10.82 656.67-9.76 981.45 3.13 239.24 9.5 481.92 12.58 723.84 9.19l869.8-12.12v499.67H4.4z"/><path class="cls-4" d="M258.4 167.37a96.13 96.13 0 1 1-96.13-96.13 96.13 96.13 0 0 1 96.13 96.13"/><path class="cls-5 cls-6" d="M573.08 192.73a15.86 15.86 0 0 0-5.31.92 25.07 25.07 0 0 0-49.42 5.91v1.29a11.89 11.89 0 0 0 0 23.78h.46a2.64 2.64 0 0 0 .28 0h50.76a3.11 3.11 0 0 0 1-.17 15.78 15.78 0 0 0 2.26.17 16 16 0 0 0 0-31.9"/><path class="cls-7" d="M155.9 255.33a9.21 9.21 0 0 0-3.08.54 14.55 14.55 0 0 0-28.7 3.43v.75a6.9 6.9 0 1 0 0 13.81H154a1.81 1.81 0 0 0 .56-.1 9.16 9.16 0 0 0 1.31.1 9.26 9.26 0 0 0 0-18.52M172.37 78.71a15.23 15.23 0 0 1 5.1.89 24.08 24.08 0 0 1 47.48 5.68v1.24a11.42 11.42 0 0 1 0 22.84H175.47a3 3 0 0 1-.93-.16 15.16 15.16 0 0 1-2.17.16 15.32 15.32 0 0 1 0-30.65"/><path class="cls-6" d="M1710.16 31.89a43 43 0 0 0-14.4 2.51 68 68 0 0 0-134.11 16q0 1.75.09 3.49h-.09a32.26 32.26 0 0 0 0 64.52c.42 0 .82-.06 1.24-.08a7.15 7.15 0 0 0 .77.08h137.73a8.45 8.45 0 0 0 2.61-.41 42.82 42.82 0 0 0 6.14.45 43.28 43.28 0 0 0 0-86.57"/><path class="cls-8" d="M1119.36 990.73s-439.36-7.42-901.63 73.82H2021c-462.24-81.24-901.64-73.82-901.64-73.82zM3083.36 990.73s-439.39-7.42-901.64 73.82H3985c-462.24-81.24-901.64-73.82-901.64-73.82z"/><path class="cls-8" d="M4553.36 943.45s-625.55-10.56-1283.64 105.1H5837c-658.08-115.66-1283.64-105.1-1283.64-105.1z"/><path class="cls-8" d="M5335.36 885.6s-385.79-16.77-791.64 167H6127c-405.85-183.77-791.64-167-791.64-167z"/><ellipse class="cls-9" cx="1010.37" cy="1012.71" rx="50.82" ry="10.87"/><path class="cls-10" d="M1055.43 1001.59c.05 9-15.47 16.39-34.68 16.5-36.95.22-54.59-7.3-52.25-16 5-18.5 24.09-28.76 43.3-28.87s43.58 19.37 43.63 28.37z"/><path class="cls-11" d="M1055.43 1001.59c.05 9-15.47 16.39-34.68 16.5-36.95.22-54.59-7.3-52.25-16l9.57 2.42a135.18 135.18 0 0 0 67.62-.36z"/><ellipse class="cls-12" cx="1024.31" cy="988.02" rx="4.36" ry="1.49"/><ellipse class="cls-12" cx="1011.86" cy="992.75" rx="4.36" ry="1.49"/><ellipse class="cls-12" cx="995.37" cy="987.16" rx="5.32" ry="2.35"/><ellipse class="cls-9" cx="2920.69" cy="1016.1" rx="50.82" ry="10.87"/><path class="cls-10" d="M2965.75 1005c.05 9-15.47 16.39-34.68 16.5-36.95.22-54.59-7.3-52.25-16 5-18.5 24.09-28.76 43.3-28.87s43.57 19.37 43.63 28.37z"/><path class="cls-11" d="M2965.75 1005c.05 9-15.47 16.39-34.68 16.5-36.95.22-54.59-7.3-52.25-16l9.57 2.42a135.18 135.18 0 0 0 67.62-.36z"/><ellipse class="cls-12" cx="2934.62" cy="991.41" rx="4.36" ry="1.49"/><ellipse class="cls-12" cx="2922.18" cy="996.14" rx="4.36" ry="1.49"/><ellipse class="cls-12" cx="2905.68" cy="990.55" rx="5.32" ry="2.35"/><ellipse class="cls-9" cx="4271.15" cy="964.89" rx="28.33" ry="6.06"/><path class="cls-10" d="M4296.27 958.69c0 5-8.63 9.14-19.33 9.2-20.6.12-30.43-4.07-29.13-8.92 2.77-10.32 13.43-16 24.14-16.1s24.29 10.8 24.32 15.82z"/><path class="cls-11" d="M4296.27 958.69c0 5-8.63 9.14-19.33 9.2-20.6.12-30.43-4.07-29.13-8.92l5.33 1.35a75.37 75.37 0 0 0 37.7-.2z"/><ellipse class="cls-12" cx="4278.92" cy="951.12" rx="2.43" ry=".83"/><ellipse class="cls-12" cx="4271.98" cy="953.76" rx="2.43" ry=".83"/><ellipse class="cls-12" cx="4262.78" cy="950.64" rx="2.96" ry="1.31"/><g class="cls-13"><path class="cls-14" d="M672.72 728.14l-1.18.9s4.39 3.08 5.16 5.52 1.75 5.85 1.75 5.85 4.22-.64 4.51-6-10.24-6.27-10.24-6.27zM692.85 735.12a3.57 3.57 0 0 0-3.15 3.46c-.12 3.14 4.23-1.32 4.23-1.32a2.78 2.78 0 0 0 .54-1.94c-.14-1.12-1.62-.2-1.62-.2zM680.07 718.48l-3.29-1.68 10.88-7.9s3.48-2.29 9.2 4-16.79 5.58-16.79 5.58z"/><path class="cls-15" d="M656.06 712.57a.61.61 0 0 1 .88-.74c2.37 1.41 7.47 5.12 10.08 9.25 3.62 5.71 12.68-3.43 17.85-5.16s14.81-4.41 21.86-3.36c6.26.93 11.63 4.62 12.92 10.81a.83.83 0 0 1-.26.79l-2.75 2.18 1.84.73c1.38.86 2.92 1.4.75 4a20.89 20.89 0 0 1-11.55 6.08c-4.55.48-15.78.47-20.29-1.41-11.09-4.63-17.83-11.85-20.72-6.71a14.84 14.84 0 0 1-5.36 5.22 26 26 0 0 1-5 2.43.61.61 0 0 1-.76-.81l1.81-4.25a20 20 0 0 0 .22-15.14z"/><path class="cls-16" d="M669.15 724.75s.77-.91 4.4-.36 5.38.72 8 0 9.21-2.79 11.09-3.15c2.55-.5 7.27.89 9.07 1.29a12.67 12.67 0 0 0 5.37.07s-.32 2.46-.39 3.53a16.32 16.32 0 0 1-5-1.24c-2-.87-6-2.17-8.88-1.61s-9.12 2.69-11.16 3.11a34.76 34.76 0 0 1-8.14-.13c-1.95-.3-4.38-1.08-5.67.28a3.62 3.62 0 0 1 1.31-1.79z"/><path class="cls-17" d="M674.65 729.09s7.43 3.13 12.62 4 10 1.17 20.05-.69c0 0-.16 1.18 1.62 4.56a51.54 51.54 0 0 1-14.11.18 29.45 29.45 0 0 1-6-.92 64.48 64.48 0 0 1-14.18-7.13z"/><path class="cls-14" d="M694.35 729.41s3.27-2.59 6.08-1.33c0 0 1.41.26 1 1.45s-3.52 1.34-3.52 1.34z"/><path class="cls-18" d="M662.88 716.32a18.43 18.43 0 0 1 4.14 4.76c3.57 5.75 11.53-2.69 17.85-5.16 4.47-1.75 14.81-4.41 21.86-3.36 6 .88 11.6 4.72 13 10.42.64 2.64-5 1.69-7 2.19-1.4.35-2.87.68-3.19 2.74-.6 3.86 1.42 8.46 1.42 8.46l-2 .62c-.25.05-2.09-3.86-2.27-8.27a30.48 30.48 0 0 1 .65-7.38c-.26-2.92-6.73-2.15-10.12-2.33-7.16-.38-11.06 3.5-20.35 5.46-2.28.48-5.82-1-7.71.28s-.87 1.5-2.31 4a8.53 8.53 0 0 1-2.83 3.57l-.41.3s.83-4.79 1.13-7.15a10 10 0 0 0 0-2.66z"/><ellipse class="cls-16" cx="712.76" cy="721.46" rx="2.49" ry="1.1" transform="rotate(-89.08 712.738 721.457)"/><circle class="cls-18" cx="712.76" cy="721.46" r=".65" transform="rotate(-89.08 712.738 721.457)"/><path class="cls-19" d="M679.77 714.62s2.86-.36 3.48 2M682.23 712.82s3.65-.15 4 2.56M684.75 711s4.34.07 4.8 3.36M687.24 709.2s4.85-.09 5.75 4.34"/></g><g class="cls-13"><path class="cls-14" d="M1621.93 728.14l-1.18.9s4.39 3.08 5.16 5.52 1.75 5.85 1.75 5.85 4.22-.64 4.51-6-10.24-6.27-10.24-6.27zM1642.06 735.12a3.57 3.57 0 0 0-3.15 3.46c-.12 3.14 4.23-1.32 4.23-1.32a2.78 2.78 0 0 0 .54-1.94c-.14-1.12-1.62-.2-1.62-.2zM1629.28 718.48l-3.29-1.68 10.88-7.9s3.48-2.29 9.2 4-16.79 5.58-16.79 5.58z"/><path class="cls-15" d="M1605.27 712.57a.61.61 0 0 1 .88-.74c2.37 1.41 7.47 5.12 10.08 9.25 3.62 5.71 12.68-3.43 17.85-5.16s14.81-4.41 21.86-3.36c6.26.93 11.63 4.62 12.92 10.81a.83.83 0 0 1-.26.79l-2.75 2.18 1.84.73c1.38.86 2.92 1.4.75 4a20.89 20.89 0 0 1-11.55 6.08c-4.55.48-15.78.47-20.29-1.41-11.09-4.63-17.83-11.85-20.72-6.71a14.84 14.84 0 0 1-5.36 5.22 26 26 0 0 1-5 2.43.61.61 0 0 1-.76-.81l1.81-4.25a20 20 0 0 0 .22-15.14z"/><path class="cls-16" d="M1618.36 724.75s.77-.91 4.4-.36 5.38.72 8 0 9.21-2.79 11.09-3.15c2.55-.5 7.27.89 9.07 1.29a12.67 12.67 0 0 0 5.37.07s-.32 2.46-.39 3.53a16.32 16.32 0 0 1-5-1.24c-2-.87-6-2.17-8.88-1.61s-9.12 2.69-11.16 3.11a34.76 34.76 0 0 1-8.14-.13c-1.95-.3-4.38-1.08-5.67.28a3.62 3.62 0 0 1 1.31-1.79z"/><path class="cls-17" d="M1623.86 729.09s7.43 3.13 12.62 4 10 1.17 20.05-.69c0 0-.16 1.18 1.62 4.56a51.54 51.54 0 0 1-14.11.18 29.45 29.45 0 0 1-6-.92 64.48 64.48 0 0 1-14.18-7.13z"/><path class="cls-14" d="M1643.56 729.41s3.27-2.59 6.08-1.33c0 0 1.41.26 1 1.45s-3.52 1.34-3.52 1.34z"/><path class="cls-18" d="M1612.09 716.32a18.43 18.43 0 0 1 4.14 4.76c3.57 5.75 11.53-2.69 17.85-5.16 4.47-1.75 14.81-4.41 21.86-3.36 6 .88 11.6 4.72 13 10.42.64 2.64-5 1.69-7 2.19-1.4.35-2.87.68-3.19 2.74-.6 3.86 1.42 8.46 1.42 8.46l-2 .62c-.25.05-2.09-3.86-2.27-8.27a30.48 30.48 0 0 1 .65-7.38c-.26-2.92-6.73-2.15-10.12-2.33-7.16-.38-11.06 3.5-20.35 5.46-2.28.48-5.82-1-7.71.28s-.87 1.5-2.31 4a8.53 8.53 0 0 1-2.83 3.57l-.41.3s.83-4.79 1.13-7.15a10 10 0 0 0 0-2.66z"/><ellipse class="cls-16" cx="1661.98" cy="721.46" rx="2.49" ry="1.1" transform="rotate(-89.08 1661.93 721.479)"/><circle class="cls-18" cx="1661.98" cy="721.46" r=".65" transform="rotate(-89.08 1661.93 721.479)"/><path class="cls-19" d="M1629 714.62s2.86-.36 3.48 2M1631.44 712.82s3.65-.15 4 2.56M1634 711s4.34.07 4.8 3.36M1636.45 709.2s4.85-.09 5.75 4.34"/></g><g class="cls-13"><path class="cls-14" d="M2245 700.6l-1.18.9s4.39 3.08 5.16 5.52 1.75 5.85 1.75 5.85 4.22-.64 4.51-6-10.24-6.27-10.24-6.27zM2265.17 707.59a3.57 3.57 0 0 0-3.15 3.46c-.12 3.14 4.23-1.32 4.23-1.32a2.78 2.78 0 0 0 .54-1.94c-.14-1.12-1.62-.2-1.62-.2zM2252.39 690.94l-3.29-1.68 10.88-7.9s3.48-2.29 9.2 4-16.79 5.58-16.79 5.58z"/><path class="cls-15" d="M2228.38 685a.61.61 0 0 1 .88-.74c2.37 1.41 7.47 5.12 10.08 9.25 3.62 5.71 12.68-3.43 17.85-5.16S2272 684 2279.05 685c6.26.93 11.63 4.62 12.92 10.81a.83.83 0 0 1-.26.79l-2.75 2.18 1.84.73c1.38.86 2.92 1.4.75 4a20.89 20.89 0 0 1-11.55 6.08c-4.55.48-15.78.47-20.29-1.41-11.09-4.63-17.83-11.85-20.72-6.71a14.84 14.84 0 0 1-5.36 5.22 26 26 0 0 1-5 2.43.61.61 0 0 1-.76-.81l1.81-4.25a20 20 0 0 0 .22-15.14z"/><path class="cls-16" d="M2241.47 697.21s.77-.91 4.4-.36 5.38.72 8 0 9.21-2.79 11.09-3.15c2.55-.5 7.27.89 9.07 1.29a12.67 12.67 0 0 0 5.37.07s-.32 2.46-.39 3.53a16.32 16.32 0 0 1-5-1.24c-2-.87-6-2.17-8.88-1.61s-9.12 2.69-11.16 3.11a34.76 34.76 0 0 1-8.14-.13c-1.95-.3-4.38-1.08-5.67.28a3.62 3.62 0 0 1 1.31-1.79z"/><path class="cls-17" d="M2247 701.56s7.43 3.13 12.62 4 10 1.17 20.05-.69c0 0-.16 1.18 1.62 4.56a51.54 51.54 0 0 1-14.11.18 29.45 29.45 0 0 1-6-.92 64.48 64.48 0 0 1-14.18-7.13z"/><path class="cls-14" d="M2266.67 701.87s3.27-2.59 6.08-1.33c0 0 1.41.26 1 1.45s-3.52 1.34-3.52 1.34z"/><path class="cls-18" d="M2235.2 688.78a18.43 18.43 0 0 1 4.14 4.76c3.57 5.75 11.53-2.69 17.85-5.16 4.47-1.75 14.81-4.41 21.86-3.36 6 .88 11.6 4.72 13 10.42.64 2.64-5 1.69-7 2.19-1.4.35-2.87.68-3.19 2.74-.6 3.86 1.42 8.46 1.42 8.46l-2 .62c-.25.05-2.09-3.86-2.27-8.27a30.48 30.48 0 0 1 .65-7.38c-.26-2.92-6.73-2.15-10.12-2.33-7.16-.38-11.06 3.5-20.35 5.46-2.28.48-5.82-1-7.71.28s-.87 1.5-2.31 4a8.53 8.53 0 0 1-2.83 3.57l-.41.3s.83-4.79 1.13-7.15a10 10 0 0 0 0-2.66z"/><ellipse class="cls-16" cx="2285.09" cy="693.93" rx="2.49" ry="1.1" transform="rotate(-89.08 2285.033 693.954)"/><circle class="cls-18" cx="2285.09" cy="693.93" r=".65" transform="rotate(-89.08 2285.033 693.954)"/><path class="cls-19" d="M2252.09 687.09s2.86-.36 3.48 2M2254.55 685.28s3.65-.15 4 2.56M2257.07 683.47s4.34.07 4.8 3.36M2259.56 681.67s4.85-.09 5.75 4.34"/></g><g class="cls-13"><path class="cls-14" d="M3920.73 710.11l-1.18.9s4.39 3.08 5.16 5.52 1.75 5.85 1.75 5.85 4.22-.64 4.51-6-10.24-6.27-10.24-6.27zM3940.87 717.1a3.57 3.57 0 0 0-3.15 3.46c-.12 3.14 4.23-1.32 4.23-1.32a2.78 2.78 0 0 0 .54-1.94c-.15-1.12-1.62-.2-1.62-.2zM3928.08 700.45l-3.29-1.68 10.88-7.9s3.48-2.29 9.2 4-16.79 5.58-16.79 5.58z"/><path class="cls-15" d="M3904.07 694.55a.61.61 0 0 1 .88-.74c2.37 1.41 7.47 5.12 10.08 9.25 3.62 5.71 12.68-3.43 17.85-5.16s14.81-4.41 21.86-3.36c6.26.93 11.63 4.62 12.92 10.81a.83.83 0 0 1-.26.79l-2.75 2.18 1.84.73c1.38.86 2.92 1.4.75 4a20.89 20.89 0 0 1-11.55 6.08c-4.55.48-15.78.47-20.29-1.41-11.09-4.63-17.83-11.85-20.72-6.71a14.84 14.84 0 0 1-5.36 5.22 26 26 0 0 1-5 2.43.61.61 0 0 1-.76-.81l1.81-4.25a20 20 0 0 0 .22-15.14z"/><path class="cls-16" d="M3917.16 706.72s.77-.91 4.4-.36 5.38.72 8 0 9.21-2.79 11.09-3.15c2.55-.5 7.27.89 9.07 1.29a12.67 12.67 0 0 0 5.37.07s-.32 2.46-.39 3.53a16.32 16.32 0 0 1-5-1.24c-2-.87-6-2.17-8.88-1.61s-9.12 2.69-11.16 3.11a34.76 34.76 0 0 1-8.14-.13c-1.95-.3-4.38-1.08-5.67.28a3.62 3.62 0 0 1 1.31-1.79z"/><path class="cls-17" d="M3922.67 711.07s7.43 3.13 12.62 4 10 1.17 20.05-.69c0 0-.16 1.18 1.62 4.56a51.54 51.54 0 0 1-14.11.18 29.45 29.45 0 0 1-6-.92 64.48 64.48 0 0 1-14.18-7.13z"/><path class="cls-14" d="M3942.36 711.39s3.27-2.59 6.08-1.33c0 0 1.41.26 1 1.45s-3.52 1.34-3.52 1.34z"/><path class="cls-18" d="M3910.9 698.3a18.43 18.43 0 0 1 4.14 4.76c3.57 5.75 11.53-2.69 17.85-5.16 4.47-1.75 14.81-4.41 21.86-3.36 6 .88 11.6 4.72 13 10.42.64 2.64-5 1.69-7 2.19-1.4.35-2.87.68-3.19 2.74-.6 3.86 1.42 8.46 1.42 8.46l-2 .62c-.25.05-2.09-3.86-2.27-8.27a30.48 30.48 0 0 1 .65-7.38c-.26-2.92-6.73-2.15-10.12-2.33-7.16-.38-11.06 3.5-20.35 5.46-2.28.48-5.82-1-7.71.28s-.87 1.5-2.31 4a8.53 8.53 0 0 1-2.83 3.57l-.41.3s.83-4.79 1.13-7.15a10 10 0 0 0 0-2.66z"/><ellipse class="cls-16" cx="3960.78" cy="703.44" rx="2.49" ry="1.1" transform="rotate(-89.08 3960.695 703.501)"/><circle class="cls-18" cx="3960.78" cy="703.44" r=".65" transform="rotate(-89.08 3960.695 703.501)"/><path class="cls-19" d="M3927.78 696.6s2.86-.36 3.48 2M3930.25 694.79s3.65-.15 4 2.56M3932.76 693s4.34.07 4.8 3.36M3935.26 691.18s4.85-.09 5.75 4.34"/></g><g class="cls-13"><path class="cls-14" d="M5477.31 688l-1.18.9s4.39 3.08 5.16 5.52 1.75 5.85 1.75 5.85 4.22-.64 4.51-6-10.24-6.27-10.24-6.27zM5497.45 695a3.57 3.57 0 0 0-3.15 3.46c-.12 3.14 4.23-1.32 4.23-1.32a2.78 2.78 0 0 0 .54-1.94c-.15-1.09-1.62-.2-1.62-.2zM5484.66 678.38l-3.29-1.68 10.88-7.9s3.48-2.29 9.2 4-16.79 5.58-16.79 5.58z"/><path class="cls-15" d="M5460.66 672.48a.61.61 0 0 1 .88-.74c2.37 1.41 7.47 5.12 10.08 9.25 3.62 5.71 12.68-3.43 17.85-5.16s14.81-4.41 21.86-3.36c6.26.93 11.63 4.62 12.92 10.81a.83.83 0 0 1-.26.79l-2.75 2.18 1.84.73c1.38.86 2.92 1.4.75 4a20.89 20.89 0 0 1-11.55 6.08c-4.55.48-15.78.47-20.29-1.41-11.09-4.63-17.83-11.85-20.72-6.71a14.84 14.84 0 0 1-5.36 5.22 26 26 0 0 1-5 2.43.61.61 0 0 1-.76-.81l1.81-4.25a20 20 0 0 0 .22-15.14z"/><path class="cls-16" d="M5473.75 684.65s.77-.91 4.4-.36 5.38.72 8 0 9.21-2.79 11.09-3.15c2.55-.5 7.27.89 9.07 1.29a12.67 12.67 0 0 0 5.37.07s-.32 2.46-.39 3.53a16.32 16.32 0 0 1-5-1.24c-2-.87-6-2.17-8.88-1.61s-9.12 2.69-11.16 3.11a34.76 34.76 0 0 1-8.14-.13c-1.95-.3-4.38-1.08-5.67.28a3.62 3.62 0 0 1 1.31-1.79z"/><path class="cls-17" d="M5479.25 689s7.43 3.13 12.62 4 10 1.17 20.05-.69c0 0-.16 1.18 1.62 4.56a51.54 51.54 0 0 1-14.11.18 29.45 29.45 0 0 1-6-.92 64.48 64.48 0 0 1-14.18-7.13z"/><path class="cls-14" d="M5498.94 689.31s3.27-2.59 6.08-1.33c0 0 1.41.26 1 1.45s-3.52 1.34-3.52 1.34z"/><path class="cls-18" d="M5467.48 676.22a18.43 18.43 0 0 1 4.14 4.76c3.57 5.75 11.53-2.69 17.85-5.16 4.47-1.75 14.81-4.41 21.86-3.36 6 .88 11.6 4.72 13 10.42.64 2.64-5 1.69-7 2.19-1.4.35-2.87.68-3.19 2.74-.6 3.86 1.42 8.46 1.42 8.46l-2 .62c-.25.05-2.09-3.86-2.27-8.27a30.48 30.48 0 0 1 .65-7.38c-.26-2.92-6.73-2.15-10.12-2.33-7.16-.38-11.06 3.5-20.35 5.46-2.28.48-5.82-1-7.71.28s-.87 1.5-2.31 4a8.53 8.53 0 0 1-2.83 3.57l-.41.3s.83-4.79 1.13-7.15a10 10 0 0 0 0-2.66z"/><ellipse class="cls-16" cx="5517.36" cy="681.37" rx="2.49" ry="1.1" transform="rotate(-89.08 5517.246 681.457)"/><circle class="cls-18" cx="5517.36" cy="681.37" r=".65" transform="rotate(-89.08 5517.246 681.457)"/><path class="cls-19" d="M5484.37 674.53s2.86-.36 3.48 2M5486.83 672.72s3.65-.15 4 2.56M5489.34 670.92s4.34.07 4.8 3.36M5491.84 669.11s4.85-.09 5.75 4.34"/></g><path class="cls-20" d="M-2.57 1047.4h1970.55v31.15H-2.57z"/><path class="cls-20" d="M1967.97 1047.4h1970.55v31.15H1967.97zM3938.52 1047.4h1970.55v31.15H3938.52z"/></g></g></svg>