<svg xmlns="http://www.w3.org/2000/svg" viewBox="0 0 5909 1080"><defs><style>.cls-1{isolation:isolate}.cls-2{fill:#d1ebec}.cls-3{opacity:.75}.cls-4{fill:#1f2225}.cls-5{fill:#353b41}.cls-6{fill:#1f252c}.cls-22,.cls-7{fill:#b6b6b6}.cls-35,.cls-7{stroke:#1f252c}.cls-13,.cls-15,.cls-17,.cls-20,.cls-27,.cls-29,.cls-30,.cls-31,.cls-32,.cls-35,.cls-36,.cls-54,.cls-7,.cls-9{stroke-miterlimit:10}.cls-7{stroke-width:.33px}.cls-8{fill:#e6e6e6}.cls-13,.cls-15,.cls-17,.cls-20,.cls-27,.cls-29,.cls-30,.cls-31,.cls-32,.cls-35,.cls-36,.cls-54,.cls-9{fill:none}.cls-17,.cls-9{stroke:#1f2225}.cls-13,.cls-9{stroke-width:.25px}.cls-10{fill:#ea6159}.cls-11{fill:#f2f2f2}.cls-12{fill:#4c5156}.cls-13{stroke:#64696d}.cls-14{fill:#ed7771}.cls-15{stroke:#e6e6e6}.cls-15,.cls-17,.cls-20{stroke-width:.51px}.cls-16{fill:#cecece}.cls-18{fill:#bcbebf}.cls-19{fill:#e5e0dc}.cls-20{stroke:#bdbfc0}.cls-21{fill:#fc734c}.cls-23{fill:#335d8f}.cls-24{fill:#194881}.cls-25{fill:#fff}.cls-26{fill:#99aec7}.cls-27,.cls-29,.cls-30,.cls-36{stroke:#fff}.cls-27{stroke-width:1.01px}.cls-28,.cls-54{mix-blend-mode:soft-light}.cls-29,.cls-31,.cls-32{stroke-linecap:round}.cls-29{stroke-width:2.39px}.cls-30{stroke-width:.42px}.cls-31,.cls-32{stroke:#194881}.cls-31{stroke-width:3.35px}.cls-32{stroke-width:1.68px}.cls-33{fill:#003473}.cls-34{fill:#6685ab}.cls-35,.cls-36{stroke-width:.84px}.cls-37{fill:#33b5b8}.cls-38,.cls-53{opacity:.5}.cls-39{fill:#4c77a2}.cls-40{fill:#336495}.cls-41{fill:#195187}.cls-42{fill:#ccc7c2}.cls-43{opacity:.45}.cls-44,.cls-55{fill:#7f7366}.cls-44{opacity:.62}.cls-45{fill:#e2e0ca}.cls-46{fill:#bfb9b2}.cls-47{fill:#a59d94}.cls-48{opacity:.7}.cls-49{opacity:.25}.cls-50,.cls-53{fill:#189ca1}.cls-51{fill:#4c719d}.cls-52{fill:#8099b9}.cls-54{stroke:#003473;stroke-width:.14px}</style></defs><title>Artboard 1 copy 21x</title><g class="cls-1"><g id="Layer_1" data-name="Layer 1"><path class="cls-2" d="M-1.16 3.07H5909v1078.38H-1.16z"/><g class="cls-3"><path class="cls-4" d="M167.4 409.23l-3.45.15 2.09-9.97 10.57-5 10.71-.48.24 5.34 1.19 9-21.35.96z"/><path class="cls-5" d="M185.61 411.3s0-13.05-10.27-12.59-9.52 13.48-9.52 13.48l-1.74.08.79-11.95 4.24-4.91 18.24-.44.11 2.56-6 .27s5.75 1.79 6.27 13.4z"/><circle class="cls-6" cx="175.79" cy="408.53" r="8.41" transform="translate(-18.15 8.3)"/><circle class="cls-7" cx="175.79" cy="408.53" r="5.44" transform="translate(-18.15 8.3)"/><path class="cls-4" d="M159.48 368.28l-3 .14c-.57 0-1.06.54-1.26 1.32l-.31 1.21 4.72-.21z"/><path class="cls-6" d="M173.13 407.8c.05-.18.49-.23 1-.09a1.73 1.73 0 0 1 .66.32 1.13 1.13 0 0 1 .75-.6 1.74 1.74 0 0 1-.17-.71c0-.51.11-.92.31-.93s.37.39.39.9a1.74 1.74 0 0 1-.1.72 1.13 1.13 0 0 1 .8.53 1.73 1.73 0 0 1 .63-.38c.47-.18.91-.18 1 0s-.26.47-.74.65a1.73 1.73 0 0 1-.72.13 1 1 0 0 1-.25.93 1.72 1.72 0 0 1 .55.48c.32.4.45.81.3.93s-.53-.1-.84-.5a1.74 1.74 0 0 1-.34-.65 1.11 1.11 0 0 1-1 0 1.74 1.74 0 0 1-.28.67c-.28.42-.64.68-.8.57s-.06-.53.22-1a1.72 1.72 0 0 1 .51-.53 1 1 0 0 1-.34-.9 1.73 1.73 0 0 1-.73-.06c-.5-.03-.86-.28-.81-.48z"/><ellipse class="cls-6" cx="172.75" cy="410.92" rx=".39" ry="1.02" transform="rotate(-56.57 172.752 410.923)"/><ellipse class="cls-6" cx="179.02" cy="410.64" rx="1.02" ry=".39" transform="rotate(-38.57 179.04 410.65)"/><path class="cls-8" d="M154.39 386.27l2.14-15.39 5.4-.25-7.54 15.64z"/><ellipse class="cls-6" cx="172.52" cy="405.93" rx="1.02" ry=".39" transform="rotate(-38.57 172.526 405.933)"/><ellipse class="cls-6" cx="178.8" cy="405.64" rx=".39" ry="1.02" transform="rotate(-56.57 178.811 405.652)"/><circle class="cls-9" cx="175.79" cy="408.53" r="7.88" transform="translate(-18.15 8.3)"/><path class="cls-10" d="M187.73 355.81l-10.54 3.36-16.19.73a6.47 6.47 0 0 0-4.29 1.9l-.09.09a6.47 6.47 0 0 0-1.88 4.86l.1 2.21 4.72-.21.21 4.72-4.6 10.62A13.29 13.29 0 0 0 154 390l.21 4.59a2.1 2.1 0 0 1-.44 1.39 2.1 2.1 0 0 0-.44 1.39l.07 1.64a8 8 0 0 0 2.7 5.64l-.24.21a3.26 3.26 0 0 0-1.07 2.57l.09 2a3.26 3.26 0 0 0 3.4 3.11l4.39-.2a2.24 2.24 0 0 0 1.82-1.08l.93-5.61a11.09 11.09 0 0 1 10.44-9.27l16.67-.75-1.65-37.63a2.42 2.42 0 0 0-3.15-2.19z"/><path class="cls-11" transform="rotate(177.43 171.762 393.164)" d="M169.94 392.87h3.64v.59h-3.64z"/><path class="cls-12" transform="rotate(177.43 171.797 394.04)" d="M169.98 393.46h3.64v1.17h-3.64z"/><path class="cls-13" d="M177.19 359.17l.47 10.38M175.24 396.42l-1.2-26.71M158.69 402.83l-.64-14.14a14.13 14.13 0 0 1 .24-3.3l1.27-6.58a14.25 14.25 0 0 0 .24-3.33l-.23-5.11 23.82-1.07a2.82 2.82 0 0 1 2.94 2.69l1.07 23.88"/><path class="cls-14" d="M182.57 371.13l-4.95.22a1.7 1.7 0 0 0-1.62 1.77l.28 6.31a1.7 1.7 0 0 0 2.15 1.56l4.9-1.37a1.7 1.7 0 0 0 1.24-1.71l-.23-5.17a1.7 1.7 0 0 0-1.77-1.61z"/><path class="cls-15" d="M159.78 377.02l-1.3 2.19.27 6.03"/><path class="cls-4" transform="rotate(177.43 193.988 403.637)" d="M187.34 398.6h13.29v10.07h-13.29z"/><path class="cls-4" d="M155.78 403l-.25-5.61a1.33 1.33 0 0 1 1.27-1.39l.31 6.93 9.37-.42-.68 1.69-9.67.43a8.39 8.39 0 0 1-1.39-1.6z"/><path class="cls-5" d="M190.14 399.36H192a5.69 5.69 0 0 1 5.69 5.69V411h-7.58a2.32 2.32 0 0 1-2.32-2.32v-7a2.32 2.32 0 0 1 2.32-2.32z" transform="rotate(177.43 192.778 405.16)"/><rect class="cls-16" x="198.53" y="398.14" width="25.87" height="12.33" rx="2.81" ry="2.81" transform="rotate(177.43 211.462 404.304)"/><rect class="cls-8" x="199.35" y="398.85" width="24.22" height="10.9" rx="2.55" ry="2.55" transform="rotate(177.43 211.462 404.304)"/><path class="cls-17" d="M220.21 396.88l.63 14.03M211.15 397.29l.62 14.03M202.08 397.7l.63 14.02"/><rect class="cls-18" x="196.27" y="349.76" width="73.87" height="44.24" rx="1.44" ry="1.44" transform="rotate(177.43 233.21 371.876)"/><path class="cls-19" d="M197.84 351.42h67.66a2.16 2.16 0 0 1 2.16 2.16v33.13a2.16 2.16 0 0 1-2.16 2.16h-67.66v-37.45z" transform="rotate(177.43 232.754 370.14)"/><path class="cls-20" d="M209.07 389.95l-1.68-37.41M219.88 389.46l-1.68-37.4M230.68 388.98L229 351.57"/><circle class="cls-19" cx="201.65" cy="393.02" r="1.49" transform="rotate(-2.57 201.706 393.24)"/><circle class="cls-21" cx="201.65" cy="393.02" r=".9" transform="rotate(-2.57 201.706 393.24)"/><circle class="cls-19" cx="222.37" cy="392.09" r="1.49" transform="translate(-17.36 10.37)"/><circle class="cls-21" cx="222.37" cy="392.09" r=".9" transform="rotate(-2.57 222.47 392.145)"/><path class="cls-22" d="M159.4 374h.19a1.11 1.11 0 0 1 1.11 1.11v5.09a1.11 1.11 0 0 1-1.11 1.11h-.19V374z" transform="rotate(177.43 160.049 377.633)"/><path class="cls-8" d="M165.89 385.06l-1.42.4a2.37 2.37 0 0 1-3-2.18l-.1-2.26c.59.65 1.2 1.28 1.85 1.87a28.67 28.67 0 0 0 2.67 2.17zM163.33 372l2.49-.11c.34.47.69.93 1.05 1.37a29.14 29.14 0 0 0 2.64 2.75 28.66 28.66 0 0 0 3 2.38l.44.29.11 2.49a2.37 2.37 0 0 1-.76 1.85 19.35 19.35 0 0 0-1.77-2.46 28.65 28.65 0 0 0-2.64-2.74 29.2 29.2 0 0 0-3-2.38 17.62 17.62 0 0 0-3.41-1.9 17.64 17.64 0 0 0 2.2 3.22 29.2 29.2 0 0 0 2.64 2.75 28.66 28.66 0 0 0 3 2.38 19.73 19.73 0 0 0 2.49 1.49 2.37 2.37 0 0 1-.47.19l-3.46 1-.46-.57a28.66 28.66 0 0 0-2.64-2.74 29.14 29.14 0 0 0-3-2.38l-.53-.35-.18-4a2.37 2.37 0 0 1 2.26-2.53zM168.09 371.93l-.2-.14 2.36-.11a2.37 2.37 0 0 1 2.48 2.26l.1 2.12c-.56-.61-1.14-1.2-1.75-1.76a29.14 29.14 0 0 0-2.99-2.37z"/><path class="cls-22" d="M169.51 376a29.14 29.14 0 0 1-2.64-2.75c-.37-.44-.72-.89-1.05-1.37l2.06-.09.2.14a29.14 29.14 0 0 1 3 2.38c.61.56 1.19 1.15 1.75 1.76l.12 2.61-.44-.29a28.66 28.66 0 0 1-3-2.39zM166.32 379.49a29.2 29.2 0 0 1-2.64-2.75 17.64 17.64 0 0 1-2.2-3.22 17.62 17.62 0 0 1 3.41 1.9 29.2 29.2 0 0 1 3 2.38 28.65 28.65 0 0 1 2.64 2.74 19.35 19.35 0 0 1 1.77 2.46 2.35 2.35 0 0 1-.5.35 19.73 19.73 0 0 1-2.49-1.49 28.66 28.66 0 0 1-2.99-2.37zM161.78 378.82a29.14 29.14 0 0 1 3 2.38 28.66 28.66 0 0 1 2.64 2.74l.46.57-2 .54a28.67 28.67 0 0 1-2.69-2.17c-.64-.59-1.25-1.22-1.85-1.87l-.11-2.56z"/><path class="cls-4" d="M487.02 394.88l3.45-.16-2.97-9.74-10.98-4.04-10.71.49.24 5.33-.38 9.07 21.35-.95z"/><path class="cls-5" d="M469.07 398.57s-1.14-13 9.1-13.46 10.69 12.57 10.69 12.57l1.74-.08-1.86-11.83-4.67-4.51-18.21 1.2.14 2.54 6-.27s-5.56 2.3-5 13.91z"/><circle class="cls-6" cx="478.61" cy="394.94" r="8.41" transform="rotate(-2.57 478.875 394.998)"/><circle class="cls-7" cx="478.61" cy="394.94" r="5.44" transform="rotate(-2.57 478.875 394.998)"/><path class="cls-4" d="M491.24 353.39l3-.14a1.54 1.54 0 0 1 1.37 1.2l.42 1.18-4.72.21z"/><path class="cls-6" d="M481.18 394c-.07-.18-.51-.18-1 0a1.73 1.73 0 0 0-.63.38 1.13 1.13 0 0 0-.8-.53 1.74 1.74 0 0 0 .1-.72c0-.51-.2-.91-.39-.9s-.33.43-.31.93a1.74 1.74 0 0 0 .17.71 1.13 1.13 0 0 0-.75.6 1.73 1.73 0 0 0-.66-.32c-.49-.13-.93-.09-1 .09s.3.44.79.58a1.73 1.73 0 0 0 .73.06 1 1 0 0 0 .34.9 1.72 1.72 0 0 0-.51.53c-.28.42-.38.85-.22 1s.52-.15.8-.57a1.74 1.74 0 0 0 .28-.67 1.11 1.11 0 0 0 1 0 1.74 1.74 0 0 0 .34.65c.32.4.69.62.84.5s0-.54-.3-.93a1.72 1.72 0 0 0-.55-.48 1 1 0 0 0 .25-.93 1.73 1.73 0 0 0 .72-.13c.5-.31.83-.6.76-.75z"/><ellipse class="cls-6" cx="481.85" cy="397.04" rx="1.02" ry=".39" transform="rotate(-38.57 481.856 397.049)"/><ellipse class="cls-6" cx="475.57" cy="397.33" rx=".39" ry="1.02" transform="rotate(-56.57 475.577 397.327)"/><path class="cls-8" d="M497.92 370.85l-3.51-15.15-5.4.25 8.91 14.9z"/><ellipse class="cls-6" cx="481.62" cy="392.05" rx=".39" ry="1.02" transform="rotate(-56.57 481.627 392.051)"/><ellipse class="cls-6" cx="475.34" cy="392.33" rx="1.02" ry=".39" transform="matrix(.78 -.62 .62 .78 -140.91 381.96)"/><circle class="cls-9" cx="478.61" cy="394.94" r="7.88" transform="rotate(-2.57 478.875 394.998)"/><path class="cls-10" d="M462 343.5l10.79 2.4 16.24-.73a6.47 6.47 0 0 1 4.45 1.5l.1.08a6.47 6.47 0 0 1 2.31 4.67l.1 2.21-4.72.21.21 4.72 5.52 10.17a13.29 13.29 0 0 1 1.6 5.75l.21 4.59a2.1 2.1 0 0 0 .57 1.34 2.1 2.1 0 0 1 .57 1.34l.07 1.64a8 8 0 0 1-2.18 5.86l.25.19a3.26 3.26 0 0 1 1.3 2.46l.09 2a3.26 3.26 0 0 1-3.11 3.4l-4.39.2a2.24 2.24 0 0 1-1.91-.91l-1.43-5.5a11.09 11.09 0 0 0-11.23-8.29l-16.67.75L459 346a2.42 2.42 0 0 1 3-2.5z"/><path class="cls-11" transform="rotate(-2.57 481.454 379.444)" d="M479.42 378.98h3.64v.59h-3.64z"/><path class="cls-12" transform="translate(-16.57 21.97)" d="M479.46 379.56h3.64v1.17h-3.64z"/><path class="cls-13" d="M472.78 345.9l.47 10.37M478.06 382.83l-1.2-26.72M495.12 387.72l-.64-14.14a14.13 14.13 0 0 0-.54-3.27l-1.85-6.44a14.25 14.25 0 0 1-.54-3.3l-.23-5.11-23.82 1.07a2.82 2.82 0 0 0-2.69 2.94l1.07 23.88"/><path class="cls-14" d="M468.5 358.29l4.95-.22a1.7 1.7 0 0 1 1.77 1.62l.28 6.31a1.7 1.7 0 0 1-2 1.75l-5-.92a1.7 1.7 0 0 1-1.39-1.59l-.23-5.17a1.7 1.7 0 0 1 1.62-1.78z"/><path class="cls-15" d="M491.72 362.11l1.49 2.07.27 6.03"/><path class="cls-4" transform="rotate(-2.57 460.21 391.903)" d="M453.4 386.66h13.29v10.07H453.4z"/><path class="cls-4" d="M498 387.59l-.25-5.61a1.33 1.33 0 0 0-1.39-1.27l.31 6.93-9.37.42.83 1.62 9.67-.43a8.39 8.39 0 0 0 1.24-1.72z"/><path class="cls-5" d="M458.75 387.3h7.58v5.93a5.69 5.69 0 0 1-5.69 5.69h-1.89a2.32 2.32 0 0 1-2.32-2.32v-7a2.32 2.32 0 0 1 2.32-2.3z" transform="rotate(-2.57 461.518 393.27)"/><rect class="cls-16" x="429.76" y="387.75" width="25.87" height="12.33" rx="2.81" ry="2.81" transform="rotate(-2.57 442.77 393.965)"/><rect class="cls-8" x="430.59" y="388.47" width="24.22" height="10.9" rx="2.55" ry="2.55" transform="translate(-17.22 20.25)"/><path class="cls-17" d="M433.31 387.32l.63 14.02M442.38 386.91l.63 14.02M451.45 386.5l.63 14.03"/><rect class="cls-18" x="381.2" y="341.46" width="73.87" height="44.24" rx="1.44" ry="1.44" transform="rotate(-2.57 418.246 363.753)"/><path class="cls-19" d="M383.52 343.09h67.66a2.16 2.16 0 0 1 2.16 2.16v33.13a2.16 2.16 0 0 1-2.16 2.16h-67.66v-37.45z" transform="rotate(-2.57 418.51 361.975)"/><path class="cls-20" d="M443.79 379.41L442.11 342M432.98 379.89l-1.68-37.4M422.18 380.38l-1.68-37.41"/><circle class="cls-19" cx="451.46" cy="381.8" r="1.49" transform="rotate(-2.57 451.738 381.9)"/><circle class="cls-21" cx="451.46" cy="381.8" r=".9" transform="rotate(-2.57 451.738 381.9)"/><circle class="cls-19" cx="430.74" cy="382.73" r="1.49" transform="rotate(-2.57 430.978 382.772)"/><circle class="cls-21" cx="430.74" cy="382.73" r=".9" transform="rotate(-2.57 430.978 382.772)"/><path class="cls-22" d="M490.87 359.1h.19a1.11 1.11 0 0 1 1.11 1.11v5.09a1.11 1.11 0 0 1-1.11 1.11h-.19v-7.3z" transform="rotate(-2.57 491.637 362.947)"/><path class="cls-8" d="M486.35 370.67l1.45.27a2.37 2.37 0 0 0 2.8-2.44l-.1-2.26c-.53.7-1.08 1.38-1.67 2a28.67 28.67 0 0 1-2.48 2.43zM487.74 357.43l-2.49.11c-.29.5-.6 1-.93 1.46a29.14 29.14 0 0 1-2.38 3 28.66 28.66 0 0 1-2.74 2.64l-.42.33.11 2.49a2.37 2.37 0 0 0 .93 1.77 19.35 19.35 0 0 1 1.54-2.61 28.65 28.65 0 0 1 2.38-3 29.2 29.2 0 0 1 2.75-2.64 17.62 17.62 0 0 1 3.22-2.2 17.64 17.64 0 0 1-1.9 3.41 29.2 29.2 0 0 1-2.38 3 28.66 28.66 0 0 1-2.74 2.64 19.73 19.73 0 0 1-2.34 1.7 2.37 2.37 0 0 0 .48.15l3.53.65.4-.61a28.66 28.66 0 0 1 2.38-3 29.14 29.14 0 0 1 2.75-2.64l.5-.4-.18-4a2.37 2.37 0 0 0-2.47-2.25zM483 357.79l.19-.15-2.36.11a2.37 2.37 0 0 0-2.26 2.48l.1 2.12c.51-.66 1-1.3 1.59-1.91a29.14 29.14 0 0 1 2.74-2.65z"/><path class="cls-22" d="M481.94 362a29.14 29.14 0 0 0 2.38-3c.32-.47.63-1 .93-1.46l-2.06.09-.19.15a29.14 29.14 0 0 0-2.75 2.64c-.56.61-1.08 1.25-1.59 1.91l.12 2.61.42-.33a28.66 28.66 0 0 0 2.74-2.61zM485.43 365.16a29.2 29.2 0 0 0 2.38-3 17.64 17.64 0 0 0 1.9-3.41 17.62 17.62 0 0 0-3.22 2.2 29.2 29.2 0 0 0-2.75 2.64 28.65 28.65 0 0 0-2.38 3 19.35 19.35 0 0 0-1.54 2.61 2.35 2.35 0 0 0 .53.31 19.73 19.73 0 0 0 2.34-1.7 28.66 28.66 0 0 0 2.74-2.65zM489.89 364.09a29.14 29.14 0 0 0-2.75 2.64 28.66 28.66 0 0 0-2.38 3l-.4.61 2 .37a28.67 28.67 0 0 0 2.48-2.4c.59-.65 1.14-1.33 1.67-2l-.11-2.56z"/><path class="cls-23" transform="rotate(-2.68 308.583 330.373)" d="M265.3 255.57h87.3v150.4h-87.3z"/><path class="cls-24" transform="rotate(-2.68 364.462 327.83)" d="M352.54 252.95h24.69v150.4h-24.69z"/><path class="cls-6" transform="rotate(-2.68 317.57 257.013)" d="M261.88 255.47h112v3.65h-112z"/><path class="cls-5" transform="rotate(-2.68 317.328 249.094)" d="M240.72 243.14h153.86v12.35H240.72z"/><path class="cls-23" transform="rotate(-2.68 295.667 233.403)" d="M260.75 223.28h70.49v20.84h-70.49z"/><path class="cls-24" transform="rotate(-2.68 295.117 220.344)" d="M260.14 218.11h70.49v5.18h-70.49z"/><path class="cls-5" d="M260.06 219.76l11.79-18.45 29.22-1.37 29.41 16.52"/><path class="cls-25" transform="rotate(-2.68 274.47 234.404)" d="M270.92 230.72h7.94v7.94h-7.94z"/><path class="cls-25" transform="rotate(-2.68 290.313 233.705)" d="M286.77 229.97h7.94v7.94h-7.94z"/><path class="cls-25" transform="rotate(-2.68 306.156 233.006)" d="M302.63 229.23h7.94v7.94h-7.94z"/><path class="cls-25" transform="rotate(-2.68 276.468 277.01)" d="M272.91 273.4h7.94v7.94h-7.94z"/><path class="cls-25" transform="rotate(-2.68 293.165 276.332)" d="M289.65 272.62h7.94v7.94h-7.94z"/><path class="cls-25" transform="rotate(-2.68 309.868 275.44)" d="M306.39 271.84h7.94v7.94h-7.94z"/><path class="cls-25" transform="rotate(-2.68 360.18 273.194)" d="M356.6 269.49h7.94v7.94h-7.94z"/><path class="cls-25" transform="rotate(-2.68 343.482 273.873)" d="M339.86 270.27h7.94v7.94h-7.94z"/><path class="cls-25" transform="rotate(-2.68 326.78 274.765)" d="M323.12 271.06h7.94V279h-7.94z"/><path class="cls-25" transform="rotate(-2.68 277.31 295.85)" d="M273.79 292.15h7.94v7.94h-7.94z"/><path class="cls-25" transform="rotate(-2.68 294.227 294.963)" d="M290.53 291.37h7.94v7.94h-7.94z"/><path class="cls-25" transform="rotate(-2.68 310.924 294.284)" d="M307.26 290.59h7.94v7.94h-7.94z"/><path class="cls-25" transform="rotate(-2.68 361.027 291.82)" d="M357.47 288.24h7.94v7.94h-7.94z"/><path class="cls-25" transform="rotate(-2.68 344.325 292.713)" d="M340.74 289.02h7.94v7.94h-7.94z"/><path class="cls-25" transform="rotate(-2.68 327.627 293.392)" d="M324 289.81h7.94v7.94H324z"/><path class="cls-25" transform="rotate(-2.68 278.372 314.482)" d="M274.66 310.9h7.94v7.94h-7.94z"/><path class="cls-25" transform="rotate(-2.68 295.07 313.803)" d="M291.4 310.12h7.94v7.94h-7.94z"/><path class="cls-25" transform="rotate(-2.68 311.772 312.91)" d="M308.14 309.34h7.94v7.94h-7.94z"/><path class="cls-25" transform="rotate(-2.68 361.87 310.66)" d="M358.35 306.99h7.94v7.94h-7.94z"/><path class="cls-25" transform="rotate(-2.68 345.172 311.34)" d="M341.61 307.77h7.94v7.94h-7.94z"/><path class="cls-25" transform="rotate(-2.68 328.47 312.232)" d="M324.88 308.55h7.94v7.94h-7.94z"/><path class="cls-26" transform="rotate(-2.57 323.262 372.774)" d="M222.66 341.49h201.06v62.44H222.66z"/><path class="cls-27" d="M231.57 328.1l.79 17.44M250.62 327.24l.79 17.44M269.67 326.39l.79 17.44M288.72 325.53l.79 17.44M307.77 324.68l.79 17.44M326.82 323.82l.79 17.44M345.88 322.96l.78 17.45M364.93 322.11l.78 17.44M383.98 321.25l.78 17.45M403.03 320.4l.78 17.44"/><path class="cls-27" transform="rotate(-2.57 321.483 332.814)" d="M220.87 323.88h201.06v17.65H220.87z"/><path class="cls-27" d="M220.97 337.22l200.85-9.02"/><g class="cls-28"><path class="cls-29" d="M233.71 353.94l2.15 45.98M241.93 353.56l2.15 45.98M250.15 353.17l2.15 45.99M258.38 352.79l2.14 45.98M266.6 352.41l2.15 45.98M274.82 352.02l2.15 45.98M283.04 351.64l2.15 45.98M291.26 351.25l2.15 45.98M299.48 350.87l2.15 45.98M307.72 350.5l2.15 45.98M315.96 350.13l2.15 45.98M324.2 349.76l2.15 45.98M332.44 349.39l2.15 45.98M340.67 349.02l2.15 45.98M348.91 348.65l2.15 45.98M357.15 348.28l2.15 45.98M365.39 347.91l2.15 45.98M373.63 347.54l2.15 45.98M381.86 347.17l2.15 45.98M390.1 346.8l2.15 45.98M398.34 346.43l2.15 45.98M406.58 346.06l2.15 45.98M307.7 350.48l2.15 45.98"/></g><path class="cls-6" transform="rotate(-2.68 341.065 395.507)" d="M336.18 387.38h10.58v17.15h-10.58z"/><path class="cls-25" transform="rotate(-2.57 247.24 361.702)" d="M240.86 355.33h12.38v12.38h-12.38z"/><path class="cls-25" transform="rotate(-2.57 272.245 360.478)" d="M266.02 354.2h12.38v12.38h-12.38z"/><path class="cls-25" transform="rotate(-2.57 297.468 359.483)" d="M291.18 353.07h12.38v12.38h-12.38z"/><path class="cls-25" transform="rotate(-2.57 322.696 358.265)" d="M316.35 351.94h12.38v12.38h-12.38z"/><path class="cls-25" transform="rotate(-2.57 347.924 357.047)" d="M341.51 350.81h12.38v12.38h-12.38z"/><path class="cls-25" transform="rotate(-2.57 372.924 356.046)" d="M366.68 349.68h12.38v12.38h-12.38z"/><path class="cls-25" transform="rotate(-2.57 398.152 354.828)" d="M391.84 348.55h12.38v12.38h-12.38z"/><path class="cls-30" d="M57.77 405.77l41.27-107.28 79.51 113.59"/><path class="cls-31" d="M98.52 287.05l5.24 116.65"/><rect class="cls-23" x="94.44" y="298.48" width="10.23" height="22.91" rx="5.12" ry="5.12" transform="rotate(-2.57 99.648 309.997)"/><path class="cls-32" d="M88.45 308.75l22.05-.99"/><path class="cls-33" d="M604.74 311.57l-6.97 11.29-15.22 62.08 4.4.75 13.09-61.63 6.96-11.49-2.26-1z"/><path class="cls-34" d="M35.39 430.25l22.38-24.48 46.89-2.11 19.67 10.82 404.85-18.18 23.45-12.75 33.14-1.49 13.42 22.87-563.8 25.32zM43.55 441.21l13.73 18.42 529.75-23.79 8.21-20.86-551.69 26.23z"/><path class="cls-33" d="M599.19 404.93l-563.8 25.32 8.16 10.96 551.69-26.23 3.95-10.05z"/><path class="cls-6" d="M102.29 503.98l468.27-25.37 16.47-42.77-529.75 23.79 45.01 44.35z"/><path class="cls-35" d="M43.56 441.21l551.68-26.23"/><circle class="cls-6" cx="84.12" cy="433.72" r="3.1" transform="rotate(-2.57 84.157 433.869)"/><circle class="cls-6" cx="135.99" cy="431.39" r="3.1" transform="rotate(-2.57 135.95 431.462)"/><circle class="cls-6" cx="187.86" cy="429.06" r="3.1" transform="rotate(-2.57 187.962 429.284)"/><circle class="cls-6" cx="239.73" cy="426.73" r="3.1" transform="rotate(-2.57 239.756 426.877)"/><circle class="cls-6" cx="291.61" cy="424.4" r="3.1" transform="rotate(-2.57 291.772 424.476)"/><circle class="cls-6" cx="343.48" cy="422.08" r="3.1" transform="rotate(-2.57 343.561 422.292)"/><circle class="cls-6" cx="395.35" cy="419.75" r="3.1" transform="rotate(-2.57 395.578 419.891)"/><circle class="cls-6" cx="447.23" cy="417.42" r="3.1" transform="rotate(-2.57 447.371 417.485)"/><circle class="cls-6" cx="499.1" cy="415.09" r="3.1" transform="rotate(-2.57 499.383 415.306)"/><circle class="cls-6" cx="550.97" cy="412.76" r="3.1" transform="rotate(-2.57 551.176 412.9)"/><path class="cls-36" d="M75.11 392.11l.56 12.52M97.82 391.09l.56 12.52M121 400.75l.57 12.52M143.81 401.9l.52 11.68M166.51 400.88l.53 11.68M189.22 399.86l.52 11.68M211.93 398.84l.52 11.68M234.63 397.82l.53 11.68M257.34 396.8l.52 11.68M280.05 395.78l.52 11.68M302.75 394.76l.53 11.68M325.46 393.74l.52 11.68M348.16 392.72l.53 11.68M370.87 391.7l.53 11.68M393.58 390.68l.52 11.68M416.28 389.66l.53 11.68M438.99 388.64l.52 11.69M461.7 387.62l.52 11.69M484.4 386.6l.53 11.69M507.11 385.59l.52 11.68M529.78 383.73l.56 12.52M551.95 370.7l.56 12.52M574.65 369.68l.56 12.52M585.93 382.05l-.57-12.85-33.59 1.51-23.18 13.92-403.93 18.13-20.88-11.93-46.59 2.09.58 12.85 46.89-2.11 19.67 10.82 404.85-18.18 23.45-12.75 33.3-1.5z"/><path class="cls-36" d="M585.63 375.3l-33.59 1.51-23.18 13.91-403.92 18.14-20.88-11.94-46.6 2.09"/></g><path class="cls-37" d="M3.31 491l413.4-18.23c453.65-20 919.06-16.76 1367.46 9.51l47.15 2.76c400.92 23.49 815.86 28.59 1224.21 15l278.38-9.24c326-10.82 656.67-9.76 981.45 3.13 239.24 9.5 481.92 12.58 723.84 9.19L5909 491v499.71H4.4z"/><g class="cls-38"><path class="cls-39" d="M4742.61 909.69s.41-11.78-1.58-18.11c0 0 1.45-.37 4 7.67 0 0 .12-29.06 8.69-29.06 0 0-4.58 4-4.58 39.5"/><path class="cls-40" d="M4752.83 888.56s-2.57 6.1-2.57 21.13h-5.69s1-28.43-3.54-42.93c0 0 6.68 10.43 6.68 32.49 0-.01 1.49-10.69 5.12-10.69z"/><path class="cls-40" d="M4726.38 909.69s.62-17.81-2.39-27.38c0 0 2.2-.56 6 11.59 0 0 .18-43.92 13.14-43.92 0 0-6.92 6-6.92 59.71"/><path class="cls-41" d="M4741.82 877.75s-3.88 9.23-3.88 31.94h-8.6s1.55-43-5.35-64.9c0 0 10.1 15.76 10.1 49.11 0 0 2.24-16.15 7.73-16.15z"/><path class="cls-39" d="M4775.7 910.17s.41-11.78-1.58-18.11c0 0 1.45-.37 4 7.67 0 0 .12-29.06 8.69-29.06 0 0-4.58 4-4.58 39.5"/><path class="cls-40" d="M4785.91 889s-2.57 6.1-2.57 21.13h-5.69s1-28.43-3.54-42.93c0 0 6.68 10.43 6.68 32.49.01.03 1.49-10.69 5.12-10.69z"/><path class="cls-40" d="M4759.47 910.17s.62-17.81-2.39-27.38c0 0 2.2-.56 6 11.59 0 0 .18-43.92 13.14-43.92 0 0-6.92 6-6.92 59.71"/><path class="cls-41" d="M4774.91 878.22s-3.88 9.23-3.88 31.94h-8.6s1.55-43-5.35-64.9c0 0 10.1 15.76 10.1 49.11 0 .01 2.24-16.15 7.73-16.15z"/></g><path class="cls-42" d="M870.46 946.55s-677-1.21-1118.47 87.06h2236.94c-441.49-88.27-1118.47-87.06-1118.47-87.06z"/><path class="cls-42" d="M2086 940.55s-413.4-1.3-683 93.06h1366c-269.6-94.36-683-93.06-683-93.06z"/><g class="cls-38"><path class="cls-39" d="M3485.2 963.11s.41-11.78-1.58-18.11c0 0 1.45-.37 4 7.67 0 0 .12-29.06 8.69-29.06 0 0-4.58 4-4.58 39.5"/><path class="cls-40" d="M3495.42 942s-2.57 6.1-2.57 21.13h-5.69s1-28.43-3.54-42.93c0 0 6.68 10.43 6.68 32.49 0-.02 1.49-10.69 5.12-10.69z"/><path class="cls-40" d="M3469 963.11s.62-17.81-2.39-27.38c0 0 2.2-.56 6 11.59 0 0 .18-43.92 13.14-43.92 0 0-6.92 6-6.92 59.71"/><path class="cls-41" d="M3484.41 931.17s-3.88 9.23-3.88 31.94h-8.6s1.55-43-5.35-64.9c0 0 10.1 15.76 10.1 49.11 0 0 2.24-16.15 7.73-16.15z"/><path class="cls-39" d="M3518.29 963.59s.41-11.78-1.58-18.11c0 0 1.45-.37 4 7.67 0 0 .12-29.06 8.69-29.06 0 0-4.58 4-4.58 39.5"/><path class="cls-40" d="M3528.5 942.46s-2.57 6.1-2.57 21.13h-5.69s1-28.43-3.54-42.93c0 0 6.68 10.43 6.68 32.49.01 0 1.49-10.69 5.12-10.69z"/><path class="cls-40" d="M3502.06 963.59s.62-17.81-2.39-27.38c0 0 2.2-.56 6 11.59 0 0 .18-43.92 13.14-43.92 0 0-6.92 6-6.92 59.71"/><path class="cls-41" d="M3517.5 931.65s-3.88 9.23-3.88 31.94H3505s1.55-43-5.35-64.9c0 0 10.1 15.76 10.1 49.11.02 0 2.25-16.15 7.75-16.15z"/></g><g class="cls-38"><path class="cls-39" d="M3700.14 943.64s.54-15.32-2.06-23.56c0 0 1.89-.48 5.18 10 0 0 .16-37.8 11.3-37.8 0 0-6 5.19-6 51.38"/><path class="cls-40" d="M3713.42 916.15s-3.34 7.94-3.34 27.49h-7.4s1.33-37-4.61-55.85c0 0 8.69 13.56 8.69 42.26.01-.05 1.94-13.9 6.66-13.9z"/><path class="cls-40" d="M3679 943.64s.81-23.16-3.11-35.61c0 0 2.86-.73 7.83 15.07 0 0 .24-57.13 17.09-57.13 0 0-9 7.84-9 77.67"/><path class="cls-41" d="M3699.11 902.09s-5 12-5 41.55h-11.19s2-55.91-7-84.42c0 0 13.14 20.5 13.14 63.88-.01 0 2.94-21.01 10.05-21.01z"/><path class="cls-39" d="M3743.17 944.26s.54-15.32-2.06-23.56c0 0 1.89-.48 5.18 10 0 0 .16-37.8 11.3-37.8 0 0-6 5.19-6 51.38"/><path class="cls-40" d="M3756.46 916.77s-3.34 7.94-3.34 27.49h-7.4s1.33-37-4.61-55.85c0 0 8.69 13.56 8.69 42.26.01 0 1.94-13.9 6.66-13.9z"/><path class="cls-40" d="M3722.06 944.26s.81-23.16-3.11-35.61c0 0 2.86-.73 7.83 15.07 0 0 .24-57.13 17.09-57.13 0 0-9 7.84-9 77.67"/><path class="cls-41" d="M3742.15 902.71s-5 12-5 41.55h-11.19s2-55.91-7-84.42c0 0 13.14 20.5 13.14 63.88-.01 0 2.9-21.01 10.05-21.01z"/></g><path class="cls-42" d="M3714 942.55s-424.29-1.5-701 108h1402c-276.71-109.55-701-108-701-108zM5810 892.55s-299.61-1.5-495 108h990c-195.39-109.55-495-108-495-108zM4765 906.55s-251.79-1.5-416 108h832c-164.21-109.55-416-108-416-108z"/><g class="cls-38"><path class="cls-39" d="M921.81 947.2s.41-11.78-1.58-18.11c0 0 1.45-.37 4 7.67 0 0 .12-29.06 8.69-29.06 0 0-4.58 4-4.58 39.5"/><path class="cls-40" d="M932 926.07s-2.57 6.1-2.57 21.13h-5.69s1-28.43-3.54-42.93c0 0 6.68 10.43 6.68 32.49.03-.01 1.52-10.69 5.12-10.69z"/><path class="cls-40" d="M905.58 947.2s.62-17.81-2.39-27.38c0 0 2.2-.56 6 11.59 0 0 .18-43.92 13.14-43.92 0 0-6.92 6-6.92 59.71"/><path class="cls-41" d="M921 915.25s-3.88 9.23-3.88 31.94h-8.6s1.55-43-5.35-64.9c0 0 10.1 15.76 10.1 49.11.02.01 2.26-16.15 7.73-16.15z"/><path class="cls-39" d="M954.9 947.67s.41-11.78-1.58-18.11c0 0 1.45-.37 4 7.67 0 0 .12-29.06 8.69-29.06 0 0-4.58 4-4.58 39.5"/><path class="cls-40" d="M965.11 926.54s-2.57 6.1-2.57 21.13h-5.69s1-28.43-3.54-42.93c0 0 6.68 10.43 6.68 32.49.01 0 1.49-10.69 5.12-10.69z"/><path class="cls-40" d="M938.67 947.67s.62-17.81-2.39-27.38c0 0 2.2-.56 6 11.59 0 0 .18-43.92 13.14-43.92 0 0-6.92 6-6.92 59.71"/><path class="cls-41" d="M954.11 915.73s-3.88 9.23-3.88 31.94h-8.6s1.55-43-5.35-64.9c0 0 10.1 15.76 10.1 49.11 0 0 2.24-16.15 7.73-16.15z"/></g><g class="cls-43"><ellipse class="cls-44" cx="1116.92" cy="969.94" rx="16.19" ry="3.46"/><path class="cls-45" d="M1131.28 966.4c0 2.87-4.93 5.22-11.05 5.26-11.77.07-17.4-2.33-16.65-5.1 1.58-5.9 7.68-9.16 13.8-9.2s13.88 6.17 13.9 9.04z"/><path class="cls-46" d="M1131.28 966.4c0 2.87-4.93 5.22-11.05 5.26-11.77.07-17.4-2.33-16.65-5.1l3 .77a43.08 43.08 0 0 0 21.55-.11z"/><ellipse class="cls-47" cx="1121.36" cy="962.07" rx="1.39" ry=".48"/><ellipse class="cls-47" cx="1117.39" cy="963.58" rx="1.39" ry=".48"/><ellipse class="cls-47" cx="1112.14" cy="961.8" rx="1.69" ry=".75"/></g><g class="cls-43"><ellipse class="cls-44" cx="2135.78" cy="959.94" rx="16.19" ry="3.46"/><path class="cls-45" d="M2150.14 956.4c0 2.87-4.93 5.22-11.05 5.26-11.77.07-17.4-2.33-16.65-5.1 1.58-5.9 7.68-9.16 13.8-9.2s13.88 6.17 13.9 9.04z"/><path class="cls-46" d="M2150.14 956.4c0 2.87-4.93 5.22-11.05 5.26-11.77.07-17.4-2.33-16.65-5.1l3 .77a43.08 43.08 0 0 0 21.55-.11z"/><ellipse class="cls-47" cx="2140.22" cy="952.07" rx="1.39" ry=".48"/><ellipse class="cls-47" cx="2136.26" cy="953.58" rx="1.39" ry=".48"/><ellipse class="cls-47" cx="2131" cy="951.8" rx="1.69" ry=".75"/></g><g class="cls-48"><ellipse class="cls-44" cx="847.55" cy="978.73" rx="26.77" ry="5.72"/><path class="cls-45" d="M871.28 972.87c0 4.74-8.15 8.63-18.27 8.69-19.46.11-28.76-3.84-27.53-8.43 2.61-9.75 12.69-15.15 22.81-15.21s22.97 10.21 22.99 14.95z"/><path class="cls-46" d="M871.28 972.87c0 4.74-8.15 8.63-18.27 8.69-19.46.11-28.76-3.84-27.53-8.43l5 1.27a71.21 71.21 0 0 0 35.62-.19z"/><ellipse class="cls-47" cx="854.89" cy="965.72" rx="2.3" ry=".79"/><ellipse class="cls-47" cx="848.33" cy="968.21" rx="2.3" ry=".79"/><ellipse class="cls-47" cx="839.64" cy="965.27" rx="2.8" ry="1.24"/></g><g class="cls-48"><ellipse class="cls-44" cx="2365.92" cy="979.07" rx="26.77" ry="5.72"/><path class="cls-45" d="M2389.66 973.21c0 4.74-8.15 8.63-18.27 8.69-19.46.11-28.76-3.84-27.53-8.43 2.61-9.75 12.69-15.15 22.81-15.21s22.96 10.21 22.99 14.95z"/><path class="cls-46" d="M2389.66 973.21c0 4.74-8.15 8.63-18.27 8.69-19.46.11-28.76-3.84-27.53-8.43l5 1.27a71.21 71.21 0 0 0 35.62-.19z"/><ellipse class="cls-47" cx="2373.26" cy="966.06" rx="2.3" ry=".79"/><ellipse class="cls-47" cx="2366.7" cy="968.56" rx="2.3" ry=".79"/><ellipse class="cls-47" cx="2358.02" cy="965.61" rx="2.8" ry="1.24"/></g><g class="cls-49"><path class="cls-50" d="M585.51 720.55l-.8.61s3 2.09 3.5 3.75 1.19 4 1.19 4 2.87-.43 3.06-4.09-6.95-4.27-6.95-4.27zM599.17 725.3a2.43 2.43 0 0 0-2.14 2.35c-.08 2.13 2.87-.89 2.87-.89a1.89 1.89 0 0 0 .36-1.32c-.08-.77-1.09-.14-1.09-.14zM590.5 714l-2.23-1.14 7.39-5.36s2.36-1.55 6.25 2.68S590.5 714 590.5 714z"/><path class="cls-51" d="M574.2 710a.41.41 0 0 1 .59-.5 23 23 0 0 1 6.85 6.28c2.46 3.88 8.6-2.33 12.12-3.51s10.05-3 14.84-2.28c4.25.63 7.89 3.14 8.77 7.34a.56.56 0 0 1-.17.53l-1.87 1.48 1.25.5c.94.58 2 .95.51 2.73a14.18 14.18 0 0 1-7.84 4.13c-3.09.32-10.71.32-13.78-1-7.53-3.15-12.11-8-14.07-4.55a10.07 10.07 0 0 1-3.64 3.54 17.64 17.64 0 0 1-3.37 1.65.41.41 0 0 1-.52-.55l1.23-2.89a13.55 13.55 0 0 0 .15-10.28z"/><path class="cls-52" d="M583.08 718.25s.52-.62 3-.24 3.66.49 5.4 0 6.25-1.89 7.53-2.14c1.73-.34 4.94.6 6.15.88a8.6 8.6 0 0 0 3.64 0s-.22 1.67-.26 2.39a11.08 11.08 0 0 1-3.39-.84c-1.34-.59-4.09-1.47-6-1.1s-6.19 1.82-7.57 2.11a23.6 23.6 0 0 1-5.53-.09c-1.32-.2-3-.74-3.85.19a2.46 2.46 0 0 1 .88-1.16z"/><path class="cls-53" d="M586.82 721.2a50 50 0 0 0 8.57 2.73c3.52.6 6.81.79 13.61-.47 0 0-.11.8 1.1 3.09a35 35 0 0 1-9.58.12 20 20 0 0 1-4-.63 43.77 43.77 0 0 1-9.7-4.84z"/><path class="cls-50" d="M600.19 721.42s2.22-1.76 4.13-.9c0 0 1 .17.67 1s-2.39.91-2.39.91z"/><path class="cls-33" d="M578.83 712.53a12.51 12.51 0 0 1 2.81 3.23c2.42 3.9 7.82-1.83 12.12-3.51 3-1.18 10.05-3 14.84-2.28 4.06.6 7.87 3.2 8.82 7.07.44 1.79-3.38 1.15-4.76 1.49-.95.23-1.95.46-2.17 1.86a12.31 12.31 0 0 0 1 5.74l-1.35.42c-.17 0-1.42-2.62-1.54-5.61a20.69 20.69 0 0 1 .44-5c-.18-2-4.57-1.46-6.87-1.58-4.86-.26-7.51 2.38-13.81 3.71-1.54.33-4-.68-5.23.19s-.59 1-1.57 2.71a5.79 5.79 0 0 1-1.92 2.42l-.28.2s.57-3.25.76-4.85a6.75 6.75 0 0 0 0-1.81z"/><ellipse class="cls-52" cx="612.69" cy="716.02" rx="1.69" ry=".75" transform="rotate(-89.08 612.665 716.02)"/><circle class="cls-33" cx="612.69" cy="716.02" r=".44" transform="rotate(-89.08 612.665 716.02)"/><path class="cls-54" d="M590.29 711.38s1.94-.25 2.36 1.35M592 710.15s2.48-.1 2.73 1.74M593.67 708.93s2.95 0 3.26 2.28M595.37 707.7s3.29-.06 3.9 2.94"/></g><g class="cls-49"><path class="cls-50" d="M1331.41 821.78l-.8.61s3 2.09 3.5 3.75 1.19 4 1.19 4 2.87-.43 3.06-4.09-6.95-4.27-6.95-4.27zM1345.08 826.52a2.43 2.43 0 0 0-2.14 2.35c-.08 2.13 2.87-.89 2.87-.89a1.89 1.89 0 0 0 .36-1.32c-.09-.77-1.09-.14-1.09-.14zM1336.4 815.22l-2.23-1.14 7.39-5.36s2.36-1.55 6.25 2.68-11.41 3.82-11.41 3.82z"/><path class="cls-51" d="M1320.1 811.21a.41.41 0 0 1 .59-.5 23 23 0 0 1 6.85 6.28c2.46 3.88 8.6-2.33 12.12-3.51s10.05-3 14.84-2.28c4.25.63 7.89 3.14 8.77 7.34a.56.56 0 0 1-.17.53l-1.87 1.48 1.25.5c.94.58 2 .95.51 2.73a14.18 14.18 0 0 1-7.84 4.13c-3.09.32-10.71.32-13.78-1-7.53-3.15-12.11-8-14.07-4.55a10.07 10.07 0 0 1-3.64 3.54 17.64 17.64 0 0 1-3.37 1.65.41.41 0 0 1-.52-.55l1.23-2.89a13.55 13.55 0 0 0 .15-10.28z"/><path class="cls-52" d="M1329 819.47s.52-.62 3-.24 3.66.49 5.4 0 6.25-1.89 7.53-2.14c1.73-.34 4.94.6 6.15.88a8.6 8.6 0 0 0 3.64 0s-.22 1.67-.26 2.39a11.08 11.08 0 0 1-3.39-.84c-1.34-.59-4.09-1.47-6-1.1s-6.19 1.82-7.57 2.11a23.6 23.6 0 0 1-5.53-.09c-1.32-.2-3-.74-3.85.19a2.46 2.46 0 0 1 .88-1.16z"/><path class="cls-53" d="M1332.72 822.42a50 50 0 0 0 8.57 2.73c3.52.6 6.81.79 13.61-.47 0 0-.11.8 1.1 3.09a35 35 0 0 1-9.58.12 20 20 0 0 1-4-.63 43.77 43.77 0 0 1-9.7-4.84z"/><path class="cls-50" d="M1346.09 822.64s2.22-1.76 4.13-.9c0 0 1 .17.67 1s-2.39.91-2.39.91z"/><path class="cls-33" d="M1324.73 813.75a12.51 12.51 0 0 1 2.81 3.23c2.42 3.9 7.82-1.83 12.12-3.51 3-1.18 10.05-3 14.84-2.28 4.06.6 7.87 3.2 8.82 7.07.44 1.79-3.38 1.15-4.76 1.49-.95.23-1.95.46-2.17 1.86a12.31 12.31 0 0 0 1 5.74l-1.35.42c-.17 0-1.42-2.62-1.54-5.61a20.69 20.69 0 0 1 .44-5c-.18-2-4.57-1.46-6.87-1.58-4.86-.26-7.51 2.38-13.81 3.71-1.54.33-4-.68-5.23.19s-.59 1-1.57 2.71a5.79 5.79 0 0 1-1.92 2.42l-.28.2s.57-3.25.76-4.85a6.75 6.75 0 0 0 0-1.81z"/><ellipse class="cls-52" cx="1358.6" cy="817.24" rx="1.69" ry=".75" transform="rotate(-89.08 1358.553 817.255)"/><circle class="cls-33" cx="1358.6" cy="817.24" r=".44" transform="rotate(-89.08 1358.553 817.255)"/><path class="cls-54" d="M1336.2 812.6s1.94-.25 2.36 1.35M1337.87 811.37s2.48-.1 2.73 1.74M1339.58 810.15s2.95 0 3.26 2.28M1341.27 808.92s3.29-.06 3.9 2.94"/></g><g class="cls-49"><path class="cls-50" d="M2895.74 849.57l-.8.61s3 2.09 3.5 3.75 1.19 4 1.19 4 2.87-.43 3.06-4.09-6.95-4.27-6.95-4.27zM2909.4 854.31a2.43 2.43 0 0 0-2.14 2.35c-.08 2.13 2.87-.89 2.87-.89a1.89 1.89 0 0 0 .36-1.32c-.08-.77-1.09-.14-1.09-.14zM2900.73 843l-2.23-1.14 7.39-5.36s2.36-1.55 6.25 2.68-11.41 3.82-11.41 3.82z"/><path class="cls-51" d="M2884.43 839a.41.41 0 0 1 .59-.5 23 23 0 0 1 6.85 6.28c2.46 3.88 8.6-2.33 12.12-3.51s10.05-3 14.84-2.28c4.25.63 7.89 3.14 8.77 7.34a.56.56 0 0 1-.17.53l-1.87 1.48 1.25.5c.94.58 2 .95.51 2.73a14.18 14.18 0 0 1-7.84 4.13c-3.09.32-10.71.32-13.78-1-7.53-3.15-12.11-8-14.07-4.55a10.07 10.07 0 0 1-3.64 3.54 17.64 17.64 0 0 1-3.37 1.65.41.41 0 0 1-.52-.55l1.23-2.89a13.55 13.55 0 0 0 .15-10.28z"/><path class="cls-52" d="M2893.31 847.26s.52-.62 3-.24 3.66.49 5.4 0 6.25-1.89 7.53-2.14c1.73-.34 4.94.6 6.15.88a8.6 8.6 0 0 0 3.64 0s-.22 1.67-.26 2.39a11.08 11.08 0 0 1-3.39-.84c-1.34-.59-4.09-1.47-6-1.1s-6.19 1.82-7.57 2.11a23.6 23.6 0 0 1-5.53-.09c-1.32-.2-3-.74-3.85.19a2.46 2.46 0 0 1 .88-1.16z"/><path class="cls-53" d="M2897.05 850.21a50 50 0 0 0 8.57 2.73c3.52.6 6.81.79 13.61-.47 0 0-.11.8 1.1 3.09a35 35 0 0 1-9.58.12 20 20 0 0 1-4-.63 43.77 43.77 0 0 1-9.7-4.84z"/><path class="cls-50" d="M2910.42 850.43s2.22-1.76 4.13-.9c0 0 1 .17.67 1s-2.39.91-2.39.91z"/><path class="cls-33" d="M2889.06 841.54a12.51 12.51 0 0 1 2.81 3.23c2.42 3.9 7.82-1.83 12.12-3.51 3-1.18 10.05-3 14.84-2.28 4.06.6 7.87 3.2 8.82 7.07.44 1.79-3.38 1.15-4.76 1.49-.95.23-1.95.46-2.17 1.86a12.31 12.31 0 0 0 1 5.74l-1.35.42c-.17 0-1.42-2.62-1.54-5.61a20.69 20.69 0 0 1 .44-5c-.18-2-4.57-1.46-6.87-1.58-4.86-.26-7.51 2.38-13.81 3.71-1.54.33-4-.68-5.23.19s-.59 1-1.57 2.71a5.79 5.79 0 0 1-1.92 2.42l-.28.2s.57-3.25.76-4.85a6.75 6.75 0 0 0 0-1.81z"/><ellipse class="cls-52" cx="2922.92" cy="845.03" rx="1.69" ry=".75" transform="rotate(-89.08 2922.853 845.072)"/><circle class="cls-33" cx="2922.92" cy="845.03" r=".44" transform="rotate(-89.08 2922.853 845.072)"/><path class="cls-54" d="M2900.52 840.39s1.94-.25 2.36 1.35M2902.2 839.16s2.48-.1 2.73 1.74M2903.9 837.94s2.95 0 3.26 2.28M2905.6 836.71s3.29-.06 3.9 2.94"/></g><g class="cls-49"><path class="cls-50" d="M3489.8 813.56l-.8.61s3 2.09 3.5 3.75 1.19 4 1.19 4 2.87-.43 3.06-4.09-6.95-4.27-6.95-4.27zM3503.46 818.3a2.43 2.43 0 0 0-2.14 2.35c-.08 2.13 2.87-.89 2.87-.89a1.89 1.89 0 0 0 .36-1.32c-.08-.76-1.09-.14-1.09-.14zM3494.79 807l-2.23-1.14 7.39-5.36s2.36-1.55 6.25 2.68-11.41 3.82-11.41 3.82z"/><path class="cls-51" d="M3478.49 803a.41.41 0 0 1 .59-.5 23 23 0 0 1 6.85 6.28c2.46 3.88 8.6-2.33 12.12-3.51s10.05-3 14.84-2.28c4.25.63 7.89 3.14 8.77 7.34a.56.56 0 0 1-.17.53l-1.87 1.48 1.25.5c.94.58 2 .95.51 2.73a14.18 14.18 0 0 1-7.84 4.13c-3.09.32-10.71.32-13.78-1-7.53-3.15-12.11-8-14.07-4.55a10.07 10.07 0 0 1-3.64 3.54 17.64 17.64 0 0 1-3.37 1.65.41.41 0 0 1-.52-.55l1.23-2.89a13.55 13.55 0 0 0 .15-10.28z"/><path class="cls-52" d="M3487.37 811.26s.52-.62 3-.24 3.66.49 5.4 0 6.25-1.89 7.53-2.14c1.73-.34 4.94.6 6.15.88a8.6 8.6 0 0 0 3.64 0s-.22 1.67-.26 2.39a11.08 11.08 0 0 1-3.39-.84c-1.34-.59-4.09-1.47-6-1.1s-6.19 1.82-7.57 2.11a23.6 23.6 0 0 1-5.53-.09c-1.32-.2-3-.74-3.85.19a2.46 2.46 0 0 1 .88-1.16z"/><path class="cls-53" d="M3491.11 814.21a50 50 0 0 0 8.57 2.73c3.52.6 6.81.79 13.61-.47 0 0-.11.8 1.1 3.09a35 35 0 0 1-9.58.12 20 20 0 0 1-4-.63 43.77 43.77 0 0 1-9.7-4.84z"/><path class="cls-50" d="M3504.48 814.43s2.22-1.76 4.13-.9c0 0 1 .17.67 1s-2.39.91-2.39.91z"/><path class="cls-33" d="M3483.12 805.54a12.51 12.51 0 0 1 2.81 3.23c2.42 3.9 7.82-1.83 12.12-3.51 3-1.18 10.05-3 14.84-2.28 4.06.6 7.87 3.2 8.82 7.07.44 1.79-3.38 1.15-4.76 1.49-.95.23-1.95.46-2.17 1.86a12.31 12.31 0 0 0 1 5.74l-1.35.42c-.17 0-1.42-2.62-1.54-5.61a20.69 20.69 0 0 1 .44-5c-.18-2-4.57-1.46-6.87-1.58-4.86-.26-7.51 2.38-13.81 3.71-1.54.33-4-.68-5.23.19s-.59 1-1.57 2.71a5.79 5.79 0 0 1-1.92 2.42l-.28.2s.57-3.25.76-4.85a6.75 6.75 0 0 0 0-1.81z"/><ellipse class="cls-52" cx="3516.98" cy="809.03" rx="1.69" ry=".75" transform="rotate(-89.08 3516.904 809.08)"/><circle class="cls-33" cx="3516.98" cy="809.03" r=".44" transform="rotate(-89.08 3516.904 809.08)"/><path class="cls-54" d="M3494.58 804.39s1.94-.25 2.36 1.35M3496.26 803.16s2.48-.1 2.73 1.74M3498 801.93s2.95 0 3.26 2.28M3499.66 800.71s3.29-.06 3.9 2.94"/></g><g class="cls-49"><path class="cls-50" d="M4512.9 810.56l-.8.61s3 2.09 3.5 3.75 1.19 4 1.19 4 2.87-.43 3.06-4.09-6.95-4.27-6.95-4.27zM4526.57 815.3a2.43 2.43 0 0 0-2.14 2.35c-.08 2.13 2.87-.89 2.87-.89a1.89 1.89 0 0 0 .36-1.32c-.09-.76-1.09-.14-1.09-.14zM4517.89 804l-2.23-1.14 7.39-5.36s2.36-1.55 6.25 2.68-11.41 3.82-11.41 3.82z"/><path class="cls-51" d="M4501.59 800a.41.41 0 0 1 .59-.5 23 23 0 0 1 6.85 6.28c2.46 3.88 8.6-2.33 12.12-3.51s10.05-3 14.84-2.28c4.25.63 7.89 3.14 8.77 7.34a.56.56 0 0 1-.17.53l-1.87 1.48 1.25.5c.94.58 2 .95.51 2.73a14.18 14.18 0 0 1-7.84 4.13c-3.09.32-10.71.32-13.78-1-7.53-3.15-12.11-8-14.07-4.55a10.07 10.07 0 0 1-3.64 3.54 17.64 17.64 0 0 1-3.37 1.65.41.41 0 0 1-.52-.55l1.23-2.89a13.55 13.55 0 0 0 .15-10.28z"/><path class="cls-52" d="M4510.48 808.26s.52-.62 3-.24 3.66.49 5.4 0 6.25-1.89 7.53-2.14c1.73-.34 4.94.6 6.15.88a8.6 8.6 0 0 0 3.64 0s-.22 1.67-.26 2.39a11.08 11.08 0 0 1-3.39-.84c-1.34-.59-4.09-1.47-6-1.1s-6.19 1.82-7.57 2.11a23.6 23.6 0 0 1-5.53-.09c-1.32-.2-3-.74-3.85.19a2.46 2.46 0 0 1 .88-1.16z"/><path class="cls-53" d="M4514.21 811.21a50 50 0 0 0 8.57 2.73c3.52.6 6.81.79 13.61-.47 0 0-.11.8 1.1 3.09a35 35 0 0 1-9.58.12 20 20 0 0 1-4-.63 43.77 43.77 0 0 1-9.7-4.84z"/><path class="cls-50" d="M4527.58 811.42s2.22-1.76 4.13-.9c0 0 1 .17.67 1s-2.39.91-2.39.91z"/><path class="cls-33" d="M4506.22 802.54a12.51 12.51 0 0 1 2.81 3.23c2.42 3.9 7.82-1.83 12.12-3.51 3-1.18 10.05-3 14.84-2.28 4.06.6 7.87 3.2 8.82 7.07.44 1.79-3.38 1.15-4.76 1.49-.95.23-1.95.46-2.17 1.86a12.31 12.31 0 0 0 1 5.74l-1.35.42c-.17 0-1.42-2.62-1.54-5.61a20.69 20.69 0 0 1 .44-5c-.18-2-4.57-1.46-6.87-1.58-4.86-.26-7.51 2.38-13.81 3.71-1.54.33-4-.68-5.23.19s-.59 1-1.57 2.71a5.79 5.79 0 0 1-1.92 2.42l-.28.2s.57-3.25.76-4.85a6.75 6.75 0 0 0 0-1.81z"/><ellipse class="cls-52" cx="4540.09" cy="806.03" rx="1.69" ry=".75" transform="rotate(-89.08 4539.99 806.098)"/><circle class="cls-33" cx="4540.09" cy="806.03" r=".44" transform="rotate(-89.08 4539.99 806.098)"/><path class="cls-54" d="M4517.69 801.39s1.94-.25 2.36 1.35M4519.36 800.16s2.48-.1 2.73 1.74M4521.07 798.93s2.95 0 3.26 2.28M4522.76 797.71s3.29-.06 3.9 2.94"/></g><g class="cls-49"><path class="cls-50" d="M5463.73 776.72l-.8.61s3 2.09 3.5 3.75 1.19 4 1.19 4 2.87-.43 3.06-4.09-6.95-4.27-6.95-4.27zM5477.39 781.46a2.43 2.43 0 0 0-2.14 2.35c-.08 2.13 2.87-.89 2.87-.89a1.89 1.89 0 0 0 .36-1.32c-.09-.77-1.09-.14-1.09-.14zM5468.71 770.16l-2.23-1.14 7.39-5.36s2.36-1.55 6.25 2.68-11.41 3.82-11.41 3.82z"/><path class="cls-51" d="M5452.42 766.15a.41.41 0 0 1 .59-.5 23 23 0 0 1 6.85 6.28c2.46 3.88 8.6-2.33 12.12-3.51s10.05-3 14.84-2.28c4.25.63 7.89 3.14 8.77 7.34a.56.56 0 0 1-.17.53l-1.87 1.48 1.25.5c.94.58 2 .95.51 2.73a14.18 14.18 0 0 1-7.84 4.13c-3.09.32-10.71.32-13.78-1-7.53-3.15-12.11-8-14.07-4.55a10.07 10.07 0 0 1-3.64 3.54 17.64 17.64 0 0 1-3.37 1.65.41.41 0 0 1-.52-.55l1.23-2.89a13.55 13.55 0 0 0 .15-10.28z"/><path class="cls-52" d="M5461.3 774.41s.52-.62 3-.24 3.66.49 5.4 0 6.25-1.89 7.53-2.14c1.73-.34 4.94.6 6.15.88a8.6 8.6 0 0 0 3.64 0s-.22 1.67-.26 2.39a11.08 11.08 0 0 1-3.39-.84c-1.34-.59-4.09-1.47-6-1.1s-6.19 1.82-7.57 2.11a23.6 23.6 0 0 1-5.53-.09c-1.32-.2-3-.74-3.85.19a2.46 2.46 0 0 1 .88-1.16z"/><path class="cls-53" d="M5465 777.36a50 50 0 0 0 8.57 2.73c3.52.6 6.81.79 13.61-.47 0 0-.11.8 1.1 3.09a35 35 0 0 1-9.58.12 20 20 0 0 1-4-.63 43.77 43.77 0 0 1-9.7-4.84z"/><path class="cls-50" d="M5478.41 777.58s2.22-1.76 4.13-.9c0 0 1 .17.67 1s-2.39.91-2.39.91z"/><path class="cls-33" d="M5457 768.69a12.51 12.51 0 0 1 2.81 3.23c2.42 3.9 7.82-1.83 12.12-3.51 3-1.18 10.05-3 14.84-2.28 4.06.6 7.87 3.2 8.82 7.07.44 1.79-3.38 1.15-4.76 1.49-.95.23-1.95.46-2.17 1.86a12.31 12.31 0 0 0 1 5.74l-1.35.42c-.17 0-1.42-2.62-1.54-5.61a20.69 20.69 0 0 1 .44-5c-.18-2-4.57-1.46-6.87-1.58-4.86-.26-7.51 2.38-13.81 3.71-1.54.33-4-.68-5.23.19s-.59 1-1.57 2.71a5.79 5.79 0 0 1-1.92 2.42l-.28.2s.57-3.25.76-4.85a6.75 6.75 0 0 0 0-1.81z"/><ellipse class="cls-52" cx="5490.91" cy="772.18" rx="1.69" ry=".75" transform="rotate(-89.08 5490.8 772.268)"/><circle class="cls-33" cx="5490.91" cy="772.18" r=".44" transform="rotate(-89.08 5490.8 772.268)"/><path class="cls-54" d="M5468.51 767.54s1.94-.25 2.36 1.35M5470.18 766.31s2.48-.1 2.73 1.74M5471.89 765.09s2.95 0 3.26 2.28M5473.59 763.86s3.29-.06 3.9 2.94"/></g><g class="cls-49"><path class="cls-50" d="M2187.67 780.56l-.8.61s3 2.09 3.5 3.75 1.19 4 1.19 4 2.87-.43 3.06-4.09-6.95-4.27-6.95-4.27zM2201.33 785.3a2.43 2.43 0 0 0-2.14 2.35c-.08 2.13 2.87-.89 2.87-.89a1.89 1.89 0 0 0 .36-1.32c-.08-.77-1.09-.14-1.09-.14zM2192.66 774l-2.23-1.14 7.39-5.36s2.36-1.55 6.25 2.68-11.41 3.82-11.41 3.82z"/><path class="cls-51" d="M2176.36 770a.41.41 0 0 1 .59-.5 23 23 0 0 1 6.85 6.28c2.46 3.88 8.6-2.33 12.12-3.51s10.05-3 14.84-2.28c4.25.63 7.89 3.14 8.77 7.34a.56.56 0 0 1-.17.53l-1.87 1.48 1.25.5c.94.58 2 .95.51 2.73a14.18 14.18 0 0 1-7.84 4.13c-3.09.32-10.71.32-13.78-1-7.53-3.15-12.11-8-14.07-4.55a10.07 10.07 0 0 1-3.64 3.54 17.64 17.64 0 0 1-3.37 1.65.41.41 0 0 1-.52-.55l1.23-2.89a13.55 13.55 0 0 0 .15-10.28z"/><path class="cls-52" d="M2185.24 778.26s.52-.62 3-.24 3.66.49 5.4 0 6.25-1.89 7.53-2.14c1.73-.34 4.94.6 6.15.88a8.6 8.6 0 0 0 3.64 0s-.22 1.67-.26 2.39a11.08 11.08 0 0 1-3.39-.84c-1.34-.59-4.09-1.47-6-1.1s-6.19 1.82-7.57 2.11a23.6 23.6 0 0 1-5.53-.09c-1.32-.2-3-.74-3.85.19a2.46 2.46 0 0 1 .88-1.16z"/><path class="cls-53" d="M2189 781.21a50 50 0 0 0 8.57 2.73c3.52.6 6.81.79 13.61-.47 0 0-.11.8 1.1 3.09a35 35 0 0 1-9.58.12 20 20 0 0 1-4-.63 43.77 43.77 0 0 1-9.7-4.84z"/><path class="cls-50" d="M2202.35 781.42s2.22-1.76 4.13-.9c0 0 1 .17.67 1s-2.39.91-2.39.91z"/><path class="cls-33" d="M2181 772.54a12.51 12.51 0 0 1 2.81 3.23c2.42 3.9 7.82-1.83 12.12-3.51 3-1.18 10.05-3 14.84-2.28 4.06.6 7.87 3.2 8.82 7.07.44 1.79-3.38 1.15-4.76 1.49-.95.23-1.95.46-2.17 1.86a12.31 12.31 0 0 0 1 5.74l-1.35.42c-.17 0-1.42-2.62-1.54-5.61a20.69 20.69 0 0 1 .44-5c-.18-2-4.57-1.46-6.87-1.58-4.86-.26-7.51 2.38-13.81 3.71-1.54.33-4-.68-5.23.19s-.59 1-1.57 2.71a5.79 5.79 0 0 1-1.92 2.42l-.28.2s.57-3.25.76-4.85a6.75 6.75 0 0 0 0-1.81z"/><ellipse class="cls-52" cx="2214.85" cy="776.03" rx="1.69" ry=".75" transform="rotate(-89.08 2214.794 776.052)"/><circle class="cls-33" cx="2214.85" cy="776.03" r=".44" transform="rotate(-89.08 2214.794 776.052)"/><path class="cls-54" d="M2192.45 771.38s1.94-.25 2.36 1.35M2194.13 770.16s2.48-.1 2.73 1.74M2195.83 768.93s2.95 0 3.26 2.28M2197.53 767.71s3.29-.06 3.9 2.94"/></g><path class="cls-55" d="M-2.57 1047.4h1970.55v31.15H-2.57z"/><path class="cls-55" d="M1967.97 1047.4h1970.55v31.15H1967.97zM3938.52 1047.4h1970.55v31.15H3938.52z"/><g class="cls-38"><path class="cls-39" d="M2102.53 940.53s.41-11.78-1.58-18.11c0 0 1.45-.37 4 7.67 0 0 .12-29.06 8.69-29.06 0 0-4.58 4-4.58 39.5"/><path class="cls-40" d="M2112.75 919.4s-2.57 6.1-2.57 21.13h-5.69s1-28.43-3.54-42.93c0 0 6.68 10.43 6.68 32.49.01 0 1.49-10.69 5.12-10.69z"/><path class="cls-40" d="M2086.3 940.53s.62-17.81-2.39-27.38c0 0 2.2-.56 6 11.59 0 0 .18-43.92 13.14-43.92 0 0-6.92 6-6.92 59.71"/><path class="cls-41" d="M2101.74 908.59s-3.88 9.23-3.88 31.94h-8.6s1.55-43-5.35-64.9c0 0 10.1 15.76 10.1 49.11-.01 0 2.25-16.15 7.73-16.15z"/><path class="cls-39" d="M2135.62 941.51s.41-11.78-1.58-18.11c0 0 1.45-.37 4 7.67 0 0 .12-29.06 8.69-29.06 0 0-4.58 4-4.58 39.5"/><path class="cls-40" d="M2145.84 920.38s-2.57 6.1-2.57 21.13h-5.69s1-28.43-3.54-42.93c0 0 6.68 10.43 6.68 32.49 0-.01 1.48-10.69 5.12-10.69z"/></g></g></g></svg>