<svg xmlns="http://www.w3.org/2000/svg" viewBox="0 0 5909 1080"><defs><style>.cls-1{isolation:isolate;}.cls-2{fill:#d1ebec;}.cls-3{opacity:0.75;}.cls-4{fill:#1f2225;}.cls-5{fill:#353b41;}.cls-6{fill:#1f252c;}.cls-22,.cls-7{fill:#b6b6b6;}.cls-35,.cls-7{stroke:#1f252c;}.cls-13,.cls-15,.cls-17,.cls-20,.cls-27,.cls-29,.cls-30,.cls-31,.cls-32,.cls-35,.cls-36,.cls-54,.cls-7,.cls-9{stroke-miterlimit:10;}.cls-7{stroke-width:0.33px;}.cls-8{fill:#e6e6e6;}.cls-13,.cls-15,.cls-17,.cls-20,.cls-27,.cls-29,.cls-30,.cls-31,.cls-32,.cls-35,.cls-36,.cls-54,.cls-9{fill:none;}.cls-17,.cls-9{stroke:#1f2225;}.cls-13,.cls-9{stroke-width:0.25px;}.cls-10{fill:#ea6159;}.cls-11{fill:#f2f2f2;}.cls-12{fill:#4c5156;}.cls-13{stroke:#64696d;}.cls-14{fill:#ed7771;}.cls-15{stroke:#e6e6e6;}.cls-15,.cls-17,.cls-20{stroke-width:0.51px;}.cls-16{fill:#cecece;}.cls-18{fill:#bcbebf;}.cls-19{fill:#e5e0dc;}.cls-20{stroke:#bdbfc0;}.cls-21{fill:#fc734c;}.cls-23{fill:#335d8f;}.cls-24{fill:#194881;}.cls-25{fill:#fff;}.cls-26{fill:#99aec7;}.cls-27,.cls-29,.cls-30,.cls-36{stroke:#fff;}.cls-27{stroke-width:1.01px;}.cls-28,.cls-54{mix-blend-mode:soft-light;}.cls-29,.cls-31,.cls-32{stroke-linecap:round;}.cls-29{stroke-width:2.39px;}.cls-30{stroke-width:0.42px;}.cls-31,.cls-32{stroke:#194881;}.cls-31{stroke-width:3.35px;}.cls-32{stroke-width:1.68px;}.cls-33{fill:#003473;}.cls-34{fill:#6685ab;}.cls-35,.cls-36{stroke-width:0.84px;}.cls-37{fill:#33b5b8;}.cls-38,.cls-53{opacity:0.5;}.cls-39{fill:#4c77a2;}.cls-40{fill:#336495;}.cls-41{fill:#195187;}.cls-42{fill:#ccc7c2;}.cls-43{opacity:0.45;}.cls-44,.cls-55{fill:#7f7366;}.cls-44{opacity:0.62;}.cls-45{fill:#e2e0ca;}.cls-46{fill:#bfb9b2;}.cls-47{fill:#a59d94;}.cls-48{opacity:0.7;}.cls-49{opacity:0.25;}.cls-50,.cls-53{fill:#189ca1;}.cls-51{fill:#4c719d;}.cls-52{fill:#8099b9;}.cls-54{stroke:#003473;stroke-width:0.14px;}</style></defs><title>Artboard 1 copy 21x</title><g class="cls-1"><g id="Layer_1" data-name="Layer 1"><rect class="cls-2" x="-1.16" y="3.07" width="5910.16" height="1078.38"/><g class="cls-3"><polygon class="cls-4" points="167.4 409.23 163.95 409.38 166.04 399.41 176.61 394.41 187.32 393.93 187.56 399.27 188.75 408.27 167.4 409.23"/><path class="cls-5" d="M185.61,411.3s0-13.05-10.27-12.59-9.52,13.48-9.52,13.48l-1.74.08.79-11.95,4.24-4.91,18.24-.44.11,2.56-6,.27s5.75,1.79,6.27,13.4Z"/><circle class="cls-6" cx="175.79" cy="408.53" r="8.41" transform="matrix(1, -0.04, 0.04, 1, -18.15, 8.3)"/><circle class="cls-7" cx="175.79" cy="408.53" r="5.44" transform="matrix(1, -0.04, 0.04, 1, -18.15, 8.3)"/><path class="cls-4" d="M159.48,368.28l-3,.14c-.57,0-1.06.54-1.26,1.32l-.31,1.21,4.72-.21Z"/><path class="cls-6" d="M173.13,407.8c.05-.18.49-.23,1-.09a1.73,1.73,0,0,1,.66.32,1.13,1.13,0,0,1,.75-.6,1.74,1.74,0,0,1-.17-.71c0-.51.11-.92.31-.93s.37.39.39.9a1.74,1.74,0,0,1-.1.72,1.13,1.13,0,0,1,.8.53,1.73,1.73,0,0,1,.63-.38c.47-.18.91-.18,1,0s-.26.47-.74.65a1.73,1.73,0,0,1-.72.13,1,1,0,0,1-.25.93,1.72,1.72,0,0,1,.55.48c.32.4.45.81.3.93s-.53-.1-.84-.5a1.74,1.74,0,0,1-.34-.65,1.11,1.11,0,0,1-1,0,1.74,1.74,0,0,1-.28.67c-.28.42-.64.68-.8.57s-.06-.53.22-1a1.72,1.72,0,0,1,.51-.53,1,1,0,0,1-.34-.9,1.73,1.73,0,0,1-.73-.06C173.44,408.25,173.08,408,173.13,407.8Z"/><ellipse class="cls-6" cx="172.75" cy="410.92" rx="0.39" ry="1.02" transform="translate(-265.36 328.71) rotate(-56.57)"/><ellipse class="cls-6" cx="179.02" cy="410.64" rx="1.02" ry="0.39" transform="translate(-216.97 201.21) rotate(-38.57)"/><polygon class="cls-8" points="154.39 386.27 156.53 370.88 161.93 370.63 154.39 386.27"/><ellipse class="cls-6" cx="172.52" cy="405.93" rx="1.02" ry="0.39" transform="translate(-215.45 196.12) rotate(-38.57)"/><ellipse class="cls-6" cx="178.8" cy="405.64" rx="0.39" ry="1.02" transform="translate(-258.24 331.4) rotate(-56.57)"/><circle class="cls-9" cx="175.79" cy="408.53" r="7.88" transform="matrix(1, -0.04, 0.04, 1, -18.15, 8.3)"/><path class="cls-10" d="M187.73,355.81l-10.54,3.36L161,359.9a6.47,6.47,0,0,0-4.29,1.9l-.09.09a6.47,6.47,0,0,0-1.88,4.86l.1,2.21,4.72-.21.21,4.72-4.6,10.62A13.29,13.29,0,0,0,154,390l.21,4.59a2.1,2.1,0,0,1-.44,1.39h0a2.1,2.1,0,0,0-.44,1.39l.07,1.64a8,8,0,0,0,2.7,5.64h0l-.24.21a3.26,3.26,0,0,0-1.07,2.57l.09,2a3.26,3.26,0,0,0,3.4,3.11l4.39-.2a2.24,2.24,0,0,0,1.82-1.08l.93-5.61a11.09,11.09,0,0,1,10.44-9.27l16.67-.75L190.88,358A2.42,2.42,0,0,0,187.73,355.81Z"/><rect class="cls-11" x="169.94" y="392.87" width="3.64" height="0.59" transform="translate(360.98 778.23) rotate(177.43)"/><rect class="cls-12" x="169.98" y="393.46" width="3.64" height="1.17" transform="translate(361.09 779.98) rotate(177.43)"/><line class="cls-13" x1="177.19" y1="359.17" x2="177.66" y2="369.55"/><line class="cls-13" x1="175.24" y1="396.42" x2="174.04" y2="369.71"/><path class="cls-13" d="M158.69,402.83l-.64-14.14a14.13,14.13,0,0,1,.24-3.3l1.27-6.58a14.25,14.25,0,0,0,.24-3.33l-.23-5.11,23.82-1.07a2.82,2.82,0,0,1,2.94,2.69l1.07,23.88"/><path class="cls-14" d="M182.57,371.13l-4.95.22a1.7,1.7,0,0,0-1.62,1.77l.28,6.31a1.7,1.7,0,0,0,2.15,1.56l4.9-1.37a1.7,1.7,0,0,0,1.24-1.71l-.23-5.17A1.7,1.7,0,0,0,182.57,371.13Z"/><polyline class="cls-15" points="159.78 377.02 158.48 379.21 158.75 385.24"/><rect class="cls-4" x="187.34" y="398.6" width="13.29" height="10.07" transform="translate(405.88 798.17) rotate(177.43)"/><path class="cls-4" d="M155.78,403l-.25-5.61A1.33,1.33,0,0,1,156.8,396l.31,6.93,9.37-.42-.68,1.69-9.67.43a8.39,8.39,0,0,1-1.39-1.6Z"/><path class="cls-5" d="M190.14,399.36H192a5.69,5.69,0,0,1,5.69,5.69V411a0,0,0,0,1,0,0h-7.58a2.32,2.32,0,0,1-2.32-2.32v-7a2.32,2.32,0,0,1,2.32-2.32Z" transform="translate(403.53 801.27) rotate(177.43)"/><rect class="cls-16" x="198.53" y="398.14" width="25.87" height="12.33" rx="2.81" ry="2.81" transform="translate(440.84 798.72) rotate(177.43)"/><rect class="cls-8" x="199.35" y="398.85" width="24.22" height="10.9" rx="2.55" ry="2.55" transform="translate(440.84 798.72) rotate(177.43)"/><line class="cls-17" x1="220.21" y1="396.88" x2="220.84" y2="410.91"/><line class="cls-17" x1="211.15" y1="397.29" x2="211.77" y2="411.32"/><line class="cls-17" x1="202.08" y1="397.7" x2="202.71" y2="411.72"/><rect class="cls-18" x="196.27" y="349.76" width="73.87" height="44.24" rx="1.44" ry="1.44" transform="translate(482.86 732.92) rotate(177.43)"/><path class="cls-19" d="M197.84,351.42H265.5a2.16,2.16,0,0,1,2.16,2.16v33.13a2.16,2.16,0,0,1-2.16,2.16H197.84a0,0,0,0,1,0,0V351.42A0,0,0,0,1,197.84,351.42Z" transform="translate(481.87 729.47) rotate(177.43)"/><line class="cls-20" x1="209.07" y1="389.95" x2="207.39" y2="352.54"/><line class="cls-20" x1="219.88" y1="389.46" x2="218.2" y2="352.06"/><line class="cls-20" x1="230.68" y1="388.98" x2="229" y2="351.57"/><circle class="cls-19" cx="201.65" cy="393.02" r="1.49" transform="translate(-17.43 9.44) rotate(-2.57)"/><circle class="cls-21" cx="201.65" cy="393.02" r="0.9" transform="translate(-17.43 9.44) rotate(-2.57)"/><circle class="cls-19" cx="222.37" cy="392.09" r="1.49" transform="matrix(1, -0.04, 0.04, 1, -17.36, 10.37)"/><circle class="cls-21" cx="222.37" cy="392.09" r="0.9" transform="translate(-17.36 10.37) rotate(-2.57)"/><path class="cls-22" d="M159.4,374h.19a1.11,1.11,0,0,1,1.11,1.11v5.09a1.11,1.11,0,0,1-1.11,1.11h-.19a0,0,0,0,1,0,0V374a0,0,0,0,1,0,0Z" transform="translate(336.87 747.71) rotate(177.43)"/><path class="cls-8" d="M165.89,385.06l-1.42.4a2.37,2.37,0,0,1-3-2.18l-.1-2.26c.59.65,1.2,1.28,1.85,1.87A28.67,28.67,0,0,0,165.89,385.06Z"/><path class="cls-8" d="M163.33,372l2.49-.11c.34.47.69.93,1.05,1.37a29.14,29.14,0,0,0,2.64,2.75,28.66,28.66,0,0,0,3,2.38l.44.29.11,2.49a2.37,2.37,0,0,1-.76,1.85,19.35,19.35,0,0,0-1.77-2.46,28.65,28.65,0,0,0-2.64-2.74,29.2,29.2,0,0,0-3-2.38,17.62,17.62,0,0,0-3.41-1.9,17.64,17.64,0,0,0,2.2,3.22,29.2,29.2,0,0,0,2.64,2.75,28.66,28.66,0,0,0,3,2.38,19.73,19.73,0,0,0,2.49,1.49,2.37,2.37,0,0,1-.47.19l-3.46,1-.46-.57a28.66,28.66,0,0,0-2.64-2.74,29.14,29.14,0,0,0-3-2.38l-.53-.35-.18-4A2.37,2.37,0,0,1,163.33,372Z"/><path class="cls-8" d="M168.09,371.93l-.2-.14,2.36-.11a2.37,2.37,0,0,1,2.48,2.26l.1,2.12c-.56-.61-1.14-1.2-1.75-1.76A29.14,29.14,0,0,0,168.09,371.93Z"/><path class="cls-22" d="M169.51,376a29.14,29.14,0,0,1-2.64-2.75c-.37-.44-.72-.89-1.05-1.37l2.06-.09.2.14a29.14,29.14,0,0,1,3,2.38c.61.56,1.19,1.15,1.75,1.76l.12,2.61-.44-.29A28.66,28.66,0,0,1,169.51,376Z"/><path class="cls-22" d="M166.32,379.49a29.2,29.2,0,0,1-2.64-2.75,17.64,17.64,0,0,1-2.2-3.22,17.62,17.62,0,0,1,3.41,1.9,29.2,29.2,0,0,1,3,2.38,28.65,28.65,0,0,1,2.64,2.74,19.35,19.35,0,0,1,1.77,2.46,2.35,2.35,0,0,1-.5.35,19.73,19.73,0,0,1-2.49-1.49A28.66,28.66,0,0,1,166.32,379.49Z"/><path class="cls-22" d="M161.78,378.82a29.14,29.14,0,0,1,3,2.38,28.66,28.66,0,0,1,2.64,2.74l.46.57-2,.54a28.67,28.67,0,0,1-2.69-2.17c-.64-.59-1.25-1.22-1.85-1.87l-.11-2.56Z"/><polygon class="cls-4" points="487.02 394.88 490.47 394.72 487.5 384.98 476.52 380.94 465.81 381.43 466.05 386.76 465.67 395.83 487.02 394.88"/><path class="cls-5" d="M469.07,398.57s-1.14-13,9.1-13.46,10.69,12.57,10.69,12.57l1.74-.08-1.86-11.83-4.67-4.51-18.21,1.2L466,385l6-.27s-5.56,2.3-5,13.91Z"/><circle class="cls-6" cx="478.61" cy="394.94" r="8.41" transform="translate(-17.23 21.87) rotate(-2.57)"/><circle class="cls-7" cx="478.61" cy="394.94" r="5.44" transform="translate(-17.23 21.87) rotate(-2.57)"/><path class="cls-4" d="M491.24,353.39l3-.14a1.54,1.54,0,0,1,1.37,1.2l.42,1.18-4.72.21Z"/><path class="cls-6" d="M481.18,394c-.07-.18-.51-.18-1,0a1.73,1.73,0,0,0-.63.38,1.13,1.13,0,0,0-.8-.53,1.74,1.74,0,0,0,.1-.72c0-.51-.2-.91-.39-.9s-.33.43-.31.93a1.74,1.74,0,0,0,.17.71,1.13,1.13,0,0,0-.75.6,1.73,1.73,0,0,0-.66-.32c-.49-.13-.93-.09-1,.09s.3.44.79.58a1.73,1.73,0,0,0,.73.06,1,1,0,0,0,.34.9,1.72,1.72,0,0,0-.51.53c-.28.42-.38.85-.22,1s.52-.15.8-.57a1.74,1.74,0,0,0,.28-.67,1.11,1.11,0,0,0,1,0,1.74,1.74,0,0,0,.34.65c.32.4.69.62.84.5s0-.54-.3-.93a1.72,1.72,0,0,0-.55-.48,1,1,0,0,0,.25-.93,1.73,1.73,0,0,0,.72-.13C480.92,394.44,481.25,394.15,481.18,394Z"/><ellipse class="cls-6" cx="481.85" cy="397.04" rx="1.02" ry="0.39" transform="translate(-142.43 387.04) rotate(-38.57)"/><ellipse class="cls-6" cx="475.57" cy="397.33" rx="0.39" ry="1.02" transform="translate(-118.02 575.33) rotate(-56.57)"/><polygon class="cls-8" points="497.92 370.85 494.41 355.7 489.01 355.95 497.92 370.85"/><ellipse class="cls-6" cx="481.62" cy="392.05" rx="0.39" ry="1.02" transform="translate(-110.9 578.01) rotate(-56.57)"/><ellipse class="cls-6" cx="475.34" cy="392.33" rx="1.02" ry="0.39" transform="matrix(0.78, -0.62, 0.62, 0.78, -140.91, 381.96)"/><circle class="cls-9" cx="478.61" cy="394.94" r="7.88" transform="translate(-17.23 21.87) rotate(-2.57)"/><path class="cls-10" d="M462,343.5l10.79,2.4,16.24-.73a6.47,6.47,0,0,1,4.45,1.5l.1.08a6.47,6.47,0,0,1,2.31,4.67l.1,2.21-4.72.21.21,4.72L497,368.73a13.29,13.29,0,0,1,1.6,5.75l.21,4.59a2.1,2.1,0,0,0,.57,1.34h0a2.1,2.1,0,0,1,.57,1.34l.07,1.64a8,8,0,0,1-2.18,5.86h0l.25.19a3.26,3.26,0,0,1,1.3,2.46l.09,2a3.26,3.26,0,0,1-3.11,3.4l-4.39.2a2.24,2.24,0,0,1-1.91-.91l-1.43-5.5a11.09,11.09,0,0,0-11.23-8.29l-16.67.75L459,346A2.42,2.42,0,0,1,462,343.5Z"/><rect class="cls-11" x="479.42" y="378.98" width="3.64" height="0.59" transform="translate(-16.53 21.97) rotate(-2.57)"/><rect class="cls-12" x="479.46" y="379.56" width="3.64" height="1.17" transform="matrix(1, -0.04, 0.04, 1, -16.57, 21.97)"/><line class="cls-13" x1="472.78" y1="345.9" x2="473.25" y2="356.27"/><line class="cls-13" x1="478.06" y1="382.83" x2="476.86" y2="356.11"/><path class="cls-13" d="M495.12,387.72l-.64-14.14a14.13,14.13,0,0,0-.54-3.27l-1.85-6.44a14.25,14.25,0,0,1-.54-3.3l-.23-5.11-23.82,1.07a2.82,2.82,0,0,0-2.69,2.94l1.07,23.88"/><path class="cls-14" d="M468.5,358.29l4.95-.22a1.7,1.7,0,0,1,1.77,1.62l.28,6.31a1.7,1.7,0,0,1-2,1.75l-5-.92a1.7,1.7,0,0,1-1.39-1.59l-.23-5.17A1.7,1.7,0,0,1,468.5,358.29Z"/><polyline class="cls-15" points="491.72 362.11 493.21 364.18 493.48 370.21"/><rect class="cls-4" x="453.4" y="386.66" width="13.29" height="10.07" transform="translate(-17.11 21.03) rotate(-2.57)"/><path class="cls-4" d="M498,387.59l-.25-5.61a1.33,1.33,0,0,0-1.39-1.27l.31,6.93-9.37.42.83,1.62,9.67-.43a8.39,8.39,0,0,0,1.24-1.72Z"/><path class="cls-5" d="M458.75,387.3h7.58a0,0,0,0,1,0,0v5.93a5.69,5.69,0,0,1-5.69,5.69h-1.89a2.32,2.32,0,0,1-2.32-2.32v-7A2.32,2.32,0,0,1,458.75,387.3Z" transform="translate(-17.17 21.09) rotate(-2.57)"/><rect class="cls-16" x="429.76" y="387.75" width="25.87" height="12.33" rx="2.81" ry="2.81" transform="translate(-17.22 20.25) rotate(-2.57)"/><rect class="cls-8" x="430.59" y="388.47" width="24.22" height="10.9" rx="2.55" ry="2.55" transform="matrix(1, -0.04, 0.04, 1, -17.22, 20.25)"/><line class="cls-17" x1="433.31" y1="387.32" x2="433.94" y2="401.34"/><line class="cls-17" x1="442.38" y1="386.91" x2="443.01" y2="400.93"/><line class="cls-17" x1="451.45" y1="386.5" x2="452.08" y2="400.53"/><rect class="cls-18" x="381.2" y="341.46" width="73.87" height="44.24" rx="1.44" ry="1.44" transform="translate(-15.89 19.12) rotate(-2.57)"/><path class="cls-19" d="M383.52,343.09h67.66a2.16,2.16,0,0,1,2.16,2.16v33.13a2.16,2.16,0,0,1-2.16,2.16H383.52a0,0,0,0,1,0,0V343.09a0,0,0,0,1,0,0Z" transform="translate(-15.81 19.13) rotate(-2.57)"/><line class="cls-20" x1="443.79" y1="379.41" x2="442.11" y2="342"/><line class="cls-20" x1="432.98" y1="379.89" x2="431.3" y2="342.49"/><line class="cls-20" x1="422.18" y1="380.38" x2="420.5" y2="342.97"/><circle class="cls-19" cx="451.46" cy="381.8" r="1.49" transform="translate(-16.67 20.64) rotate(-2.57)"/><circle class="cls-21" cx="451.46" cy="381.8" r="0.9" transform="translate(-16.67 20.64) rotate(-2.57)"/><circle class="cls-19" cx="430.74" cy="382.73" r="1.49" transform="translate(-16.73 19.71) rotate(-2.57)"/><circle class="cls-21" cx="430.74" cy="382.73" r="0.9" transform="translate(-16.73 19.71) rotate(-2.57)"/><path class="cls-22" d="M490.87,359.1h.19a1.11,1.11,0,0,1,1.11,1.11v5.09a1.11,1.11,0,0,1-1.11,1.11h-.19a0,0,0,0,1,0,0v-7.3a0,0,0,0,1,0,0Z" transform="translate(-15.78 22.41) rotate(-2.57)"/><path class="cls-8" d="M486.35,370.67l1.45.27a2.37,2.37,0,0,0,2.8-2.44l-.1-2.26c-.53.7-1.08,1.38-1.67,2A28.67,28.67,0,0,1,486.35,370.67Z"/><path class="cls-8" d="M487.74,357.43l-2.49.11c-.29.5-.6,1-.93,1.46a29.14,29.14,0,0,1-2.38,3,28.66,28.66,0,0,1-2.74,2.64l-.42.33.11,2.49a2.37,2.37,0,0,0,.93,1.77,19.35,19.35,0,0,1,1.54-2.61,28.65,28.65,0,0,1,2.38-3,29.2,29.2,0,0,1,2.75-2.64,17.62,17.62,0,0,1,3.22-2.2,17.64,17.64,0,0,1-1.9,3.41,29.2,29.2,0,0,1-2.38,3,28.66,28.66,0,0,1-2.74,2.64,19.73,19.73,0,0,1-2.34,1.7,2.37,2.37,0,0,0,.48.15l3.53.65.4-.61a28.66,28.66,0,0,1,2.38-3,29.14,29.14,0,0,1,2.75-2.64l.5-.4-.18-4A2.37,2.37,0,0,0,487.74,357.43Z"/><path class="cls-8" d="M483,357.79l.19-.15-2.36.11a2.37,2.37,0,0,0-2.26,2.48l.1,2.12c.51-.66,1-1.3,1.59-1.91A29.14,29.14,0,0,1,483,357.79Z"/><path class="cls-22" d="M481.94,362a29.14,29.14,0,0,0,2.38-3c.32-.47.63-1,.93-1.46l-2.06.09-.19.15a29.14,29.14,0,0,0-2.75,2.64c-.56.61-1.08,1.25-1.59,1.91l.12,2.61.42-.33A28.66,28.66,0,0,0,481.94,362Z"/><path class="cls-22" d="M485.43,365.16a29.2,29.2,0,0,0,2.38-3,17.64,17.64,0,0,0,1.9-3.41,17.62,17.62,0,0,0-3.22,2.2,29.2,29.2,0,0,0-2.75,2.64,28.65,28.65,0,0,0-2.38,3,19.35,19.35,0,0,0-1.54,2.61,2.35,2.35,0,0,0,.53.31,19.73,19.73,0,0,0,2.34-1.7A28.66,28.66,0,0,0,485.43,365.16Z"/><path class="cls-22" d="M489.89,364.09a29.14,29.14,0,0,0-2.75,2.64,28.66,28.66,0,0,0-2.38,3l-.4.61,2,.37a28.67,28.67,0,0,0,2.48-2.4c.59-.65,1.14-1.33,1.67-2l-.11-2.56Z"/><rect class="cls-23" x="265.3" y="255.57" width="87.3" height="150.4" transform="translate(-15.11 14.79) rotate(-2.68)"/><rect class="cls-24" x="352.54" y="252.95" width="24.69" height="150.4" transform="translate(-14.93 17.4) rotate(-2.68)"/><rect class="cls-6" x="261.88" y="255.47" width="112" height="3.65" transform="translate(-11.67 15.13) rotate(-2.68)"/><rect class="cls-5" x="240.72" y="243.14" width="153.86" height="12.35" transform="translate(-11.3 15.11) rotate(-2.68)"/><rect class="cls-23" x="260.75" y="223.28" width="70.49" height="20.84" transform="translate(-10.59 14.08) rotate(-2.68)"/><rect class="cls-24" x="260.14" y="218.11" width="70.49" height="5.18" transform="translate(-9.98 14.04) rotate(-2.68)"/><polyline class="cls-5" points="260.06 219.76 271.85 201.31 301.07 199.94 330.48 216.46"/><rect class="cls-25" x="270.92" y="230.72" width="7.94" height="7.94" transform="translate(-10.66 13.09) rotate(-2.68)"/><rect class="cls-25" x="286.77" y="229.97" width="7.94" height="7.94" transform="translate(-10.61 13.83) rotate(-2.68)"/><rect class="cls-25" x="302.63" y="229.23" width="7.94" height="7.94" transform="translate(-10.56 14.57) rotate(-2.68)"/><rect class="cls-25" x="272.91" y="273.4" width="7.94" height="7.94" transform="translate(-12.65 13.23) rotate(-2.68)"/><rect class="cls-25" x="289.65" y="272.62" width="7.94" height="7.94" transform="translate(-12.6 14.01) rotate(-2.68)"/><rect class="cls-25" x="306.39" y="271.84" width="7.94" height="7.94" transform="translate(-12.54 14.79) rotate(-2.68)"/><rect class="cls-25" x="356.6" y="269.49" width="7.94" height="7.94" transform="translate(-12.38 17.14) rotate(-2.68)"/><rect class="cls-25" x="339.86" y="270.27" width="7.94" height="7.94" transform="translate(-12.43 16.36) rotate(-2.68)"/><rect class="cls-25" x="323.12" y="271.06" width="7.94" height="7.94" transform="translate(-12.49 15.58) rotate(-2.68)"/><rect class="cls-25" x="273.79" y="292.15" width="7.94" height="7.94" transform="translate(-13.53 13.29) rotate(-2.68)"/><rect class="cls-25" x="290.53" y="291.37" width="7.94" height="7.94" transform="translate(-13.47 14.08) rotate(-2.68)"/><rect class="cls-25" x="307.26" y="290.59" width="7.94" height="7.94" transform="translate(-13.42 14.86) rotate(-2.68)"/><rect class="cls-25" x="357.47" y="288.24" width="7.94" height="7.94" transform="translate(-13.25 17.2) rotate(-2.68)"/><rect class="cls-25" x="340.74" y="289.02" width="7.94" height="7.94" transform="translate(-13.31 16.42) rotate(-2.68)"/><rect class="cls-25" x="324" y="289.81" width="7.94" height="7.94" transform="translate(-13.36 15.64) rotate(-2.68)"/><rect class="cls-25" x="274.66" y="310.9" width="7.94" height="7.94" transform="translate(-14.4 13.36) rotate(-2.68)"/><rect class="cls-25" x="291.4" y="310.12" width="7.94" height="7.94" transform="translate(-14.35 14.14) rotate(-2.68)"/><rect class="cls-25" x="308.14" y="309.34" width="7.94" height="7.94" transform="translate(-14.29 14.92) rotate(-2.68)"/><rect class="cls-25" x="358.35" y="306.99" width="7.94" height="7.94" transform="translate(-14.13 17.26) rotate(-2.68)"/><rect class="cls-25" x="341.61" y="307.77" width="7.94" height="7.94" transform="translate(-14.18 16.48) rotate(-2.68)"/><rect class="cls-25" x="324.88" y="308.55" width="7.94" height="7.94" transform="translate(-14.24 15.7) rotate(-2.68)"/><rect class="cls-26" x="222.66" y="341.49" width="201.06" height="62.44" transform="translate(-16.39 14.87) rotate(-2.57)"/><line class="cls-27" x1="231.57" y1="328.1" x2="232.36" y2="345.54"/><line class="cls-27" x1="250.62" y1="327.24" x2="251.41" y2="344.68"/><line class="cls-27" x1="269.67" y1="326.39" x2="270.46" y2="343.83"/><line class="cls-27" x1="288.72" y1="325.53" x2="289.51" y2="342.97"/><line class="cls-27" x1="307.77" y1="324.68" x2="308.56" y2="342.12"/><line class="cls-27" x1="326.82" y1="323.82" x2="327.61" y2="341.26"/><line class="cls-27" x1="345.88" y1="322.96" x2="346.66" y2="340.41"/><line class="cls-27" x1="364.93" y1="322.11" x2="365.71" y2="339.55"/><line class="cls-27" x1="383.98" y1="321.25" x2="384.76" y2="338.7"/><line class="cls-27" x1="403.03" y1="320.4" x2="403.81" y2="337.84"/><rect class="cls-27" x="220.87" y="323.88" width="201.06" height="17.65" transform="translate(-14.6 14.75) rotate(-2.57)"/><line class="cls-27" x1="220.97" y1="337.22" x2="421.82" y2="328.2"/><g class="cls-28"><line class="cls-29" x1="233.71" y1="353.94" x2="235.86" y2="399.92"/><line class="cls-29" x1="241.93" y1="353.56" x2="244.08" y2="399.54"/><line class="cls-29" x1="250.15" y1="353.17" x2="252.3" y2="399.16"/><line class="cls-29" x1="258.38" y1="352.79" x2="260.52" y2="398.77"/><line class="cls-29" x1="266.6" y1="352.41" x2="268.75" y2="398.39"/><line class="cls-29" x1="274.82" y1="352.02" x2="276.97" y2="398"/><line class="cls-29" x1="283.04" y1="351.64" x2="285.19" y2="397.62"/><line class="cls-29" x1="291.26" y1="351.25" x2="293.41" y2="397.23"/><line class="cls-29" x1="299.48" y1="350.87" x2="301.63" y2="396.85"/><line class="cls-29" x1="307.72" y1="350.5" x2="309.87" y2="396.48"/><line class="cls-29" x1="315.96" y1="350.13" x2="318.11" y2="396.11"/><line class="cls-29" x1="324.2" y1="349.76" x2="326.35" y2="395.74"/><line class="cls-29" x1="332.44" y1="349.39" x2="334.59" y2="395.37"/><line class="cls-29" x1="340.67" y1="349.02" x2="342.82" y2="395"/><line class="cls-29" x1="348.91" y1="348.65" x2="351.06" y2="394.63"/><line class="cls-29" x1="357.15" y1="348.28" x2="359.3" y2="394.26"/><line class="cls-29" x1="365.39" y1="347.91" x2="367.54" y2="393.89"/><line class="cls-29" x1="373.63" y1="347.54" x2="375.78" y2="393.52"/><line class="cls-29" x1="381.86" y1="347.17" x2="384.01" y2="393.15"/><line class="cls-29" x1="390.1" y1="346.8" x2="392.25" y2="392.78"/><line class="cls-29" x1="398.34" y1="346.43" x2="400.49" y2="392.41"/><line class="cls-29" x1="406.58" y1="346.06" x2="408.73" y2="392.04"/><line class="cls-29" x1="307.7" y1="350.48" x2="309.85" y2="396.46"/></g><rect class="cls-6" x="336.18" y="387.38" width="10.58" height="17.15" transform="translate(-18.12 16.38) rotate(-2.68)"/><rect class="cls-25" x="240.86" y="355.33" width="12.38" height="12.38" transform="translate(-15.97 11.45) rotate(-2.57)"/><rect class="cls-25" x="266.02" y="354.2" width="12.38" height="12.38" transform="translate(-15.89 12.57) rotate(-2.57)"/><rect class="cls-25" x="291.18" y="353.07" width="12.38" height="12.38" transform="translate(-15.82 13.7) rotate(-2.57)"/><rect class="cls-25" x="316.35" y="351.94" width="12.38" height="12.38" transform="translate(-15.74 14.83) rotate(-2.57)"/><rect class="cls-25" x="341.51" y="350.81" width="12.38" height="12.38" transform="translate(-15.66 15.96) rotate(-2.57)"/><rect class="cls-25" x="366.68" y="349.68" width="12.38" height="12.38" transform="translate(-15.59 17.08) rotate(-2.57)"/><rect class="cls-25" x="391.84" y="348.55" width="12.38" height="12.38" transform="translate(-15.51 18.21) rotate(-2.57)"/><polyline class="cls-30" points="57.77 405.77 99.04 298.49 178.55 412.08"/><line class="cls-31" x1="98.52" y1="287.05" x2="103.76" y2="403.7"/><rect class="cls-23" x="94.44" y="298.48" width="10.23" height="22.91" rx="5.12" ry="5.12" transform="translate(-13.8 4.78) rotate(-2.57)"/><line class="cls-32" x1="88.45" y1="308.75" x2="110.5" y2="307.76"/><polygon class="cls-33" points="604.74 311.57 597.77 322.86 582.55 384.94 586.95 385.69 600.04 324.06 607 312.57 604.74 311.57"/><polygon class="cls-34" points="35.39 430.25 57.77 405.77 104.66 403.66 124.33 414.48 529.18 396.3 552.63 383.55 585.77 382.06 599.19 404.93 35.39 430.25"/><polygon class="cls-34" points="43.55 441.21 57.28 459.63 587.03 435.84 595.24 414.98 43.55 441.21"/><polygon class="cls-33" points="599.19 404.93 35.39 430.25 43.55 441.21 595.24 414.98 599.19 404.93"/><polygon class="cls-6" points="102.29 503.98 570.56 478.61 587.03 435.84 57.28 459.63 102.29 503.98"/><line class="cls-35" x1="43.56" y1="441.21" x2="595.24" y2="414.98"/><circle class="cls-6" cx="84.12" cy="433.72" r="3.1" transform="translate(-19.37 4.21) rotate(-2.57)"/><circle class="cls-6" cx="135.99" cy="431.39" r="3.1" transform="translate(-19.21 6.53) rotate(-2.57)"/><circle class="cls-6" cx="187.86" cy="429.06" r="3.1" transform="translate(-19.06 8.86) rotate(-2.57)"/><circle class="cls-6" cx="239.73" cy="426.73" r="3.1" transform="translate(-18.9 11.18) rotate(-2.57)"/><circle class="cls-6" cx="291.61" cy="424.4" r="3.1" transform="translate(-18.74 13.51) rotate(-2.57)"/><circle class="cls-6" cx="343.48" cy="422.08" r="3.1" transform="translate(-18.59 15.83) rotate(-2.57)"/><circle class="cls-6" cx="395.35" cy="419.75" r="3.1" transform="translate(-18.43 18.16) rotate(-2.57)"/><circle class="cls-6" cx="447.23" cy="417.42" r="3.1" transform="translate(-18.27 20.48) rotate(-2.57)"/><circle class="cls-6" cx="499.1" cy="415.09" r="3.1" transform="translate(-18.12 22.81) rotate(-2.57)"/><circle class="cls-6" cx="550.97" cy="412.76" r="3.1" transform="translate(-17.96 25.13) rotate(-2.57)"/><line class="cls-36" x1="75.11" y1="392.11" x2="75.67" y2="404.63"/><line class="cls-36" x1="97.82" y1="391.09" x2="98.38" y2="403.61"/><line class="cls-36" x1="121" y1="400.75" x2="121.57" y2="413.27"/><line class="cls-36" x1="143.81" y1="401.9" x2="144.33" y2="413.58"/><line class="cls-36" x1="166.51" y1="400.88" x2="167.04" y2="412.56"/><line class="cls-36" x1="189.22" y1="399.86" x2="189.74" y2="411.54"/><line class="cls-36" x1="211.93" y1="398.84" x2="212.45" y2="410.52"/><line class="cls-36" x1="234.63" y1="397.82" x2="235.16" y2="409.5"/><line class="cls-36" x1="257.34" y1="396.8" x2="257.86" y2="408.48"/><line class="cls-36" x1="280.05" y1="395.78" x2="280.57" y2="407.46"/><line class="cls-36" x1="302.75" y1="394.76" x2="303.28" y2="406.44"/><line class="cls-36" x1="325.46" y1="393.74" x2="325.98" y2="405.42"/><line class="cls-36" x1="348.16" y1="392.72" x2="348.69" y2="404.4"/><line class="cls-36" x1="370.87" y1="391.7" x2="371.4" y2="403.38"/><line class="cls-36" x1="393.58" y1="390.68" x2="394.1" y2="402.36"/><line class="cls-36" x1="416.28" y1="389.66" x2="416.81" y2="401.34"/><line class="cls-36" x1="438.99" y1="388.64" x2="439.51" y2="400.33"/><line class="cls-36" x1="461.7" y1="387.62" x2="462.22" y2="399.31"/><line class="cls-36" x1="484.4" y1="386.6" x2="484.93" y2="398.29"/><line class="cls-36" x1="507.11" y1="385.59" x2="507.63" y2="397.27"/><line class="cls-36" x1="529.78" y1="383.73" x2="530.34" y2="396.25"/><line class="cls-36" x1="551.95" y1="370.7" x2="552.51" y2="383.22"/><line class="cls-36" x1="574.65" y1="369.68" x2="575.21" y2="382.2"/><polygon class="cls-36" points="585.93 382.05 585.36 369.2 551.77 370.71 528.59 384.63 124.66 402.76 103.78 390.83 57.19 392.92 57.77 405.77 104.66 403.66 124.33 414.48 529.18 396.3 552.63 383.55 585.93 382.05"/><polyline class="cls-36" points="585.63 375.3 552.04 376.81 528.86 390.72 124.94 408.86 104.06 396.92 57.46 399.01"/></g><path class="cls-37" d="M3.31,491l413.4-18.23c453.65-20,919.06-16.76,1367.46,9.51l47.15,2.76c400.92,23.49,815.86,28.59,1224.21,15l278.38-9.24c326-10.82,656.67-9.76,981.45,3.13h0c239.24,9.5,481.92,12.58,723.84,9.19L5909,491V990.71H4.4Z"/><g class="cls-38"><path class="cls-39" d="M4742.61,909.69s.41-11.78-1.58-18.11c0,0,1.45-.37,4,7.67,0,0,.12-29.06,8.69-29.06,0,0-4.58,4-4.58,39.5"/><path class="cls-40" d="M4752.83,888.56s-2.57,6.1-2.57,21.13h-5.69s1-28.43-3.54-42.93c0,0,6.68,10.43,6.68,32.49C4747.71,899.24,4749.2,888.56,4752.83,888.56Z"/><path class="cls-40" d="M4726.38,909.69s.62-17.81-2.39-27.38c0,0,2.2-.56,6,11.59,0,0,.18-43.92,13.14-43.92,0,0-6.92,6-6.92,59.71"/><path class="cls-41" d="M4741.82,877.75s-3.88,9.23-3.88,31.94h-8.6s1.55-43-5.35-64.9c0,0,10.1,15.76,10.1,49.11C4734.09,893.9,4736.33,877.75,4741.82,877.75Z"/><path class="cls-39" d="M4775.7,910.17s.41-11.78-1.58-18.11c0,0,1.45-.37,4,7.67,0,0,.12-29.06,8.69-29.06,0,0-4.58,4-4.58,39.5"/><path class="cls-40" d="M4785.91,889s-2.57,6.1-2.57,21.13h-5.69s1-28.43-3.54-42.93c0,0,6.68,10.43,6.68,32.49C4780.8,899.72,4782.28,889,4785.91,889Z"/><path class="cls-40" d="M4759.47,910.17s.62-17.81-2.39-27.38c0,0,2.2-.56,6,11.59,0,0,.18-43.92,13.14-43.92,0,0-6.92,6-6.92,59.71"/><path class="cls-41" d="M4774.91,878.22s-3.88,9.23-3.88,31.94h-8.6s1.55-43-5.35-64.9c0,0,10.1,15.76,10.1,49.11C4767.18,894.38,4769.42,878.22,4774.91,878.22Z"/></g><path class="cls-42" d="M870.46,946.55s-677-1.21-1118.47,87.06H1988.93C1547.44,945.34,870.46,946.55,870.46,946.55Z"/><path class="cls-42" d="M2086,940.55s-413.4-1.3-683,93.06H2769C2499.4,939.25,2086,940.55,2086,940.55Z"/><g class="cls-38"><path class="cls-39" d="M3485.2,963.11s.41-11.78-1.58-18.11c0,0,1.45-.37,4,7.67,0,0,.12-29.06,8.69-29.06,0,0-4.58,4-4.58,39.5"/><path class="cls-40" d="M3495.42,942s-2.57,6.1-2.57,21.13h-5.69s1-28.43-3.54-42.93c0,0,6.68,10.43,6.68,32.49C3490.3,952.67,3491.79,942,3495.42,942Z"/><path class="cls-40" d="M3469,963.11s.62-17.81-2.39-27.38c0,0,2.2-.56,6,11.59,0,0,.18-43.92,13.14-43.92,0,0-6.92,6-6.92,59.71"/><path class="cls-41" d="M3484.41,931.17s-3.88,9.23-3.88,31.94h-8.6s1.55-43-5.35-64.9c0,0,10.1,15.76,10.1,49.11C3476.68,947.32,3478.92,931.17,3484.41,931.17Z"/><path class="cls-39" d="M3518.29,963.59s.41-11.78-1.58-18.11c0,0,1.45-.37,4,7.67,0,0,.12-29.06,8.69-29.06,0,0-4.58,4-4.58,39.5"/><path class="cls-40" d="M3528.5,942.46s-2.57,6.1-2.57,21.13h-5.69s1-28.43-3.54-42.93c0,0,6.68,10.43,6.68,32.49C3523.39,953.15,3524.87,942.46,3528.5,942.46Z"/><path class="cls-40" d="M3502.06,963.59s.62-17.81-2.39-27.38c0,0,2.2-.56,6,11.59,0,0,.18-43.92,13.14-43.92,0,0-6.92,6-6.92,59.71"/><path class="cls-41" d="M3517.5,931.65s-3.88,9.23-3.88,31.94H3505s1.55-43-5.35-64.9c0,0,10.1,15.76,10.1,49.11C3509.77,947.8,3512,931.65,3517.5,931.65Z"/></g><g class="cls-38"><path class="cls-39" d="M3700.14,943.64s.54-15.32-2.06-23.56c0,0,1.89-.48,5.18,10,0,0,.16-37.8,11.3-37.8,0,0-6,5.19-6,51.38"/><path class="cls-40" d="M3713.42,916.15s-3.34,7.94-3.34,27.49h-7.4s1.33-37-4.61-55.85c0,0,8.69,13.56,8.69,42.26C3706.77,930,3708.7,916.15,3713.42,916.15Z"/><path class="cls-40" d="M3679,943.64s.81-23.16-3.11-35.61c0,0,2.86-.73,7.83,15.07,0,0,.24-57.13,17.09-57.13,0,0-9,7.84-9,77.67"/><path class="cls-41" d="M3699.11,902.09s-5,12-5,41.55h-11.19s2-55.91-7-84.42c0,0,13.14,20.5,13.14,63.88C3689.05,923.1,3692,902.09,3699.11,902.09Z"/><path class="cls-39" d="M3743.17,944.26s.54-15.32-2.06-23.56c0,0,1.89-.48,5.18,10,0,0,.16-37.8,11.3-37.8,0,0-6,5.19-6,51.38"/><path class="cls-40" d="M3756.46,916.77s-3.34,7.94-3.34,27.49h-7.4s1.33-37-4.61-55.85c0,0,8.69,13.56,8.69,42.26C3749.81,930.67,3751.74,916.77,3756.46,916.77Z"/><path class="cls-40" d="M3722.06,944.26s.81-23.16-3.11-35.61c0,0,2.86-.73,7.83,15.07,0,0,.24-57.13,17.09-57.13,0,0-9,7.84-9,77.67"/><path class="cls-41" d="M3742.15,902.71s-5,12-5,41.55h-11.19s2-55.91-7-84.42c0,0,13.14,20.5,13.14,63.88C3732.09,923.72,3735,902.71,3742.15,902.71Z"/></g><path class="cls-42" d="M3714,942.55s-424.29-1.5-701,108H4415C4138.29,941,3714,942.55,3714,942.55Z"/><path class="cls-42" d="M5810,892.55s-299.61-1.5-495,108h990C6109.61,891,5810,892.55,5810,892.55Z"/><path class="cls-42" d="M4765,906.55s-251.79-1.5-416,108h832C5016.79,905,4765,906.55,4765,906.55Z"/><g class="cls-38"><path class="cls-39" d="M921.81,947.2s.41-11.78-1.58-18.11c0,0,1.45-.37,4,7.67,0,0,.12-29.06,8.69-29.06,0,0-4.58,4-4.58,39.5"/><path class="cls-40" d="M932,926.07s-2.57,6.1-2.57,21.13h-5.69s1-28.43-3.54-42.93c0,0,6.68,10.43,6.68,32.49C926.91,936.75,928.4,926.07,932,926.07Z"/><path class="cls-40" d="M905.58,947.2s.62-17.81-2.39-27.38c0,0,2.2-.56,6,11.59,0,0,.18-43.92,13.14-43.92,0,0-6.92,6-6.92,59.71"/><path class="cls-41" d="M921,915.25s-3.88,9.23-3.88,31.94h-8.6s1.55-43-5.35-64.9c0,0,10.1,15.76,10.1,49.11C913.29,931.41,915.53,915.25,921,915.25Z"/><path class="cls-39" d="M954.9,947.67s.41-11.78-1.58-18.11c0,0,1.45-.37,4,7.67,0,0,.12-29.06,8.69-29.06,0,0-4.58,4-4.58,39.5"/><path class="cls-40" d="M965.11,926.54s-2.57,6.1-2.57,21.13h-5.69s1-28.43-3.54-42.93c0,0,6.68,10.43,6.68,32.49C960,937.23,961.48,926.54,965.11,926.54Z"/><path class="cls-40" d="M938.67,947.67s.62-17.81-2.39-27.38c0,0,2.2-.56,6,11.59,0,0,.18-43.92,13.14-43.92,0,0-6.92,6-6.92,59.71"/><path class="cls-41" d="M954.11,915.73s-3.88,9.23-3.88,31.94h-8.6s1.55-43-5.35-64.9c0,0,10.1,15.76,10.1,49.11C946.38,931.88,948.62,915.73,954.11,915.73Z"/></g><g class="cls-43"><ellipse class="cls-44" cx="1116.92" cy="969.94" rx="16.19" ry="3.46"/><path class="cls-45" d="M1131.28,966.4c0,2.87-4.93,5.22-11.05,5.26-11.77.07-17.4-2.33-16.65-5.1,1.58-5.9,7.68-9.16,13.8-9.2S1131.26,963.53,1131.28,966.4Z"/><path class="cls-46" d="M1131.28,966.4c0,2.87-4.93,5.22-11.05,5.26-11.77.07-17.4-2.33-16.65-5.1l3,.77a43.08,43.08,0,0,0,21.55-.11Z"/><ellipse class="cls-47" cx="1121.36" cy="962.07" rx="1.39" ry="0.48"/><ellipse class="cls-47" cx="1117.39" cy="963.58" rx="1.39" ry="0.48"/><ellipse class="cls-47" cx="1112.14" cy="961.8" rx="1.69" ry="0.75"/></g><g class="cls-43"><ellipse class="cls-44" cx="2135.78" cy="959.94" rx="16.19" ry="3.46"/><path class="cls-45" d="M2150.14,956.4c0,2.87-4.93,5.22-11.05,5.26-11.77.07-17.4-2.33-16.65-5.1,1.58-5.9,7.68-9.16,13.8-9.2S2150.12,953.53,2150.14,956.4Z"/><path class="cls-46" d="M2150.14,956.4c0,2.87-4.93,5.22-11.05,5.26-11.77.07-17.4-2.33-16.65-5.1l3,.77a43.08,43.08,0,0,0,21.55-.11Z"/><ellipse class="cls-47" cx="2140.22" cy="952.07" rx="1.39" ry="0.48"/><ellipse class="cls-47" cx="2136.26" cy="953.58" rx="1.39" ry="0.48"/><ellipse class="cls-47" cx="2131" cy="951.8" rx="1.69" ry="0.75"/></g><g class="cls-48"><ellipse class="cls-44" cx="847.55" cy="978.73" rx="26.77" ry="5.72"/><path class="cls-45" d="M871.28,972.87c0,4.74-8.15,8.63-18.27,8.69-19.46.11-28.76-3.84-27.53-8.43,2.61-9.75,12.69-15.15,22.81-15.21S871.26,968.13,871.28,972.87Z"/><path class="cls-46" d="M871.28,972.87c0,4.74-8.15,8.63-18.27,8.69-19.46.11-28.76-3.84-27.53-8.43l5,1.27a71.21,71.21,0,0,0,35.62-.19Z"/><ellipse class="cls-47" cx="854.89" cy="965.72" rx="2.3" ry="0.79"/><ellipse class="cls-47" cx="848.33" cy="968.21" rx="2.3" ry="0.79"/><ellipse class="cls-47" cx="839.64" cy="965.27" rx="2.8" ry="1.24"/></g><g class="cls-48"><ellipse class="cls-44" cx="2365.92" cy="979.07" rx="26.77" ry="5.72"/><path class="cls-45" d="M2389.66,973.21c0,4.74-8.15,8.63-18.27,8.69-19.46.11-28.76-3.84-27.53-8.43,2.61-9.75,12.69-15.15,22.81-15.21S2389.63,968.47,2389.66,973.21Z"/><path class="cls-46" d="M2389.66,973.21c0,4.74-8.15,8.63-18.27,8.69-19.46.11-28.76-3.84-27.53-8.43l5,1.27a71.21,71.21,0,0,0,35.62-.19Z"/><ellipse class="cls-47" cx="2373.26" cy="966.06" rx="2.3" ry="0.79"/><ellipse class="cls-47" cx="2366.7" cy="968.56" rx="2.3" ry="0.79"/><ellipse class="cls-47" cx="2358.02" cy="965.61" rx="2.8" ry="1.24"/></g><g class="cls-49"><path class="cls-50" d="M585.51,720.55l-.8.61s3,2.09,3.5,3.75,1.19,4,1.19,4,2.87-.43,3.06-4.09S585.51,720.55,585.51,720.55Z"/><path class="cls-50" d="M599.17,725.3a2.43,2.43,0,0,0-2.14,2.35c-.08,2.13,2.87-.89,2.87-.89a1.89,1.89,0,0,0,.36-1.32C600.18,724.67,599.17,725.3,599.17,725.3Z"/><path class="cls-50" d="M590.5,714l-2.23-1.14,7.39-5.36s2.36-1.55,6.25,2.68S590.5,714,590.5,714Z"/><path class="cls-51" d="M574.2,710a.41.41,0,0,1,.59-.5,23,23,0,0,1,6.85,6.28c2.46,3.88,8.6-2.33,12.12-3.51s10.05-3,14.84-2.28c4.25.63,7.89,3.14,8.77,7.34a.56.56,0,0,1-.17.53l-1.87,1.48,1.25.5c.94.58,2,.95.51,2.73a14.18,14.18,0,0,1-7.84,4.13c-3.09.32-10.71.32-13.78-1-7.53-3.15-12.11-8-14.07-4.55a10.07,10.07,0,0,1-3.64,3.54,17.64,17.64,0,0,1-3.37,1.65h0a.41.41,0,0,1-.52-.55l1.23-2.89a13.55,13.55,0,0,0,.15-10.28Z"/><path class="cls-52" d="M583.08,718.25s.52-.62,3-.24,3.66.49,5.4,0,6.25-1.89,7.53-2.14c1.73-.34,4.94.6,6.15.88a8.6,8.6,0,0,0,3.64,0s-.22,1.67-.26,2.39a11.08,11.08,0,0,1-3.39-.84c-1.34-.59-4.09-1.47-6-1.1s-6.19,1.82-7.57,2.11a23.6,23.6,0,0,1-5.53-.09c-1.32-.2-3-.74-3.85.19A2.46,2.46,0,0,1,583.08,718.25Z"/><path class="cls-53" d="M586.82,721.2a50,50,0,0,0,8.57,2.73c3.52.6,6.81.79,13.61-.47,0,0-.11.8,1.1,3.09a35,35,0,0,1-9.58.12,20,20,0,0,1-4-.63A43.77,43.77,0,0,1,586.82,721.2Z"/><path class="cls-50" d="M600.19,721.42s2.22-1.76,4.13-.9c0,0,1,.17.67,1s-2.39.91-2.39.91Z"/><path class="cls-33" d="M578.83,712.53a12.51,12.51,0,0,1,2.81,3.23c2.42,3.9,7.82-1.83,12.12-3.51,3-1.18,10.05-3,14.84-2.28,4.06.6,7.87,3.2,8.82,7.07.44,1.79-3.38,1.15-4.76,1.49-.95.23-1.95.46-2.17,1.86a12.31,12.31,0,0,0,1,5.74l-1.35.42c-.17,0-1.42-2.62-1.54-5.61a20.69,20.69,0,0,1,.44-5c-.18-2-4.57-1.46-6.87-1.58-4.86-.26-7.51,2.38-13.81,3.71-1.54.33-4-.68-5.23.19s-.59,1-1.57,2.71h0a5.79,5.79,0,0,1-1.92,2.42l-.28.2s.57-3.25.76-4.85a6.75,6.75,0,0,0,0-1.81Z"/><ellipse class="cls-52" cx="612.69" cy="716.02" rx="1.69" ry="0.75" transform="translate(-113.1 1317.11) rotate(-89.08)"/><circle class="cls-33" cx="612.69" cy="716.02" r="0.44" transform="translate(-113.1 1317.11) rotate(-89.08)"/><path class="cls-54" d="M590.29,711.38s1.94-.25,2.36,1.35"/><path class="cls-54" d="M592,710.15s2.48-.1,2.73,1.74"/><path class="cls-54" d="M593.67,708.93s2.95,0,3.26,2.28"/><path class="cls-54" d="M595.37,707.7s3.29-.06,3.9,2.94"/></g><g class="cls-49"><path class="cls-50" d="M1331.41,821.78l-.8.61s3,2.09,3.5,3.75,1.19,4,1.19,4,2.87-.43,3.06-4.09S1331.41,821.78,1331.41,821.78Z"/><path class="cls-50" d="M1345.08,826.52a2.43,2.43,0,0,0-2.14,2.35c-.08,2.13,2.87-.89,2.87-.89a1.89,1.89,0,0,0,.36-1.32C1346.08,825.89,1345.08,826.52,1345.08,826.52Z"/><path class="cls-50" d="M1336.4,815.22l-2.23-1.14,7.39-5.36s2.36-1.55,6.25,2.68S1336.4,815.22,1336.4,815.22Z"/><path class="cls-51" d="M1320.1,811.21a.41.41,0,0,1,.59-.5,23,23,0,0,1,6.85,6.28c2.46,3.88,8.6-2.33,12.12-3.51s10.05-3,14.84-2.28c4.25.63,7.89,3.14,8.77,7.34a.56.56,0,0,1-.17.53l-1.87,1.48,1.25.5c.94.58,2,.95.51,2.73a14.18,14.18,0,0,1-7.84,4.13c-3.09.32-10.71.32-13.78-1-7.53-3.15-12.11-8-14.07-4.55a10.07,10.07,0,0,1-3.64,3.54,17.64,17.64,0,0,1-3.37,1.65h0a.41.41,0,0,1-.52-.55l1.23-2.89a13.55,13.55,0,0,0,.15-10.28Z"/><path class="cls-52" d="M1329,819.47s.52-.62,3-.24,3.66.49,5.4,0,6.25-1.89,7.53-2.14c1.73-.34,4.94.6,6.15.88a8.6,8.6,0,0,0,3.64,0s-.22,1.67-.26,2.39a11.08,11.08,0,0,1-3.39-.84c-1.34-.59-4.09-1.47-6-1.1s-6.19,1.82-7.57,2.11a23.6,23.6,0,0,1-5.53-.09c-1.32-.2-3-.74-3.85.19A2.46,2.46,0,0,1,1329,819.47Z"/><path class="cls-53" d="M1332.72,822.42a50,50,0,0,0,8.57,2.73c3.52.6,6.81.79,13.61-.47,0,0-.11.8,1.1,3.09a35,35,0,0,1-9.58.12,20,20,0,0,1-4-.63A43.77,43.77,0,0,1,1332.72,822.42Z"/><path class="cls-50" d="M1346.09,822.64s2.22-1.76,4.13-.9c0,0,1,.17.67,1s-2.39.91-2.39.91Z"/><path class="cls-33" d="M1324.73,813.75a12.51,12.51,0,0,1,2.81,3.23c2.42,3.9,7.82-1.83,12.12-3.51,3-1.18,10.05-3,14.84-2.28,4.06.6,7.87,3.2,8.82,7.07.44,1.79-3.38,1.15-4.76,1.49-.95.23-1.95.46-2.17,1.86a12.31,12.31,0,0,0,1,5.74l-1.35.42c-.17,0-1.42-2.62-1.54-5.61a20.69,20.69,0,0,1,.44-5c-.18-2-4.57-1.46-6.87-1.58-4.86-.26-7.51,2.38-13.81,3.71-1.54.33-4-.68-5.23.19s-.59,1-1.57,2.71h0a5.79,5.79,0,0,1-1.92,2.42l-.28.2s.57-3.25.76-4.85a6.75,6.75,0,0,0,0-1.81Z"/><ellipse class="cls-52" cx="1358.6" cy="817.24" rx="1.69" ry="0.75" transform="translate(519.59 2162.51) rotate(-89.08)"/><circle class="cls-33" cx="1358.6" cy="817.24" r="0.44" transform="translate(519.59 2162.51) rotate(-89.08)"/><path class="cls-54" d="M1336.2,812.6s1.94-.25,2.36,1.35"/><path class="cls-54" d="M1337.87,811.37s2.48-.1,2.73,1.74"/><path class="cls-54" d="M1339.58,810.15s2.95,0,3.26,2.28"/><path class="cls-54" d="M1341.27,808.92s3.29-.06,3.9,2.94"/></g><g class="cls-49"><path class="cls-50" d="M2895.74,849.57l-.8.61s3,2.09,3.5,3.75,1.19,4,1.19,4,2.87-.43,3.06-4.09S2895.74,849.57,2895.74,849.57Z"/><path class="cls-50" d="M2909.4,854.31a2.43,2.43,0,0,0-2.14,2.35c-.08,2.13,2.87-.89,2.87-.89a1.89,1.89,0,0,0,.36-1.32C2910.41,853.68,2909.4,854.31,2909.4,854.31Z"/><path class="cls-50" d="M2900.73,843l-2.23-1.14,7.39-5.36s2.36-1.55,6.25,2.68S2900.73,843,2900.73,843Z"/><path class="cls-51" d="M2884.43,839a.41.41,0,0,1,.59-.5,23,23,0,0,1,6.85,6.28c2.46,3.88,8.6-2.33,12.12-3.51s10.05-3,14.84-2.28c4.25.63,7.89,3.14,8.77,7.34a.56.56,0,0,1-.17.53l-1.87,1.48,1.25.5c.94.58,2,.95.51,2.73a14.18,14.18,0,0,1-7.84,4.13c-3.09.32-10.71.32-13.78-1-7.53-3.15-12.11-8-14.07-4.55a10.07,10.07,0,0,1-3.64,3.54,17.64,17.64,0,0,1-3.37,1.65h0a.41.41,0,0,1-.52-.55l1.23-2.89a13.55,13.55,0,0,0,.15-10.28Z"/><path class="cls-52" d="M2893.31,847.26s.52-.62,3-.24,3.66.49,5.4,0,6.25-1.89,7.53-2.14c1.73-.34,4.94.6,6.15.88a8.6,8.6,0,0,0,3.64,0s-.22,1.67-.26,2.39a11.08,11.08,0,0,1-3.39-.84c-1.34-.59-4.09-1.47-6-1.1s-6.19,1.82-7.57,2.11a23.6,23.6,0,0,1-5.53-.09c-1.32-.2-3-.74-3.85.19A2.46,2.46,0,0,1,2893.31,847.26Z"/><path class="cls-53" d="M2897.05,850.21a50,50,0,0,0,8.57,2.73c3.52.6,6.81.79,13.61-.47,0,0-.11.8,1.1,3.09a35,35,0,0,1-9.58.12,20,20,0,0,1-4-.63A43.77,43.77,0,0,1,2897.05,850.21Z"/><path class="cls-50" d="M2910.42,850.43s2.22-1.76,4.13-.9c0,0,1,.17.67,1s-2.39.91-2.39.91Z"/><path class="cls-33" d="M2889.06,841.54a12.51,12.51,0,0,1,2.81,3.23c2.42,3.9,7.82-1.83,12.12-3.51,3-1.18,10.05-3,14.84-2.28,4.06.6,7.87,3.2,8.82,7.07.44,1.79-3.38,1.15-4.76,1.49-.95.23-1.95.46-2.17,1.86a12.31,12.31,0,0,0,1,5.74l-1.35.42c-.17,0-1.42-2.62-1.54-5.61a20.69,20.69,0,0,1,.44-5c-.18-2-4.57-1.46-6.87-1.58-4.86-.26-7.51,2.38-13.81,3.71-1.54.33-4-.68-5.23.19s-.59,1-1.57,2.71h0a5.79,5.79,0,0,1-1.92,2.42l-.28.2s.57-3.25.76-4.85a6.75,6.75,0,0,0,0-1.81Z"/><ellipse class="cls-52" cx="2922.92" cy="845.03" rx="1.69" ry="0.75" transform="translate(2030.96 3753.98) rotate(-89.08)"/><circle class="cls-33" cx="2922.92" cy="845.03" r="0.44" transform="translate(2030.96 3753.98) rotate(-89.08)"/><path class="cls-54" d="M2900.52,840.39s1.94-.25,2.36,1.35"/><path class="cls-54" d="M2902.2,839.16s2.48-.1,2.73,1.74"/><path class="cls-54" d="M2903.9,837.94s2.95,0,3.26,2.28"/><path class="cls-54" d="M2905.6,836.71s3.29-.06,3.9,2.94"/></g><g class="cls-49"><path class="cls-50" d="M3489.8,813.56l-.8.61s3,2.09,3.5,3.75,1.19,4,1.19,4,2.87-.43,3.06-4.09S3489.8,813.56,3489.8,813.56Z"/><path class="cls-50" d="M3503.46,818.3a2.43,2.43,0,0,0-2.14,2.35c-.08,2.13,2.87-.89,2.87-.89a1.89,1.89,0,0,0,.36-1.32C3504.47,817.68,3503.46,818.3,3503.46,818.3Z"/><path class="cls-50" d="M3494.79,807l-2.23-1.14,7.39-5.36s2.36-1.55,6.25,2.68S3494.79,807,3494.79,807Z"/><path class="cls-51" d="M3478.49,803a.41.41,0,0,1,.59-.5,23,23,0,0,1,6.85,6.28c2.46,3.88,8.6-2.33,12.12-3.51s10.05-3,14.84-2.28c4.25.63,7.89,3.14,8.77,7.34a.56.56,0,0,1-.17.53l-1.87,1.48,1.25.5c.94.58,2,.95.51,2.73a14.18,14.18,0,0,1-7.84,4.13c-3.09.32-10.71.32-13.78-1-7.53-3.15-12.11-8-14.07-4.55a10.07,10.07,0,0,1-3.64,3.54,17.64,17.64,0,0,1-3.37,1.65h0a.41.41,0,0,1-.52-.55l1.23-2.89a13.55,13.55,0,0,0,.15-10.28Z"/><path class="cls-52" d="M3487.37,811.26s.52-.62,3-.24,3.66.49,5.4,0,6.25-1.89,7.53-2.14c1.73-.34,4.94.6,6.15.88a8.6,8.6,0,0,0,3.64,0s-.22,1.67-.26,2.39a11.08,11.08,0,0,1-3.39-.84c-1.34-.59-4.09-1.47-6-1.1s-6.19,1.82-7.57,2.11a23.6,23.6,0,0,1-5.53-.09c-1.32-.2-3-.74-3.85.19A2.46,2.46,0,0,1,3487.37,811.26Z"/><path class="cls-53" d="M3491.11,814.21a50,50,0,0,0,8.57,2.73c3.52.6,6.81.79,13.61-.47,0,0-.11.8,1.1,3.09a35,35,0,0,1-9.58.12,20,20,0,0,1-4-.63A43.77,43.77,0,0,1,3491.11,814.21Z"/><path class="cls-50" d="M3504.48,814.43s2.22-1.76,4.13-.9c0,0,1,.17.67,1s-2.39.91-2.39.91Z"/><path class="cls-33" d="M3483.12,805.54a12.51,12.51,0,0,1,2.81,3.23c2.42,3.9,7.82-1.83,12.12-3.51,3-1.18,10.05-3,14.84-2.28,4.06.6,7.87,3.2,8.82,7.07.44,1.79-3.38,1.15-4.76,1.49-.95.23-1.95.46-2.17,1.86a12.31,12.31,0,0,0,1,5.74l-1.35.42c-.17,0-1.42-2.62-1.54-5.61a20.69,20.69,0,0,1,.44-5c-.18-2-4.57-1.46-6.87-1.58-4.86-.26-7.51,2.38-13.81,3.71-1.54.33-4-.68-5.23.19s-.59,1-1.57,2.71h0a5.79,5.79,0,0,1-1.92,2.42l-.28.2s.57-3.25.76-4.85a6.75,6.75,0,0,0,0-1.81Z"/><ellipse class="cls-52" cx="3516.98" cy="809.03" rx="1.69" ry="0.75" transform="translate(2651.46 4312.54) rotate(-89.08)"/><circle class="cls-33" cx="3516.98" cy="809.03" r="0.44" transform="translate(2651.46 4312.54) rotate(-89.08)"/><path class="cls-54" d="M3494.58,804.39s1.94-.25,2.36,1.35"/><path class="cls-54" d="M3496.26,803.16s2.48-.1,2.73,1.74"/><path class="cls-54" d="M3498,801.93s2.95,0,3.26,2.28"/><path class="cls-54" d="M3499.66,800.71s3.29-.06,3.9,2.94"/></g><g class="cls-49"><path class="cls-50" d="M4512.9,810.56l-.8.61s3,2.09,3.5,3.75,1.19,4,1.19,4,2.87-.43,3.06-4.09S4512.9,810.56,4512.9,810.56Z"/><path class="cls-50" d="M4526.57,815.3a2.43,2.43,0,0,0-2.14,2.35c-.08,2.13,2.87-.89,2.87-.89a1.89,1.89,0,0,0,.36-1.32C4527.57,814.68,4526.57,815.3,4526.57,815.3Z"/><path class="cls-50" d="M4517.89,804l-2.23-1.14,7.39-5.36s2.36-1.55,6.25,2.68S4517.89,804,4517.89,804Z"/><path class="cls-51" d="M4501.59,800a.41.41,0,0,1,.59-.5,23,23,0,0,1,6.85,6.28c2.46,3.88,8.6-2.33,12.12-3.51s10.05-3,14.84-2.28c4.25.63,7.89,3.14,8.77,7.34a.56.56,0,0,1-.17.53l-1.87,1.48,1.25.5c.94.58,2,.95.51,2.73a14.18,14.18,0,0,1-7.84,4.13c-3.09.32-10.71.32-13.78-1-7.53-3.15-12.11-8-14.07-4.55a10.07,10.07,0,0,1-3.64,3.54,17.64,17.64,0,0,1-3.37,1.65h0a.41.41,0,0,1-.52-.55l1.23-2.89a13.55,13.55,0,0,0,.15-10.28Z"/><path class="cls-52" d="M4510.48,808.26s.52-.62,3-.24,3.66.49,5.4,0,6.25-1.89,7.53-2.14c1.73-.34,4.94.6,6.15.88a8.6,8.6,0,0,0,3.64,0s-.22,1.67-.26,2.39a11.08,11.08,0,0,1-3.39-.84c-1.34-.59-4.09-1.47-6-1.1s-6.19,1.82-7.57,2.11a23.6,23.6,0,0,1-5.53-.09c-1.32-.2-3-.74-3.85.19A2.46,2.46,0,0,1,4510.48,808.26Z"/><path class="cls-53" d="M4514.21,811.21a50,50,0,0,0,8.57,2.73c3.52.6,6.81.79,13.61-.47,0,0-.11.8,1.1,3.09a35,35,0,0,1-9.58.12,20,20,0,0,1-4-.63A43.77,43.77,0,0,1,4514.21,811.21Z"/><path class="cls-50" d="M4527.58,811.42s2.22-1.76,4.13-.9c0,0,1,.17.67,1s-2.39.91-2.39.91Z"/><path class="cls-33" d="M4506.22,802.54a12.51,12.51,0,0,1,2.81,3.23c2.42,3.9,7.82-1.83,12.12-3.51,3-1.18,10.05-3,14.84-2.28,4.06.6,7.87,3.2,8.82,7.07.44,1.79-3.38,1.15-4.76,1.49-.95.23-1.95.46-2.17,1.86a12.31,12.31,0,0,0,1,5.74l-1.35.42c-.17,0-1.42-2.62-1.54-5.61a20.69,20.69,0,0,1,.44-5c-.18-2-4.57-1.46-6.87-1.58-4.86-.26-7.51,2.38-13.81,3.71-1.54.33-4-.68-5.23.19s-.59,1-1.57,2.71h0a5.79,5.79,0,0,1-1.92,2.42l-.28.2s.57-3.25.76-4.85a6.75,6.75,0,0,0,0-1.81Z"/><ellipse class="cls-52" cx="4540.09" cy="806.03" rx="1.69" ry="0.75" transform="translate(3661.1 5332.56) rotate(-89.08)"/><circle class="cls-33" cx="4540.09" cy="806.03" r="0.44" transform="translate(3661.1 5332.56) rotate(-89.08)"/><path class="cls-54" d="M4517.69,801.39s1.94-.25,2.36,1.35"/><path class="cls-54" d="M4519.36,800.16s2.48-.1,2.73,1.74"/><path class="cls-54" d="M4521.07,798.93s2.95,0,3.26,2.28"/><path class="cls-54" d="M4522.76,797.71s3.29-.06,3.9,2.94"/></g><g class="cls-49"><path class="cls-50" d="M5463.73,776.72l-.8.61s3,2.09,3.5,3.75,1.19,4,1.19,4,2.87-.43,3.06-4.09S5463.73,776.72,5463.73,776.72Z"/><path class="cls-50" d="M5477.39,781.46a2.43,2.43,0,0,0-2.14,2.35c-.08,2.13,2.87-.89,2.87-.89a1.89,1.89,0,0,0,.36-1.32C5478.39,780.83,5477.39,781.46,5477.39,781.46Z"/><path class="cls-50" d="M5468.71,770.16l-2.23-1.14,7.39-5.36s2.36-1.55,6.25,2.68S5468.71,770.16,5468.71,770.16Z"/><path class="cls-51" d="M5452.42,766.15a.41.41,0,0,1,.59-.5,23,23,0,0,1,6.85,6.28c2.46,3.88,8.6-2.33,12.12-3.51s10.05-3,14.84-2.28c4.25.63,7.89,3.14,8.77,7.34a.56.56,0,0,1-.17.53l-1.87,1.48,1.25.5c.94.58,2,.95.51,2.73a14.18,14.18,0,0,1-7.84,4.13c-3.09.32-10.71.32-13.78-1-7.53-3.15-12.11-8-14.07-4.55a10.07,10.07,0,0,1-3.64,3.54,17.64,17.64,0,0,1-3.37,1.65h0a.41.41,0,0,1-.52-.55l1.23-2.89a13.55,13.55,0,0,0,.15-10.28Z"/><path class="cls-52" d="M5461.3,774.41s.52-.62,3-.24,3.66.49,5.4,0,6.25-1.89,7.53-2.14c1.73-.34,4.94.6,6.15.88a8.6,8.6,0,0,0,3.64,0s-.22,1.67-.26,2.39a11.08,11.08,0,0,1-3.39-.84c-1.34-.59-4.09-1.47-6-1.1s-6.19,1.82-7.57,2.11a23.6,23.6,0,0,1-5.53-.09c-1.32-.2-3-.74-3.85.19A2.46,2.46,0,0,1,5461.3,774.41Z"/><path class="cls-53" d="M5465,777.36a50,50,0,0,0,8.57,2.73c3.52.6,6.81.79,13.61-.47,0,0-.11.8,1.1,3.09a35,35,0,0,1-9.58.12,20,20,0,0,1-4-.63A43.77,43.77,0,0,1,5465,777.36Z"/><path class="cls-50" d="M5478.41,777.58s2.22-1.76,4.13-.9c0,0,1,.17.67,1s-2.39.91-2.39.91Z"/><path class="cls-33" d="M5457,768.69a12.51,12.51,0,0,1,2.81,3.23c2.42,3.9,7.82-1.83,12.12-3.51,3-1.18,10.05-3,14.84-2.28,4.06.6,7.87,3.2,8.82,7.07.44,1.79-3.38,1.15-4.76,1.49-.95.23-1.95.46-2.17,1.86a12.31,12.31,0,0,0,1,5.74l-1.35.42c-.17,0-1.42-2.62-1.54-5.61a20.69,20.69,0,0,1,.44-5c-.18-2-4.57-1.46-6.87-1.58-4.86-.26-7.51,2.38-13.81,3.71-1.54.33-4-.68-5.23.19s-.59,1-1.57,2.71h0a5.79,5.79,0,0,1-1.92,2.42l-.28.2s.57-3.25.76-4.85a6.75,6.75,0,0,0,0-1.81Z"/><ellipse class="cls-52" cx="5490.91" cy="772.18" rx="1.69" ry="0.75" transform="translate(4630.47 6249.96) rotate(-89.08)"/><circle class="cls-33" cx="5490.91" cy="772.18" r="0.44" transform="translate(4630.47 6249.96) rotate(-89.08)"/><path class="cls-54" d="M5468.51,767.54s1.94-.25,2.36,1.35"/><path class="cls-54" d="M5470.18,766.31s2.48-.1,2.73,1.74"/><path class="cls-54" d="M5471.89,765.09s2.95,0,3.26,2.28"/><path class="cls-54" d="M5473.59,763.86s3.29-.06,3.9,2.94"/></g><g class="cls-49"><path class="cls-50" d="M2187.67,780.56l-.8.61s3,2.09,3.5,3.75,1.19,4,1.19,4,2.87-.43,3.06-4.09S2187.67,780.56,2187.67,780.56Z"/><path class="cls-50" d="M2201.33,785.3a2.43,2.43,0,0,0-2.14,2.35c-.08,2.13,2.87-.89,2.87-.89a1.89,1.89,0,0,0,.36-1.32C2202.34,784.67,2201.33,785.3,2201.33,785.3Z"/><path class="cls-50" d="M2192.66,774l-2.23-1.14,7.39-5.36s2.36-1.55,6.25,2.68S2192.66,774,2192.66,774Z"/><path class="cls-51" d="M2176.36,770a.41.41,0,0,1,.59-.5,23,23,0,0,1,6.85,6.28c2.46,3.88,8.6-2.33,12.12-3.51s10.05-3,14.84-2.28c4.25.63,7.89,3.14,8.77,7.34a.56.56,0,0,1-.17.53l-1.87,1.48,1.25.5c.94.58,2,.95.51,2.73a14.18,14.18,0,0,1-7.84,4.13c-3.09.32-10.71.32-13.78-1-7.53-3.15-12.11-8-14.07-4.55a10.07,10.07,0,0,1-3.64,3.54,17.64,17.64,0,0,1-3.37,1.65h0a.41.41,0,0,1-.52-.55l1.23-2.89a13.55,13.55,0,0,0,.15-10.28Z"/><path class="cls-52" d="M2185.24,778.26s.52-.62,3-.24,3.66.49,5.4,0,6.25-1.89,7.53-2.14c1.73-.34,4.94.6,6.15.88a8.6,8.6,0,0,0,3.64,0s-.22,1.67-.26,2.39a11.08,11.08,0,0,1-3.39-.84c-1.34-.59-4.09-1.47-6-1.1s-6.19,1.82-7.57,2.11a23.6,23.6,0,0,1-5.53-.09c-1.32-.2-3-.74-3.85.19A2.46,2.46,0,0,1,2185.24,778.26Z"/><path class="cls-53" d="M2189,781.21a50,50,0,0,0,8.57,2.73c3.52.6,6.81.79,13.61-.47,0,0-.11.8,1.1,3.09a35,35,0,0,1-9.58.12,20,20,0,0,1-4-.63A43.77,43.77,0,0,1,2189,781.21Z"/><path class="cls-50" d="M2202.35,781.42s2.22-1.76,4.13-.9c0,0,1,.17.67,1s-2.39.91-2.39.91Z"/><path class="cls-33" d="M2181,772.54a12.51,12.51,0,0,1,2.81,3.23c2.42,3.9,7.82-1.83,12.12-3.51,3-1.18,10.05-3,14.84-2.28,4.06.6,7.87,3.2,8.82,7.07.44,1.79-3.38,1.15-4.76,1.49-.95.23-1.95.46-2.17,1.86a12.31,12.31,0,0,0,1,5.74l-1.35.42c-.17,0-1.42-2.62-1.54-5.61a20.69,20.69,0,0,1,.44-5c-.18-2-4.57-1.46-6.87-1.58-4.86-.26-7.51,2.38-13.81,3.71-1.54.33-4-.68-5.23.19s-.59,1-1.57,2.71h0a5.79,5.79,0,0,1-1.92,2.42l-.28.2s.57-3.25.76-4.85a6.75,6.75,0,0,0,0-1.81Z"/><ellipse class="cls-52" cx="2214.85" cy="776.03" rx="1.69" ry="0.75" transform="translate(1403.28 2978.1) rotate(-89.08)"/><circle class="cls-33" cx="2214.85" cy="776.03" r="0.44" transform="translate(1403.28 2978.1) rotate(-89.08)"/><path class="cls-54" d="M2192.45,771.38s1.94-.25,2.36,1.35"/><path class="cls-54" d="M2194.13,770.16s2.48-.1,2.73,1.74"/><path class="cls-54" d="M2195.83,768.93s2.95,0,3.26,2.28"/><path class="cls-54" d="M2197.53,767.71s3.29-.06,3.9,2.94"/></g><rect class="cls-55" x="-2.57" y="1047.4" width="1970.55" height="31.15"/><rect class="cls-55" x="1967.97" y="1047.4" width="1970.55" height="31.15"/><rect class="cls-55" x="3938.52" y="1047.4" width="1970.55" height="31.15"/><g class="cls-38"><path class="cls-39" d="M2102.53,940.53s.41-11.78-1.58-18.11c0,0,1.45-.37,4,7.67,0,0,.12-29.06,8.69-29.06,0,0-4.58,4-4.58,39.5"/><path class="cls-40" d="M2112.75,919.4s-2.57,6.1-2.57,21.13h-5.69s1-28.43-3.54-42.93c0,0,6.68,10.43,6.68,32.49C2107.64,930.09,2109.12,919.4,2112.75,919.4Z"/><path class="cls-40" d="M2086.3,940.53s.62-17.81-2.39-27.38c0,0,2.2-.56,6,11.59,0,0,.18-43.92,13.14-43.92,0,0-6.92,6-6.92,59.71"/><path class="cls-41" d="M2101.74,908.59s-3.88,9.23-3.88,31.94h-8.6s1.55-43-5.35-64.9c0,0,10.1,15.76,10.1,49.11C2094,924.74,2096.26,908.59,2101.74,908.59Z"/><path class="cls-39" d="M2135.62,941.51s.41-11.78-1.58-18.11c0,0,1.45-.37,4,7.67,0,0,.12-29.06,8.69-29.06,0,0-4.58,4-4.58,39.5"/><path class="cls-40" d="M2145.84,920.38s-2.57,6.1-2.57,21.13h-5.69s1-28.43-3.54-42.93c0,0,6.68,10.43,6.68,32.49C2140.72,931.06,2142.2,920.38,2145.84,920.38Z"/></g></g></g></svg>