<svg xmlns="http://www.w3.org/2000/svg" viewBox="0 0 5909 1080"><defs><style>.cls-1{isolation:isolate;}.cls-2{fill:#d1ebec;}.cls-3{fill:#33b5b8;}.cls-4{fill:#17abae;}.cls-5{fill:#00a2a6;}.cls-6{fill:#ffef8d;}.cls-7{opacity:0.8;}.cls-8,.cls-9{fill:#fff;}.cls-9{opacity:0.81;}.cls-10{fill:#8c8175;}.cls-11,.cls-25{fill:#7f7366;}.cls-11{opacity:0.62;}.cls-12{fill:#e2e0ca;}.cls-13{fill:#bfb9b2;}.cls-14{fill:#a59d94;}.cls-15{fill:#4c77a2;}.cls-16{fill:#336495;}.cls-17{fill:#4c5f8d;}.cls-18{fill:#195187;}.cls-19,.cls-22{fill:#189ca1;}.cls-20{fill:#4c719d;}.cls-21{fill:#8099b9;}.cls-22{opacity:0.5;}.cls-23{fill:#003473;}.cls-24{fill:none;stroke:#003473;stroke-miterlimit:10;stroke-width:0.34px;mix-blend-mode:soft-light;}</style></defs><title>Artboard 1 copy 41x</title><g class="cls-1"><g id="Layer_1" data-name="Layer 1"><rect class="cls-2" x="-1.16" y="3.07" width="5910.16" height="1078.38"/><path class="cls-3" d="M3.31,491l413.4-18.23c453.65-20,919.06-16.76,1367.46,9.51l47.15,2.76c400.92,23.49,815.86,28.59,1224.21,15l278.38-9.24c326-10.82,656.67-9.76,981.45,3.13h0c239.24,9.5,481.92,12.58,723.84,9.19L5909,491V990.71H4.4Z"/><path class="cls-4" d="M3.31,534.64l413.4-18.23c453.65-20,919.06-16.76,1367.46,9.51l47.15,2.76c400.92,23.49,815.86,28.59,1224.21,15l278.38-9.24c326-10.82,656.67-9.76,981.45,3.13h0c239.24,9.5,481.92,12.58,723.84,9.19L5909,534.64v499.67H4.4Z"/><path class="cls-5" d="M3.31,579.88l413.4-18.23c453.65-20,919.06-16.76,1367.46,9.51l47.15,2.76c400.92,23.49,815.86,28.59,1224.21,15l278.38-9.24c326-10.82,656.67-9.76,981.45,3.13h0c239.24,9.5,481.92,12.58,723.84,9.19L5909,579.88v499.67H4.4Z"/><path class="cls-6" d="M258.4,167.37a96.13,96.13,0,1,1-96.13-96.13,96.13,96.13,0,0,1,96.13,96.13"/><g class="cls-7"><path class="cls-8" d="M573.08,192.73a15.86,15.86,0,0,0-5.31.92,25.07,25.07,0,0,0-49.42,5.91q0,.64,0,1.29h0a11.89,11.89,0,0,0,0,23.78l.46,0a2.64,2.64,0,0,0,.28,0h50.76a3.11,3.11,0,0,0,1-.17,15.78,15.78,0,0,0,2.26.17,16,16,0,0,0,0-31.9"/></g><path class="cls-9" d="M155.9,255.33a9.21,9.21,0,0,0-3.08.54,14.55,14.55,0,0,0-28.7,3.43q0,.37,0,.75h0a6.9,6.9,0,1,0,0,13.81l.27,0,.16,0H154a1.81,1.81,0,0,0,.56-.1,9.16,9.16,0,0,0,1.31.1,9.26,9.26,0,0,0,0-18.52"/><path class="cls-9" d="M172.37,78.71a15.23,15.23,0,0,1,5.1.89,24.08,24.08,0,0,1,47.48,5.68q0,.62,0,1.24h0a11.42,11.42,0,0,1,0,22.84l-.44,0-.27,0H175.47a3,3,0,0,1-.93-.16,15.16,15.16,0,0,1-2.17.16,15.32,15.32,0,0,1,0-30.65"/><path class="cls-8" d="M1710.16,31.89a43,43,0,0,0-14.4,2.51,68,68,0,0,0-134.11,16q0,1.75.09,3.49h-.09a32.26,32.26,0,0,0,0,64.52c.42,0,.82-.06,1.24-.08a7.15,7.15,0,0,0,.77.08h137.73A8.45,8.45,0,0,0,1704,118a42.82,42.82,0,0,0,6.14.45,43.28,43.28,0,0,0,0-86.57"/><path class="cls-10" d="M-1,948.55s966.29,90.14,1227,134l-1227-1Z"/><path class="cls-10" d="M787,1078.55s1438-220.5,2304,0"/><path class="cls-10" d="M2715,1078.55s792-188,1600,0"/><path class="cls-10" d="M3579,1078.55s1441.44-292.5,2912,0"/><ellipse class="cls-11" cx="1712.83" cy="1018.08" rx="105.74" ry="22.61"/><path class="cls-12" d="M1806.58,994.94c.11,18.73-32.19,34.1-72.15,34.34-76.87.45-113.58-15.18-108.72-33.28,10.33-38.5,50.13-59.83,90.09-60.07S1806.47,976.21,1806.58,994.94Z"/><path class="cls-13" d="M1806.58,994.94c.11,18.73-32.19,34.1-72.15,34.34-76.87.45-113.58-15.18-108.72-33.28l19.91,5a281.26,281.26,0,0,0,140.7-.74Z"/><ellipse class="cls-14" cx="1741.82" cy="966.7" rx="9.07" ry="3.1"/><ellipse class="cls-14" cx="1715.93" cy="976.55" rx="9.07" ry="3.1"/><ellipse class="cls-14" cx="1681.62" cy="964.91" rx="11.06" ry="4.89"/><ellipse class="cls-11" cx="2175.51" cy="1029.06" rx="54.42" ry="11.64"/><path class="cls-12" d="M2223.77,1017.14c.06,9.64-16.57,17.55-37.13,17.67-39.56.23-58.46-7.82-56-17.13,5.31-19.81,25.8-30.8,46.37-30.92S2223.71,1007.5,2223.77,1017.14Z"/><path class="cls-13" d="M2223.77,1017.14c.06,9.64-16.57,17.55-37.13,17.67-39.56.23-58.46-7.82-56-17.13l10.25,2.59a144.76,144.76,0,0,0,72.41-.38Z"/><ellipse class="cls-14" cx="2190.43" cy="1002.61" rx="4.67" ry="1.6"/><ellipse class="cls-14" cx="2177.11" cy="1007.68" rx="4.67" ry="1.6"/><ellipse class="cls-14" cx="2159.45" cy="1001.69" rx="5.69" ry="2.52"/><path class="cls-15" d="M1871.26,1069.36s1.94-55.35-7.43-85.1c0,0,6.83-1.74,18.72,36,0,0,.57-136.53,40.84-136.53,0,0-21.53,18.74-21.53,185.62"/><path class="cls-16" d="M1919.26,970.07s-12.05,28.68-12.05,99.29h-26.74s4.81-133.6-16.64-201.74c0,0,31.4,49,31.4,152.66C1895.23,1020.28,1902.2,970.07,1919.26,970.07Z"/><path class="cls-17" d="M1795,1069.36s2.93-83.68-11.23-128.64c0,0,10.33-2.62,28.29,54.45,0,0,.86-206.39,61.73-206.39,0,0-32.54,28.32-32.54,280.58"/><path class="cls-18" d="M1867.55,919.27s-18.22,43.35-18.22,150.09h-40.42s7.28-201.95-25.15-305c0,0,47.47,74.07,47.47,230.76C1831.23,995.17,1841.76,919.27,1867.55,919.27Z"/><ellipse class="cls-11" cx="5687.98" cy="1023.62" rx="126.58" ry="27.07"/><path class="cls-12" d="M5800.21,995.92c.13,22.42-38.54,40.83-86.37,41.11-92,.54-136-18.18-130.15-39.83,12.36-46.09,60-71.63,107.84-71.91S5800.08,973.5,5800.21,995.92Z"/><path class="cls-13" d="M5800.21,995.92c.13,22.42-38.54,40.83-86.37,41.11-92,.54-136-18.18-130.15-39.83l23.83,6a336.7,336.7,0,0,0,168.43-.89Z"/><ellipse class="cls-14" cx="5722.69" cy="962.11" rx="10.85" ry="3.71"/><ellipse class="cls-14" cx="5691.7" cy="973.91" rx="10.85" ry="3.71"/><ellipse class="cls-14" cx="5650.62" cy="959.97" rx="13.24" ry="5.85"/><path class="cls-15" d="M5866.28,1069.36s2.32-66.27-8.89-101.87c0,0,8.18-2.08,22.41,43.12,0,0,.68-163.44,48.89-163.44,0,0-25.77,22.43-25.77,222.2"/><path class="cls-16" d="M5923.75,950.5s-14.43,34.33-14.43,118.86h-32s5.76-159.93-19.92-241.5c0,0,37.59,58.66,37.59,182.74C5895,1010.61,5903.32,950.5,5923.75,950.5Z"/><path class="cls-17" d="M5775,1069.36s3.5-100.17-13.44-154c0,0,12.36-3.14,33.87,65.18,0,0,1-247.06,73.9-247.06,0,0-39,33.91-39,335.88"/><path class="cls-18" d="M5861.85,889.69S5840,941.58,5840,1069.36h-48.38s8.71-241.75-30.11-365.06c0,0,56.83,88.67,56.83,276.24C5818.37,980.54,5831,889.69,5861.85,889.69Z"/><ellipse class="cls-11" cx="4742.13" cy="1018.08" rx="105.74" ry="22.61"/><path class="cls-12" d="M4835.89,994.94c.11,18.73-32.19,34.1-72.15,34.34-76.87.45-113.58-15.18-108.72-33.28,10.33-38.5,50.13-59.83,90.09-60.07S4835.78,976.21,4835.89,994.94Z"/><path class="cls-13" d="M4835.89,994.94c.11,18.73-32.19,34.1-72.15,34.34-76.87.45-113.58-15.18-108.72-33.28l19.91,5a281.26,281.26,0,0,0,140.7-.74Z"/><ellipse class="cls-14" cx="4771.13" cy="966.7" rx="9.07" ry="3.1"/><ellipse class="cls-14" cx="4745.24" cy="976.55" rx="9.07" ry="3.1"/><ellipse class="cls-14" cx="4710.92" cy="964.91" rx="11.06" ry="4.89"/><path class="cls-15" d="M4455,1069.36s1.94-55.35-7.43-85.1c0,0,6.83-1.74,18.72,36,0,0,.57-136.53,40.84-136.53,0,0-21.53,18.74-21.53,185.62"/><path class="cls-16" d="M4503,970.07S4491,998.75,4491,1069.36h-26.74s4.81-133.6-16.64-201.74c0,0,31.4,49,31.4,152.66C4479,1020.28,4486,970.07,4503,970.07Z"/><path class="cls-17" d="M4378.76,1069.36s2.93-83.68-11.23-128.64c0,0,10.33-2.62,28.29,54.45,0,0,.86-206.39,61.73-206.39,0,0-32.54,28.32-32.54,280.58"/><path class="cls-18" d="M4451.32,919.27s-18.22,43.35-18.22,150.09h-40.42s7.28-201.95-25.15-305c0,0,47.47,74.07,47.47,230.76C4415,995.17,4425.53,919.27,4451.32,919.27Z"/><path class="cls-15" d="M55,1069.36S57,1014,47.6,984.26c0,0,6.83-1.74,18.72,36,0,0,.57-136.53,40.84-136.53,0,0-21.53,18.74-21.53,185.62"/><path class="cls-16" d="M103,970.07S91,998.75,91,1069.36H64.24S69,935.77,47.6,867.63c0,0,31.4,49,31.4,152.66C79,1020.28,86,970.07,103,970.07Z"/><path class="cls-17" d="M-21.24,1069.36s2.93-83.68-11.23-128.64c0,0,10.33-2.62,28.29,54.45,0,0,.86-206.39,61.73-206.39,0,0-32.54,28.32-32.54,280.58"/><path class="cls-18" d="M51.32,919.27S33.1,962.62,33.1,1069.36H-7.32S0,867.42-32.47,764.41c0,0,47.47,74.07,47.47,230.76C15,995.17,25.53,919.27,51.32,919.27Z"/><path class="cls-19" d="M288.94,700.43l-2,1.51s7.32,5.14,8.61,9.2,2.92,9.76,2.92,9.76,7-1.06,7.52-10S288.94,700.43,288.94,700.43Z"/><path class="cls-19" d="M322.5,712.08a6,6,0,0,0-5.26,5.78c-.2,5.24,7-2.19,7-2.19a4.63,4.63,0,0,0,.89-3.24C325,710.54,322.5,712.08,322.5,712.08Z"/><path class="cls-19" d="M301.19,684.32l-5.48-2.81,18.14-13.17s5.81-3.81,15.34,6.59S301.19,684.32,301.19,684.32Z"/><path class="cls-20" d="M261.16,674.48a1,1,0,0,1,1.46-1.24c4,2.35,12.46,8.54,16.82,15.42,6,9.52,21.13-5.72,29.77-8.61s24.69-7.35,36.45-5.61c10.44,1.54,19.38,7.7,21.53,18a1.38,1.38,0,0,1-.43,1.31l-4.59,3.63,3.06,1.22c2.31,1.43,4.87,2.33,1.24,6.7s-12.74,9.46-19.25,10.14c-7.59.79-26.31.79-33.84-2.35-18.5-7.72-29.73-19.75-34.55-11.19-2.14,3.8-5.28,6.39-8.94,8.7a43.33,43.33,0,0,1-8.29,4.05h0a1,1,0,0,1-1.28-1.35l3-7.09a33.27,33.27,0,0,0,.36-25.24Z"/><path class="cls-21" d="M283,694.78s1.28-1.51,7.34-.59,9,1.19,13.26,0,15.36-4.65,18.49-5.26c4.25-.83,12.13,1.48,15.12,2.15,3.3.74,4.76.63,8.95.12,0,0-.54,4.09-.64,5.88a27.22,27.22,0,0,1-8.34-2.07c-3.3-1.44-10-3.62-14.8-2.69-4.56.89-15.21,4.48-18.6,5.18-2.76.57-10.33.28-13.58-.22s-7.31-1.81-9.46.46A6,6,0,0,1,283,694.78Z"/><path class="cls-22" d="M292.17,702s12.4,5.22,21,6.71,16.72,2,33.43-1.15c0,0-.27,2,2.7,7.6,0,0-9.31,1.84-23.53.29-3.16-.34-6.94-.53-9.93-1.54A107.51,107.51,0,0,1,292.17,702Z"/><path class="cls-19" d="M325,702.55s5.46-4.32,10.14-2.22c0,0,2.35.43,1.64,2.41s-5.87,2.24-5.87,2.24Z"/><path class="cls-23" d="M272.54,680.73a30.74,30.74,0,0,1,6.9,7.93c6,9.58,19.22-4.49,29.77-8.61,7.45-2.91,24.69-7.35,36.45-5.61,10,1.47,19.34,7.87,21.66,17.37,1.07,4.4-8.3,2.82-11.7,3.66-2.33.58-4.79,1.13-5.32,4.57-1,6.44,2.37,14.1,2.37,14.1l-3.32,1c-.42.08-3.48-6.43-3.79-13.79a50.82,50.82,0,0,1,1.08-12.31c-.44-4.87-11.22-3.58-16.87-3.88-11.94-.64-18.45,5.83-33.93,9.11-3.79.8-9.71-1.66-12.86.46-3,2-1.44,2.5-3.85,6.66h0a14.22,14.22,0,0,1-4.72,6l-.68.5s1.39-8,1.88-11.92a16.58,16.58,0,0,0,0-4.44Z"/><ellipse class="cls-21" cx="355.71" cy="689.3" rx="4.15" ry="1.83" transform="translate(-339.22 1033.87) rotate(-89.08)"/><circle class="cls-23" cx="355.71" cy="689.3" r="1.09" transform="matrix(0.02, -1, 1, 0.02, -339.22, 1033.87)"/><path class="cls-24" d="M300.69,677.9s4.76-.61,5.8,3.32"/><path class="cls-24" d="M304.8,674.88s6.09-.24,6.71,4.27"/><path class="cls-24" d="M309,671.87s7.24.12,8,5.6"/><path class="cls-24" d="M313.16,668.86s8.09-.14,9.59,7.23"/><path class="cls-19" d="M1352.94,700.43l-2,1.51s7.32,5.14,8.61,9.2,2.92,9.76,2.92,9.76,7-1.06,7.52-10S1352.94,700.43,1352.94,700.43Z"/><path class="cls-19" d="M1386.5,712.08a6,6,0,0,0-5.26,5.78c-.2,5.24,7-2.19,7-2.19a4.63,4.63,0,0,0,.89-3.24C1389,710.54,1386.5,712.08,1386.5,712.08Z"/><path class="cls-19" d="M1365.19,684.32l-5.48-2.81,18.14-13.17s5.81-3.81,15.34,6.59S1365.19,684.32,1365.19,684.32Z"/><path class="cls-20" d="M1325.16,674.48a1,1,0,0,1,1.46-1.24c4,2.35,12.46,8.54,16.82,15.42,6,9.52,21.13-5.72,29.77-8.61s24.69-7.35,36.45-5.61c10.44,1.54,19.38,7.7,21.53,18a1.38,1.38,0,0,1-.43,1.31l-4.59,3.63,3.06,1.22c2.31,1.43,4.87,2.33,1.24,6.7s-12.74,9.46-19.25,10.14c-7.59.79-26.31.79-33.84-2.35-18.5-7.72-29.73-19.75-34.55-11.19-2.14,3.8-5.28,6.39-8.94,8.7a43.33,43.33,0,0,1-8.29,4.05h0a1,1,0,0,1-1.28-1.35l3-7.09a33.27,33.27,0,0,0,.36-25.24Z"/><path class="cls-21" d="M1347,694.78s1.28-1.51,7.34-.59,9,1.19,13.26,0,15.36-4.65,18.49-5.26c4.25-.83,12.13,1.48,15.12,2.15,3.3.74,4.76.63,8.95.12,0,0-.54,4.09-.64,5.88a27.22,27.22,0,0,1-8.34-2.07c-3.3-1.44-10-3.62-14.8-2.69-4.56.89-15.21,4.48-18.6,5.18-2.76.57-10.33.28-13.58-.22s-7.31-1.81-9.46.46A6,6,0,0,1,1347,694.78Z"/><path class="cls-22" d="M1356.17,702s12.4,5.22,21,6.71,16.72,2,33.43-1.15c0,0-.27,2,2.7,7.6,0,0-9.31,1.84-23.53.29-3.16-.34-6.94-.53-9.93-1.54A107.51,107.51,0,0,1,1356.17,702Z"/><path class="cls-19" d="M1389,702.55s5.46-4.32,10.14-2.22c0,0,2.35.43,1.64,2.41s-5.87,2.24-5.87,2.24Z"/><path class="cls-23" d="M1336.54,680.73a30.74,30.74,0,0,1,6.9,7.93c6,9.58,19.22-4.49,29.77-8.61,7.45-2.91,24.69-7.35,36.45-5.61,10,1.47,19.34,7.87,21.66,17.37,1.07,4.4-8.3,2.82-11.7,3.66-2.33.58-4.79,1.13-5.32,4.57-1,6.44,2.37,14.1,2.37,14.1l-3.32,1c-.42.08-3.48-6.43-3.79-13.79a50.82,50.82,0,0,1,1.08-12.31c-.44-4.87-11.22-3.58-16.87-3.88-11.94-.64-18.45,5.83-33.93,9.11-3.79.8-9.71-1.66-12.86.46-3,2-1.44,2.5-3.85,6.66h0a14.22,14.22,0,0,1-4.72,6l-.68.5s1.39-8,1.88-11.92a16.58,16.58,0,0,0,0-4.44Z"/><ellipse class="cls-21" cx="1419.71" cy="689.3" rx="4.15" ry="1.83" transform="translate(707.65 2097.73) rotate(-89.08)"/><circle class="cls-23" cx="1419.71" cy="689.3" r="1.09" transform="matrix(0.02, -1, 1, 0.02, 707.65, 2097.73)"/><path class="cls-24" d="M1364.69,677.9s4.76-.61,5.8,3.32"/><path class="cls-24" d="M1368.8,674.88s6.09-.24,6.71,4.27"/><path class="cls-24" d="M1373,671.87s7.24.12,8,5.6"/><path class="cls-24" d="M1377.16,668.86s8.09-.14,9.59,7.23"/><path class="cls-19" d="M2867.2,696.81l-2,1.51s7.32,5.14,8.61,9.2,2.92,9.76,2.92,9.76,7-1.06,7.52-10S2867.2,696.81,2867.2,696.81Z"/><path class="cls-19" d="M2900.76,708.46a6,6,0,0,0-5.26,5.78c-.2,5.24,7-2.19,7-2.19a4.63,4.63,0,0,0,.89-3.24C2903.22,706.92,2900.76,708.46,2900.76,708.46Z"/><path class="cls-19" d="M2879.45,680.7,2874,677.9l18.14-13.17s5.81-3.81,15.34,6.59S2879.45,680.7,2879.45,680.7Z"/><path class="cls-20" d="M2839.42,670.86a1,1,0,0,1,1.46-1.24c4,2.35,12.46,8.54,16.82,15.42,6,9.52,21.13-5.72,29.77-8.61s24.69-7.35,36.45-5.61c10.44,1.54,19.38,7.7,21.53,18a1.38,1.38,0,0,1-.43,1.31l-4.59,3.63,3.06,1.22c2.31,1.43,4.87,2.33,1.24,6.7s-12.74,9.46-19.25,10.14c-7.59.79-26.31.79-33.84-2.35-18.5-7.72-29.73-19.75-34.55-11.19-2.14,3.8-5.28,6.39-8.94,8.7a43.33,43.33,0,0,1-8.29,4.05h0a1,1,0,0,1-1.28-1.35l3-7.09a33.27,33.27,0,0,0,.36-25.24Z"/><path class="cls-21" d="M2861.25,691.16s1.28-1.51,7.34-.59,9,1.19,13.26,0,15.36-4.65,18.49-5.26c4.25-.83,12.13,1.48,15.12,2.15,3.3.74,4.76.63,8.95.12,0,0-.54,4.09-.64,5.88a27.22,27.22,0,0,1-8.34-2.07c-3.3-1.44-10-3.62-14.8-2.69-4.56.89-15.21,4.48-18.6,5.18-2.76.57-10.33.28-13.58-.22s-7.31-1.81-9.46.46A6,6,0,0,1,2861.25,691.16Z"/><path class="cls-22" d="M2870.42,698.4s12.4,5.22,21,6.71,16.72,2,33.43-1.15c0,0-.27,2,2.7,7.6,0,0-9.31,1.84-23.53.29-3.16-.34-6.94-.53-9.93-1.54A107.51,107.51,0,0,1,2870.42,698.4Z"/><path class="cls-19" d="M2903.26,698.93s5.46-4.32,10.14-2.22c0,0,2.35.43,1.64,2.41s-5.87,2.24-5.87,2.24Z"/><path class="cls-23" d="M2850.8,677.11a30.74,30.74,0,0,1,6.9,7.93c6,9.58,19.22-4.49,29.77-8.61,7.45-2.91,24.69-7.35,36.45-5.61,10,1.47,19.34,7.87,21.66,17.37,1.07,4.4-8.3,2.82-11.7,3.66-2.33.58-4.79,1.13-5.32,4.57-1,6.44,2.37,14.1,2.37,14.1l-3.32,1c-.42.08-3.48-6.43-3.79-13.79a50.82,50.82,0,0,1,1.08-12.31c-.44-4.87-11.22-3.58-16.87-3.88-11.94-.64-18.45,5.83-33.93,9.11-3.79.8-9.71-1.66-12.86.46-3,2-1.44,2.5-3.85,6.66h0a14.22,14.22,0,0,1-4.72,6l-.68.5s1.39-8,1.88-11.92a16.58,16.58,0,0,0,0-4.44Z"/><ellipse class="cls-21" cx="2933.97" cy="685.68" rx="4.15" ry="1.83" transform="translate(2201.16 3608.23) rotate(-89.08)"/><circle class="cls-23" cx="2933.97" cy="685.68" r="1.09" transform="matrix(0.02, -1, 1, 0.02, 2201.16, 3608.23)"/><path class="cls-24" d="M2879,674.28s4.76-.61,5.8,3.32"/><path class="cls-24" d="M2883.06,671.26s6.09-.24,6.71,4.27"/><path class="cls-24" d="M2887.25,668.25s7.24.12,8,5.6"/><path class="cls-24" d="M2891.41,665.24s8.09-.14,9.59,7.23"/><path class="cls-19" d="M3636.94,732.63l-2,1.51s7.32,5.14,8.61,9.2,2.92,9.76,2.92,9.76,7-1.06,7.52-10S3636.94,732.63,3636.94,732.63Z"/><path class="cls-19" d="M3670.5,744.28a6,6,0,0,0-5.26,5.78c-.2,5.24,7-2.19,7-2.19a4.63,4.63,0,0,0,.89-3.24C3673,742.74,3670.5,744.28,3670.5,744.28Z"/><path class="cls-19" d="M3649.19,716.53l-5.48-2.81,18.14-13.17s5.81-3.81,15.34,6.59S3649.19,716.53,3649.19,716.53Z"/><path class="cls-20" d="M3609.16,706.68a1,1,0,0,1,1.46-1.24c4,2.35,12.46,8.54,16.82,15.42,6,9.52,21.13-5.72,29.77-8.61s24.69-7.35,36.45-5.61c10.44,1.54,19.38,7.7,21.53,18a1.38,1.38,0,0,1-.43,1.31l-4.59,3.63,3.06,1.22c2.31,1.43,4.87,2.33,1.24,6.7s-12.74,9.46-19.25,10.14c-7.59.79-26.31.79-33.84-2.35-18.5-7.72-29.73-19.75-34.55-11.19-2.14,3.8-5.28,6.39-8.94,8.7a43.33,43.33,0,0,1-8.29,4.05h0a1,1,0,0,1-1.28-1.35l3-7.09a33.27,33.27,0,0,0,.36-25.24Z"/><path class="cls-21" d="M3631,727s1.28-1.51,7.34-.59,9,1.19,13.26,0,15.36-4.65,18.49-5.26c4.25-.83,12.13,1.48,15.12,2.15,3.3.74,4.76.63,8.95.12,0,0-.54,4.09-.64,5.88a27.22,27.22,0,0,1-8.34-2.07c-3.3-1.44-10-3.62-14.8-2.69-4.56.89-15.21,4.48-18.6,5.18-2.76.57-10.33.28-13.58-.22s-7.31-1.81-9.46.46A6,6,0,0,1,3631,727Z"/><path class="cls-22" d="M3640.17,734.23s12.4,5.22,21,6.71,16.72,2,33.43-1.15c0,0-.27,2,2.7,7.6,0,0-9.31,1.84-23.53.29-3.16-.34-6.94-.53-9.93-1.54A107.51,107.51,0,0,1,3640.17,734.23Z"/><path class="cls-19" d="M3673,734.75s5.46-4.32,10.14-2.22c0,0,2.35.43,1.64,2.41s-5.87,2.24-5.87,2.24Z"/><path class="cls-23" d="M3620.54,712.93a30.74,30.74,0,0,1,6.9,7.93c6,9.58,19.22-4.49,29.77-8.61,7.45-2.91,24.69-7.35,36.45-5.61,10,1.47,19.34,7.87,21.66,17.37,1.07,4.4-8.3,2.82-11.7,3.66-2.33.58-4.79,1.13-5.32,4.57-1,6.44,2.37,14.1,2.37,14.1l-3.32,1c-.42.08-3.48-6.43-3.79-13.79a50.82,50.82,0,0,1,1.08-12.31c-.44-4.87-11.22-3.58-16.87-3.88-11.94-.64-18.45,5.83-33.93,9.11-3.79.8-9.71-1.66-12.86.46-3,2-1.44,2.5-3.85,6.66h0a14.22,14.22,0,0,1-4.72,6l-.68.5s1.39-8,1.88-11.92a16.58,16.58,0,0,0,0-4.44Z"/><ellipse class="cls-21" cx="3703.71" cy="721.5" rx="4.15" ry="1.83" transform="translate(2922.7 4413.12) rotate(-89.08)"/><circle class="cls-23" cx="3703.71" cy="721.5" r="1.09" transform="translate(2922.7 4413.12) rotate(-89.08)"/><path class="cls-24" d="M3648.69,710.1s4.76-.61,5.8,3.32"/><path class="cls-24" d="M3652.8,707.09s6.09-.24,6.71,4.27"/><path class="cls-24" d="M3657,704.08s7.24.12,8,5.6"/><path class="cls-24" d="M3661.16,701.06s8.09-.14,9.59,7.23"/><path class="cls-19" d="M5232.93,709.71l-2,1.51s7.32,5.14,8.61,9.2,2.92,9.76,2.92,9.76,7-1.06,7.52-10S5232.93,709.71,5232.93,709.71Z"/><path class="cls-19" d="M5266.5,721.36a6,6,0,0,0-5.26,5.78c-.2,5.24,7-2.19,7-2.19a4.63,4.63,0,0,0,.89-3.24C5269,719.82,5266.5,721.36,5266.5,721.36Z"/><path class="cls-19" d="M5245.19,693.6l-5.48-2.81,18.14-13.17s5.81-3.81,15.34,6.59S5245.19,693.6,5245.19,693.6Z"/><path class="cls-20" d="M5205.16,683.76a1,1,0,0,1,1.46-1.24c4,2.35,12.46,8.54,16.82,15.42,6,9.52,21.13-5.72,29.77-8.61s24.69-7.35,36.45-5.61c10.44,1.54,19.38,7.7,21.53,18a1.38,1.38,0,0,1-.43,1.31l-4.59,3.63,3.06,1.22c2.31,1.43,4.87,2.33,1.24,6.7s-12.74,9.46-19.25,10.14c-7.59.79-26.31.79-33.84-2.35-18.5-7.72-29.73-19.75-34.55-11.19-2.14,3.8-5.28,6.39-8.94,8.7a43.33,43.33,0,0,1-8.29,4.05h0a1,1,0,0,1-1.28-1.35l3-7.09a33.27,33.27,0,0,0,.36-25.24Z"/><path class="cls-21" d="M5227,704.05s1.28-1.51,7.34-.59,9,1.19,13.26,0,15.36-4.65,18.49-5.26c4.25-.83,12.13,1.48,15.12,2.15,3.3.74,4.76.63,8.95.12,0,0-.54,4.09-.64,5.88a27.22,27.22,0,0,1-8.34-2.07c-3.3-1.44-10-3.62-14.8-2.69-4.56.89-15.21,4.48-18.6,5.18-2.76.57-10.33.28-13.58-.22s-7.31-1.81-9.46.46A6,6,0,0,1,5227,704.05Z"/><path class="cls-22" d="M5236.16,711.3s12.4,5.22,21,6.71,16.72,2,33.43-1.15c0,0-.27,2,2.7,7.6,0,0-9.31,1.84-23.53.29-3.16-.34-6.94-.53-9.93-1.54A107.51,107.51,0,0,1,5236.16,711.3Z"/><path class="cls-19" d="M5269,711.83s5.46-4.32,10.14-2.22c0,0,2.35.43,1.64,2.41s-5.87,2.24-5.87,2.24Z"/><path class="cls-23" d="M5216.53,690a30.74,30.74,0,0,1,6.9,7.93c6,9.58,19.22-4.49,29.77-8.61,7.45-2.91,24.69-7.35,36.45-5.61,10,1.47,19.34,7.87,21.66,17.37,1.07,4.4-8.3,2.82-11.7,3.66-2.33.58-4.79,1.13-5.32,4.57-1,6.44,2.37,14.1,2.37,14.1l-3.32,1c-.42.08-3.48-6.43-3.79-13.79a50.82,50.82,0,0,1,1.08-12.31c-.44-4.87-11.22-3.58-16.87-3.88-11.94-.64-18.45,5.83-33.93,9.11-3.79.8-9.71-1.66-12.86.46-3,2-1.44,2.5-3.85,6.66h0a14.22,14.22,0,0,1-4.72,6l-.68.5s1.39-8,1.88-11.92a16.58,16.58,0,0,0,0-4.44Z"/><ellipse class="cls-21" cx="5299.71" cy="698.58" rx="4.15" ry="1.83" transform="translate(4515.93 5986.35) rotate(-89.08)"/><circle class="cls-23" cx="5299.71" cy="698.58" r="1.09" transform="matrix(0.02, -1, 1, 0.02, 4515.93, 5986.35)"/><path class="cls-24" d="M5244.69,687.17s4.76-.61,5.8,3.32"/><path class="cls-24" d="M5248.8,684.16s6.09-.24,6.71,4.27"/><path class="cls-24" d="M5253,681.15s7.24.12,8,5.6"/><path class="cls-24" d="M5257.15,678.14s8.09-.14,9.59,7.23"/><rect class="cls-25" x="-2.57" y="1047.4" width="1970.55" height="31.15"/><rect class="cls-25" x="1967.97" y="1047.4" width="1970.55" height="31.15"/><rect class="cls-25" x="3938.52" y="1047.4" width="1970.55" height="31.15"/></g></g></svg>